ISO-10303-21;
HEADER;
/* Generated by software containing ST-Developer
 * from STEP Tools, Inc. (www.steptools.com) 
 */

FILE_DESCRIPTION(
/* description */ ('Bezel'),
/* implementation_level */ '2;1');

FILE_NAME(
/* name */ 'blipscope-bezel.step',
/* time_stamp */ '2026-09-23T14:37:59-07:00',
/* author */ (''),
/* organization */ (''),
/* preprocessor_version */ 'ST-DEVELOPER v20.2',
/* originating_system */ 'Autodesk Translation Framework v15.15.0.0',
/* authorisation */ '');

FILE_SCHEMA (('AUTOMOTIVE_DESIGN { 1 0 10303 214 3 1 1 }'));
ENDSEC;

DATA;
#10=MECHANICAL_DESIGN_GEOMETRIC_PRESENTATION_REPRESENTATION('',(#13),#894);
#11=SHAPE_REPRESENTATION_RELATIONSHIP('SRR','None',#901,#12);
#12=ADVANCED_BREP_SHAPE_REPRESENTATION('',(#14),#893);
#13=STYLED_ITEM('',(#911),#14);
#14=MANIFOLD_SOLID_BREP('bezel',#245);
#15=FACE_BOUND('',#60,.T.);
#16=FACE_BOUND('',#61,.T.);
#17=FACE_BOUND('',#62,.T.);
#18=FACE_BOUND('',#63,.T.);
#19=FACE_BOUND('',#64,.T.);
#20=FACE_BOUND('',#67,.T.);
#21=FACE_BOUND('',#68,.T.);
#22=FACE_BOUND('',#69,.T.);
#23=FACE_BOUND('',#70,.T.);
#24=FACE_BOUND('',#71,.T.);
#25=PLANE('',#283);
#26=PLANE('',#287);
#27=CYLINDRICAL_SURFACE('',#261,21.175);
#28=CYLINDRICAL_SURFACE('',#266,1.3);
#29=CYLINDRICAL_SURFACE('',#271,1.3);
#30=CYLINDRICAL_SURFACE('',#276,1.3);
#31=CYLINDRICAL_SURFACE('',#281,1.3);
#32=CYLINDRICAL_SURFACE('',#285,26.25);
#33=B_SPLINE_SURFACE_WITH_KNOTS('',3,3,((#713,#714,#715,#716,#717,#718,
#719,#720,#721,#722,#723,#724,#725,#726,#727,#728,#729),(#730,#731,#732,
#733,#734,#735,#736,#737,#738,#739,#740,#741,#742,#743,#744,#745,#746),
(#747,#748,#749,#750,#751,#752,#753,#754,#755,#756,#757,#758,#759,#760,
#761,#762,#763),(#764,#765,#766,#767,#768,#769,#770,#771,#772,#773,#774,
#775,#776,#777,#778,#779,#780),(#781,#782,#783,#784,#785,#786,#787,#788,
#789,#790,#791,#792,#793,#794,#795,#796,#797),(#798,#799,#800,#801,#802,
#803,#804,#805,#806,#807,#808,#809,#810,#811,#812,#813,#814)),
 .UNSPECIFIED.,.F.,.T.,.F.,(4,1,1,4),(4,1,1,1,1,1,1,1,1,1,1,1,1,1,4),(0.,
0.287017505261807,0.478362508769678,0.669707512277549),(-3.14159265358979,
-2.69279370307697,-2.24399475256414,-1.79519580205131,-1.34639685153848,
-1.0471975511966,-0.448798950512828,-0.149599650170943,0.448798950512828,
0.747998250854713,1.34639685153848,1.64559615188037,2.24399475256414,2.69279370307697,
3.14159265358979),.UNSPECIFIED.);
#34=FACE_OUTER_BOUND('',#48,.T.);
#35=FACE_OUTER_BOUND('',#49,.T.);
#36=FACE_OUTER_BOUND('',#50,.T.);
#37=FACE_OUTER_BOUND('',#51,.T.);
#38=FACE_OUTER_BOUND('',#52,.T.);
#39=FACE_OUTER_BOUND('',#53,.T.);
#40=FACE_OUTER_BOUND('',#54,.T.);
#41=FACE_OUTER_BOUND('',#55,.T.);
#42=FACE_OUTER_BOUND('',#56,.T.);
#43=FACE_OUTER_BOUND('',#57,.T.);
#44=FACE_OUTER_BOUND('',#58,.T.);
#45=FACE_OUTER_BOUND('',#59,.T.);
#46=FACE_OUTER_BOUND('',#65,.T.);
#47=FACE_OUTER_BOUND('',#66,.T.);
#48=EDGE_LOOP('',(#164,#165,#166,#167,#168));
#49=EDGE_LOOP('',(#169,#170,#171,#172,#173));
#50=EDGE_LOOP('',(#174,#175,#176,#177));
#51=EDGE_LOOP('',(#178,#179,#180,#181));
#52=EDGE_LOOP('',(#182,#183,#184,#185));
#53=EDGE_LOOP('',(#186,#187,#188,#189));
#54=EDGE_LOOP('',(#190,#191,#192,#193));
#55=EDGE_LOOP('',(#194,#195,#196,#197));
#56=EDGE_LOOP('',(#198,#199,#200,#201));
#57=EDGE_LOOP('',(#202,#203,#204,#205));
#58=EDGE_LOOP('',(#206,#207,#208,#209));
#59=EDGE_LOOP('',(#210));
#60=EDGE_LOOP('',(#211));
#61=EDGE_LOOP('',(#212));
#62=EDGE_LOOP('',(#213));
#63=EDGE_LOOP('',(#214));
#64=EDGE_LOOP('',(#215));
#65=EDGE_LOOP('',(#216,#217,#218,#219));
#66=EDGE_LOOP('',(#220));
#67=EDGE_LOOP('',(#221));
#68=EDGE_LOOP('',(#222));
#69=EDGE_LOOP('',(#223));
#70=EDGE_LOOP('',(#224));
#71=EDGE_LOOP('',(#225));
#72=CIRCLE('',#260,20.2870988842807);
#73=CIRCLE('',#262,21.175);
#74=CIRCLE('',#264,2.2);
#75=CIRCLE('',#265,1.3);
#76=CIRCLE('',#267,1.3);
#77=CIRCLE('',#269,2.2);
#78=CIRCLE('',#270,1.3);
#79=CIRCLE('',#272,1.3);
#80=CIRCLE('',#274,2.2);
#81=CIRCLE('',#275,1.3);
#82=CIRCLE('',#277,1.3);
#83=CIRCLE('',#279,2.2);
#84=CIRCLE('',#280,1.3);
#85=CIRCLE('',#282,1.3);
#86=CIRCLE('',#284,26.25);
#87=CIRCLE('',#286,26.25);
#88=LINE('',#536,#99);
#89=LINE('',#842,#100);
#90=LINE('',#847,#101);
#91=LINE('',#851,#102);
#92=LINE('',#857,#103);
#93=LINE('',#861,#104);
#94=LINE('',#867,#105);
#95=LINE('',#871,#106);
#96=LINE('',#877,#107);
#97=LINE('',#881,#108);
#98=LINE('',#888,#109);
#99=VECTOR('',#292,17.456);
#100=VECTOR('',#299,21.075);
#101=VECTOR('',#304,1.65);
#102=VECTOR('',#309,1.3);
#103=VECTOR('',#316,1.65);
#104=VECTOR('',#321,1.3);
#105=VECTOR('',#328,1.65);
#106=VECTOR('',#333,1.3);
#107=VECTOR('',#340,1.65);
#108=VECTOR('',#345,1.3);
#109=VECTOR('',#354,26.25);
#110=B_SPLINE_CURVE_WITH_KNOTS('',3,(#363,#364,#365,#366,#367,#368,#369,
#370,#371,#372,#373,#374,#375,#376,#377,#378,#379,#380,#381,#382,#383,#384,
#385,#386,#387,#388,#389,#390,#391,#392,#393,#394,#395,#396,#397,#398,#399,
#400,#401,#402,#403,#404,#405,#406,#407,#408,#409,#410,#411,#412,#413,#414,
#415,#416,#417,#418,#419,#420,#421,#422,#423,#424,#425,#426,#427,#428,#429,
#430,#431,#432,#433,#434,#435,#436,#437,#438,#439,#440,#441,#442,#443,#444,
#445,#446,#447,#448,#449,#450,#451,#452,#453,#454,#455,#456,#457,#458,#459,
#460,#461,#462,#463,#464,#465,#466,#467,#468,#469,#470,#471,#472,#473,#474,
#475,#476,#477,#478,#479,#480,#481,#482,#483,#484,#485,#486,#487,#488,#489,
#490,#491,#492,#493,#494,#495,#496,#497,#498,#499,#500,#501,#502,#503,#504,
#505,#506,#507,#508,#509,#510,#511,#512,#513,#514,#515,#516,#517,#518,#519,
#520,#521,#522,#523,#524,#525,#526,#527,#528,#529,#530,#531,#532,#533,#534),
 .UNSPECIFIED.,.F.,.F.,(4,3,3,3,3,3,3,3,3,3,3,3,3,3,3,3,3,3,3,3,3,3,3,3,
3,3,3,3,3,3,3,3,3,3,3,3,3,3,3,3,3,3,3,3,3,3,3,3,3,3,3,3,3,3,3,3,3,4),(1.09230523648776,
1.21879924201649,1.34385190974196,1.39326886386119,1.51887444576526,1.54871655674225,
1.67368910506845,1.79948368879375,1.92545704072648,1.99408165098711,2.12073111432277,
2.24748053065711,2.32214031665682,2.44744719945805,2.57379208769084,2.70408270054583,
2.83028389285213,2.95553908110384,3.07892730774126,3.09495453911078,3.19267358933743,
3.31682327423411,3.44246339478832,3.56823294741837,3.69308939079564,3.79011685489862,
3.86730960165368,3.99150745016518,4.11677582148704,4.24744577633124,4.3727757976091,
4.49724503917064,4.61993607219472,4.63945564086384,4.68179436528521,4.80506346943621,
4.92957212911462,5.05486127788321,5.17990059397928,5.30353629776159,5.41169403037397,
5.53640637575274,5.56930910066839,5.69298368302326,5.81783037298971,5.94269422817117,
6.06656750895765,6.1843125624405,6.30861102264996,6.43318003971807,6.45352164000858,
6.57952239128678,6.70419098200059,6.83085781356099,6.95752464512138,7.08166978135071,
7.20877557351381,7.3358813656769),.UNSPECIFIED.);
#111=B_SPLINE_CURVE_WITH_KNOTS('',3,(#538,#539,#540,#541,#542,#543,#544,
#545,#546,#547,#548,#549,#550,#551,#552,#553,#554,#555,#556,#557,#558,#559,
#560,#561,#562,#563,#564,#565,#566,#567,#568,#569,#570,#571,#572,#573,#574,
#575,#576,#577,#578,#579,#580,#581,#582,#583,#584,#585,#586,#587,#588,#589,
#590,#591,#592,#593,#594,#595,#596,#597,#598,#599,#600,#601,#602,#603,#604,
#605,#606,#607,#608,#609,#610,#611,#612,#613,#614,#615,#616,#617,#618,#619,
#620,#621,#622,#623,#624,#625,#626,#627,#628,#629,#630,#631,#632,#633,#634,
#635,#636,#637,#638,#639,#640,#641,#642,#643,#644,#645,#646,#647,#648,#649,
#650,#651,#652,#653,#654,#655,#656,#657,#658,#659,#660,#661,#662,#663,#664,
#665,#666,#667,#668,#669,#670,#671,#672,#673,#674,#675,#676,#677,#678,#679,
#680,#681,#682,#683,#684,#685,#686,#687,#688,#689,#690,#691,#692,#693,#694,
#695,#696,#697,#698,#699,#700,#701,#702,#703,#704,#705,#706,#707,#708,#709,
#710,#711,#712),.UNSPECIFIED.,.F.,.F.,(4,3,3,3,3,3,3,3,3,3,3,3,3,3,3,3,
3,3,3,3,3,3,3,3,3,3,3,3,3,3,3,3,3,3,3,3,3,3,3,3,3,3,3,3,3,3,3,3,3,3,3,3,
3,3,3,3,3,3,4),(-5.14931782189676,-5.02489829904526,-4.90033666705329,-4.7763102406452,
-4.75377125660822,-4.62966579163977,-4.50506655534998,-4.38060994559236,
-4.26694691046402,-4.14237054630358,-4.01819422754196,-3.97920534178344,
-3.85563304040351,-3.73082599248703,-3.60601410229059,-3.4822205664058,
-3.38269765800872,-3.25768941216836,-3.20411132855844,-3.08114293808554,
-2.95675873501376,-2.83144842742133,-2.70588129279399,-2.58079055382787,
-2.45707123867308,-2.42868802023932,-2.30281608187943,-2.19865113096054,
-2.07415689492336,-1.94894877662501,-1.82407054018121,-1.7005824088048,
-1.65315418738826,-1.60341523608609,-1.48005209742808,-1.35516135732921,
-1.22885197830544,-1.10236999021342,-0.976604044433888,-0.877716900798498,
-0.751340759481185,-0.625205565319833,-0.500267364750899,-0.439234525492896,
-0.40844699509657,-0.283352852214411,-0.15774457340367,-0.0323963350033269,
0.,0.125645108712352,0.19059269677637,0.31566380791754,0.44231122818501,
0.569247836313597,0.695668588425343,0.774648998550427,0.900824671032406,
1.02779799271747,1.09230523648776),.UNSPECIFIED.);
#112=B_SPLINE_CURVE_WITH_KNOTS('',3,(#816,#817,#818,#819,#820,#821),
 .UNSPECIFIED.,.F.,.F.,(4,1,1,4),(0.,0.287017505261807,0.478362508769678,
0.669707512277549),.UNSPECIFIED.);
#113=B_SPLINE_CURVE_WITH_KNOTS('',3,(#822,#823,#824,#825,#826,#827,#828,
#829,#830,#831,#832,#833,#834,#835,#836,#837,#838),.UNSPECIFIED.,.T.,.F.,
(4,1,1,1,1,1,1,1,1,1,1,1,1,1,4),(-3.14159265358979,-2.69279370307697,-2.24399475256414,
-1.64559615188037,-1.34639685153848,-0.747998250854713,-0.448798950512828,
0.149599650170943,0.448798950512828,1.0471975511966,1.34639685153848,1.79519580205131,
2.24399475256414,2.69279370307697,3.14159265358979),.UNSPECIFIED.);
#114=VERTEX_POINT('',#361);
#115=VERTEX_POINT('',#362);
#116=VERTEX_POINT('',#535);
#117=VERTEX_POINT('',#815);
#118=VERTEX_POINT('',#840);
#119=VERTEX_POINT('',#844);
#120=VERTEX_POINT('',#846);
#121=VERTEX_POINT('',#850);
#122=VERTEX_POINT('',#854);
#123=VERTEX_POINT('',#856);
#124=VERTEX_POINT('',#860);
#125=VERTEX_POINT('',#864);
#126=VERTEX_POINT('',#866);
#127=VERTEX_POINT('',#870);
#128=VERTEX_POINT('',#874);
#129=VERTEX_POINT('',#876);
#130=VERTEX_POINT('',#880);
#131=VERTEX_POINT('',#884);
#132=VERTEX_POINT('',#887);
#133=EDGE_CURVE('',#114,#115,#110,.F.);
#134=EDGE_CURVE('',#115,#116,#88,.T.);
#135=EDGE_CURVE('',#116,#116,#72,.F.);
#136=EDGE_CURVE('',#115,#114,#111,.F.);
#137=EDGE_CURVE('',#117,#114,#112,.T.);
#138=EDGE_CURVE('',#117,#117,#113,.T.);
#139=EDGE_CURVE('',#118,#118,#73,.T.);
#140=EDGE_CURVE('',#118,#117,#89,.T.);
#141=EDGE_CURVE('',#119,#119,#74,.T.);
#142=EDGE_CURVE('',#119,#120,#90,.T.);
#143=EDGE_CURVE('',#120,#120,#75,.T.);
#144=EDGE_CURVE('',#120,#121,#91,.T.);
#145=EDGE_CURVE('',#121,#121,#76,.T.);
#146=EDGE_CURVE('',#122,#122,#77,.T.);
#147=EDGE_CURVE('',#122,#123,#92,.T.);
#148=EDGE_CURVE('',#123,#123,#78,.T.);
#149=EDGE_CURVE('',#123,#124,#93,.T.);
#150=EDGE_CURVE('',#124,#124,#79,.T.);
#151=EDGE_CURVE('',#125,#125,#80,.T.);
#152=EDGE_CURVE('',#125,#126,#94,.T.);
#153=EDGE_CURVE('',#126,#126,#81,.T.);
#154=EDGE_CURVE('',#126,#127,#95,.T.);
#155=EDGE_CURVE('',#127,#127,#82,.T.);
#156=EDGE_CURVE('',#128,#128,#83,.T.);
#157=EDGE_CURVE('',#128,#129,#96,.T.);
#158=EDGE_CURVE('',#129,#129,#84,.T.);
#159=EDGE_CURVE('',#129,#130,#97,.T.);
#160=EDGE_CURVE('',#130,#130,#85,.T.);
#161=EDGE_CURVE('',#131,#131,#86,.T.);
#162=EDGE_CURVE('',#131,#132,#98,.T.);
#163=EDGE_CURVE('',#132,#132,#87,.T.);
#164=ORIENTED_EDGE('',*,*,#133,.T.);
#165=ORIENTED_EDGE('',*,*,#134,.T.);
#166=ORIENTED_EDGE('',*,*,#135,.F.);
#167=ORIENTED_EDGE('',*,*,#134,.F.);
#168=ORIENTED_EDGE('',*,*,#136,.T.);
#169=ORIENTED_EDGE('',*,*,#133,.F.);
#170=ORIENTED_EDGE('',*,*,#137,.F.);
#171=ORIENTED_EDGE('',*,*,#138,.F.);
#172=ORIENTED_EDGE('',*,*,#137,.T.);
#173=ORIENTED_EDGE('',*,*,#136,.F.);
#174=ORIENTED_EDGE('',*,*,#139,.F.);
#175=ORIENTED_EDGE('',*,*,#140,.T.);
#176=ORIENTED_EDGE('',*,*,#138,.T.);
#177=ORIENTED_EDGE('',*,*,#140,.F.);
#178=ORIENTED_EDGE('',*,*,#141,.F.);
#179=ORIENTED_EDGE('',*,*,#142,.T.);
#180=ORIENTED_EDGE('',*,*,#143,.T.);
#181=ORIENTED_EDGE('',*,*,#142,.F.);
#182=ORIENTED_EDGE('',*,*,#143,.F.);
#183=ORIENTED_EDGE('',*,*,#144,.T.);
#184=ORIENTED_EDGE('',*,*,#145,.F.);
#185=ORIENTED_EDGE('',*,*,#144,.F.);
#186=ORIENTED_EDGE('',*,*,#146,.F.);
#187=ORIENTED_EDGE('',*,*,#147,.T.);
#188=ORIENTED_EDGE('',*,*,#148,.T.);
#189=ORIENTED_EDGE('',*,*,#147,.F.);
#190=ORIENTED_EDGE('',*,*,#148,.F.);
#191=ORIENTED_EDGE('',*,*,#149,.T.);
#192=ORIENTED_EDGE('',*,*,#150,.F.);
#193=ORIENTED_EDGE('',*,*,#149,.F.);
#194=ORIENTED_EDGE('',*,*,#151,.F.);
#195=ORIENTED_EDGE('',*,*,#152,.T.);
#196=ORIENTED_EDGE('',*,*,#153,.T.);
#197=ORIENTED_EDGE('',*,*,#152,.F.);
#198=ORIENTED_EDGE('',*,*,#153,.F.);
#199=ORIENTED_EDGE('',*,*,#154,.T.);
#200=ORIENTED_EDGE('',*,*,#155,.F.);
#201=ORIENTED_EDGE('',*,*,#154,.F.);
#202=ORIENTED_EDGE('',*,*,#156,.F.);
#203=ORIENTED_EDGE('',*,*,#157,.T.);
#204=ORIENTED_EDGE('',*,*,#158,.T.);
#205=ORIENTED_EDGE('',*,*,#157,.F.);
#206=ORIENTED_EDGE('',*,*,#158,.F.);
#207=ORIENTED_EDGE('',*,*,#159,.T.);
#208=ORIENTED_EDGE('',*,*,#160,.F.);
#209=ORIENTED_EDGE('',*,*,#159,.F.);
#210=ORIENTED_EDGE('',*,*,#161,.T.);
#211=ORIENTED_EDGE('',*,*,#139,.T.);
#212=ORIENTED_EDGE('',*,*,#160,.T.);
#213=ORIENTED_EDGE('',*,*,#155,.T.);
#214=ORIENTED_EDGE('',*,*,#150,.T.);
#215=ORIENTED_EDGE('',*,*,#145,.T.);
#216=ORIENTED_EDGE('',*,*,#161,.F.);
#217=ORIENTED_EDGE('',*,*,#162,.T.);
#218=ORIENTED_EDGE('',*,*,#163,.F.);
#219=ORIENTED_EDGE('',*,*,#162,.F.);
#220=ORIENTED_EDGE('',*,*,#163,.T.);
#221=ORIENTED_EDGE('',*,*,#135,.T.);
#222=ORIENTED_EDGE('',*,*,#156,.T.);
#223=ORIENTED_EDGE('',*,*,#151,.T.);
#224=ORIENTED_EDGE('',*,*,#146,.T.);
#225=ORIENTED_EDGE('',*,*,#141,.T.);
#226=CONICAL_SURFACE('',#259,20.2414300726558,0.380506377112365);
#227=CONICAL_SURFACE('',#263,1.65,0.785398163397448);
#228=CONICAL_SURFACE('',#268,1.65,0.785398163397448);
#229=CONICAL_SURFACE('',#273,1.65,0.785398163397448);
#230=CONICAL_SURFACE('',#278,1.65,0.785398163397448);
#231=ADVANCED_FACE('',(#34),#226,.F.);
#232=ADVANCED_FACE('',(#35),#33,.F.);
#233=ADVANCED_FACE('',(#36),#27,.F.);
#234=ADVANCED_FACE('',(#37),#227,.F.);
#235=ADVANCED_FACE('',(#38),#28,.F.);
#236=ADVANCED_FACE('',(#39),#228,.F.);
#237=ADVANCED_FACE('',(#40),#29,.F.);
#238=ADVANCED_FACE('',(#41),#229,.F.);
#239=ADVANCED_FACE('',(#42),#30,.F.);
#240=ADVANCED_FACE('',(#43),#230,.F.);
#241=ADVANCED_FACE('',(#44),#31,.F.);
#242=ADVANCED_FACE('',(#45,#15,#16,#17,#18,#19),#25,.F.);
#243=ADVANCED_FACE('',(#46),#32,.T.);
#244=ADVANCED_FACE('',(#47,#20,#21,#22,#23,#24),#26,.T.);
#245=CLOSED_SHELL('',(#231,#232,#233,#234,#235,#236,#237,#238,#239,#240,
#241,#242,#243,#244));
#246=DERIVED_UNIT_ELEMENT(#248,1.);
#247=DERIVED_UNIT_ELEMENT(#896,-3.);
#248=(
MASS_UNIT()
NAMED_UNIT(*)
SI_UNIT(.KILO.,.GRAM.)
);
#249=DERIVED_UNIT((#246,#247));
#250=MEASURE_REPRESENTATION_ITEM('density measure',
POSITIVE_RATIO_MEASURE(7850.),#249);
#251=PROPERTY_DEFINITION_REPRESENTATION(#256,#253);
#252=PROPERTY_DEFINITION_REPRESENTATION(#257,#254);
#253=REPRESENTATION('material name',(#255),#893);
#254=REPRESENTATION('density',(#250),#893);
#255=DESCRIPTIVE_REPRESENTATION_ITEM('Steel','Steel');
#256=PROPERTY_DEFINITION('material property','material name',#903);
#257=PROPERTY_DEFINITION('material property','density of part',#903);
#258=AXIS2_PLACEMENT_3D('',#359,#288,#289);
#259=AXIS2_PLACEMENT_3D('',#360,#290,#291);
#260=AXIS2_PLACEMENT_3D('',#537,#293,#294);
#261=AXIS2_PLACEMENT_3D('',#839,#295,#296);
#262=AXIS2_PLACEMENT_3D('',#841,#297,#298);
#263=AXIS2_PLACEMENT_3D('',#843,#300,#301);
#264=AXIS2_PLACEMENT_3D('',#845,#302,#303);
#265=AXIS2_PLACEMENT_3D('',#848,#305,#306);
#266=AXIS2_PLACEMENT_3D('',#849,#307,#308);
#267=AXIS2_PLACEMENT_3D('',#852,#310,#311);
#268=AXIS2_PLACEMENT_3D('',#853,#312,#313);
#269=AXIS2_PLACEMENT_3D('',#855,#314,#315);
#270=AXIS2_PLACEMENT_3D('',#858,#317,#318);
#271=AXIS2_PLACEMENT_3D('',#859,#319,#320);
#272=AXIS2_PLACEMENT_3D('',#862,#322,#323);
#273=AXIS2_PLACEMENT_3D('',#863,#324,#325);
#274=AXIS2_PLACEMENT_3D('',#865,#326,#327);
#275=AXIS2_PLACEMENT_3D('',#868,#329,#330);
#276=AXIS2_PLACEMENT_3D('',#869,#331,#332);
#277=AXIS2_PLACEMENT_3D('',#872,#334,#335);
#278=AXIS2_PLACEMENT_3D('',#873,#336,#337);
#279=AXIS2_PLACEMENT_3D('',#875,#338,#339);
#280=AXIS2_PLACEMENT_3D('',#878,#341,#342);
#281=AXIS2_PLACEMENT_3D('',#879,#343,#344);
#282=AXIS2_PLACEMENT_3D('',#882,#346,#347);
#283=AXIS2_PLACEMENT_3D('',#883,#348,#349);
#284=AXIS2_PLACEMENT_3D('',#885,#350,#351);
#285=AXIS2_PLACEMENT_3D('',#886,#352,#353);
#286=AXIS2_PLACEMENT_3D('',#889,#355,#356);
#287=AXIS2_PLACEMENT_3D('',#890,#357,#358);
#288=DIRECTION('axis',(0.,0.,1.));
#289=DIRECTION('refdir',(1.,0.,0.));
#290=DIRECTION('center_axis',(1.08673789965299E-16,-0.939692620785909,0.342020143325668));
#291=DIRECTION('ref_axis',(1.,7.60942069395211E-17,-1.08673789965299E-16));
#292=DIRECTION('',(-0.371390676354104,-0.872482694996597,0.317557730891118));
#293=DIRECTION('center_axis',(1.08673789965299E-16,-0.939692620785909,0.342020143325668));
#294=DIRECTION('ref_axis',(1.,7.60942069395211E-17,-1.08673789965299E-16));
#295=DIRECTION('center_axis',(1.48147992185499E-17,-0.939692620785909,0.342020143325668));
#296=DIRECTION('ref_axis',(-1.,2.7964029872165E-17,1.20146115773457E-16));
#297=DIRECTION('center_axis',(1.08673789965299E-16,-0.939692620785909,0.342020143325668));
#298=DIRECTION('ref_axis',(-1.,2.7964029872165E-17,1.20146115773457E-16));
#299=DIRECTION('',(1.48147992185499E-17,-0.939692620785909,0.342020143325668));
#300=DIRECTION('center_axis',(-3.84392343174321E-32,-0.939692620785909,
0.342020143325668));
#301=DIRECTION('ref_axis',(2.82114023401179E-33,-0.342020143325668,-0.939692620785909));
#302=DIRECTION('center_axis',(-1.08673789965299E-16,0.939692620785909,-0.342020143325668));
#303=DIRECTION('ref_axis',(2.82114023401179E-33,-0.342020143325668,-0.939692620785909));
#304=DIRECTION('',(-8.65956056235493E-17,0.4226182617407,-0.90630778703665));
#305=DIRECTION('center_axis',(3.84392343174321E-32,0.939692620785909,-0.342020143325668));
#306=DIRECTION('ref_axis',(2.82114023401179E-33,-0.342020143325668,-0.939692620785909));
#307=DIRECTION('center_axis',(3.84392343174321E-32,0.939692620785909,-0.342020143325668));
#308=DIRECTION('ref_axis',(2.82114023401179E-33,-0.342020143325668,-0.939692620785909));
#309=DIRECTION('',(3.84392343174321E-32,0.939692620785909,-0.342020143325668));
#310=DIRECTION('center_axis',(1.08673789965299E-16,-0.939692620785909,0.342020143325668));
#311=DIRECTION('ref_axis',(2.82114023401179E-33,-0.342020143325668,-0.939692620785909));
#312=DIRECTION('center_axis',(-3.84392343174321E-32,-0.939692620785909,
0.342020143325668));
#313=DIRECTION('ref_axis',(2.82114023401179E-33,-0.342020143325668,-0.939692620785909));
#314=DIRECTION('center_axis',(-1.08673789965299E-16,0.939692620785909,-0.342020143325668));
#315=DIRECTION('ref_axis',(2.82114023401179E-33,-0.342020143325668,-0.939692620785909));
#316=DIRECTION('',(-8.65956056235493E-17,0.4226182617407,-0.90630778703665));
#317=DIRECTION('center_axis',(3.84392343174321E-32,0.939692620785909,-0.342020143325668));
#318=DIRECTION('ref_axis',(2.82114023401179E-33,-0.342020143325668,-0.939692620785909));
#319=DIRECTION('center_axis',(3.84392343174321E-32,0.939692620785909,-0.342020143325668));
#320=DIRECTION('ref_axis',(2.82114023401179E-33,-0.342020143325668,-0.939692620785909));
#321=DIRECTION('',(3.84392343174321E-32,0.939692620785909,-0.342020143325668));
#322=DIRECTION('center_axis',(1.08673789965299E-16,-0.939692620785909,0.342020143325668));
#323=DIRECTION('ref_axis',(2.82114023401179E-33,-0.342020143325668,-0.939692620785909));
#324=DIRECTION('center_axis',(-3.84392343174321E-32,-0.939692620785909,
0.342020143325668));
#325=DIRECTION('ref_axis',(2.82114023401179E-33,-0.342020143325668,-0.939692620785909));
#326=DIRECTION('center_axis',(-1.08673789965299E-16,0.939692620785909,-0.342020143325668));
#327=DIRECTION('ref_axis',(2.82114023401179E-33,-0.342020143325668,-0.939692620785909));
#328=DIRECTION('',(-8.65956056235493E-17,0.4226182617407,-0.906307787036649));
#329=DIRECTION('center_axis',(3.84392343174321E-32,0.939692620785909,-0.342020143325668));
#330=DIRECTION('ref_axis',(2.82114023401179E-33,-0.342020143325668,-0.939692620785909));
#331=DIRECTION('center_axis',(3.84392343174321E-32,0.939692620785909,-0.342020143325668));
#332=DIRECTION('ref_axis',(2.82114023401179E-33,-0.342020143325668,-0.939692620785909));
#333=DIRECTION('',(3.84392343174321E-32,0.939692620785909,-0.342020143325668));
#334=DIRECTION('center_axis',(1.08673789965299E-16,-0.939692620785909,0.342020143325668));
#335=DIRECTION('ref_axis',(2.82114023401179E-33,-0.342020143325668,-0.939692620785909));
#336=DIRECTION('center_axis',(-3.84392343174321E-32,-0.939692620785909,
0.342020143325668));
#337=DIRECTION('ref_axis',(2.82114023401179E-33,-0.342020143325668,-0.939692620785909));
#338=DIRECTION('center_axis',(-1.08673789965299E-16,0.939692620785909,-0.342020143325668));
#339=DIRECTION('ref_axis',(2.82114023401179E-33,-0.342020143325668,-0.939692620785909));
#340=DIRECTION('',(-8.65956056235493E-17,0.4226182617407,-0.90630778703665));
#341=DIRECTION('center_axis',(3.84392343174321E-32,0.939692620785909,-0.342020143325668));
#342=DIRECTION('ref_axis',(2.82114023401179E-33,-0.342020143325668,-0.939692620785909));
#343=DIRECTION('center_axis',(3.84392343174321E-32,0.939692620785909,-0.342020143325668));
#344=DIRECTION('ref_axis',(2.82114023401179E-33,-0.342020143325668,-0.939692620785909));
#345=DIRECTION('',(3.84392343174321E-32,0.939692620785909,-0.342020143325668));
#346=DIRECTION('center_axis',(1.08673789965299E-16,-0.939692620785909,0.342020143325668));
#347=DIRECTION('ref_axis',(2.82114023401179E-33,-0.342020143325668,-0.939692620785909));
#348=DIRECTION('center_axis',(1.08673789965299E-16,-0.939692620785909,0.342020143325668));
#349=DIRECTION('ref_axis',(1.,7.60942069395211E-17,-1.08673789965299E-16));
#350=DIRECTION('center_axis',(4.13348857684582E-32,0.939692620785909,-0.342020143325668));
#351=DIRECTION('ref_axis',(1.,-4.11837419704684E-32,7.70371977754895E-33));
#352=DIRECTION('center_axis',(3.15913418527189E-32,0.939692620785909,-0.342020143325668));
#353=DIRECTION('ref_axis',(1.,-3.20278056525448E-32,4.37123149098787E-33));
#354=DIRECTION('',(-3.15913418527189E-32,-0.939692620785909,0.342020143325668));
#355=DIRECTION('center_axis',(-4.13348857684582E-32,-0.939692620785909,
0.342020143325668));
#356=DIRECTION('ref_axis',(1.,-4.11837419704684E-32,7.70371977754895E-33));
#357=DIRECTION('center_axis',(1.08673789965299E-16,-0.939692620785909,0.342020143325668));
#358=DIRECTION('ref_axis',(1.,7.60942069395211E-17,-1.08673789965299E-16));
#359=CARTESIAN_POINT('',(0.,0.,0.));
#360=CARTESIAN_POINT('Origin',(2.16163214129504E-15,-18.691441355613,24.3083167442183));
#361=CARTESIAN_POINT('',(19.8319522509103,-17.7294831369388,23.9581925860131));
#362=CARTESIAN_POINT('',(-19.7858722678624,-17.6284219571941,23.9222348276161));
#363=CARTESIAN_POINT('Ctrl Pts',(-19.7858722678624,-17.6284219571941,23.9222348276161));
#364=CARTESIAN_POINT('Ctrl Pts',(-19.7869050059381,-17.7718944972868,23.5280474876306));
#365=CARTESIAN_POINT('Ctrl Pts',(-19.7747258852916,-17.9153834196048,23.1339382785438));
#366=CARTESIAN_POINT('Ctrl Pts',(-19.7492113603822,-18.0586844532976,22.7404680795791));
#367=CARTESIAN_POINT('Ctrl Pts',(-19.7239875611015,-18.200352641258,22.3514812825736));
#368=CARTESIAN_POINT('Ctrl Pts',(-19.6857305108107,-18.3418373725947,21.9631185361615));
#369=CARTESIAN_POINT('Ctrl Pts',(-19.6342703109619,-18.4829395307082,21.5759264065764));
#370=CARTESIAN_POINT('Ctrl Pts',(-19.6139348284716,-18.5386987480079,21.4229200289353));
#371=CARTESIAN_POINT('Ctrl Pts',(-19.5915370017986,-18.5943981896819,21.2700965435164));
#372=CARTESIAN_POINT('Ctrl Pts',(-19.5670641405399,-18.6500254005492,21.1174901326858));
#373=CARTESIAN_POINT('Ctrl Pts',(-19.5048602262348,-18.791415907415,20.7296026682253));
#374=CARTESIAN_POINT('Ctrl Pts',(-19.4292538463422,-18.9323402879562,20.3431161947735));
#375=CARTESIAN_POINT('Ctrl Pts',(-19.3403870028775,-19.0725614357834,19.9586814187724));
#376=CARTESIAN_POINT('Ctrl Pts',(-19.3192734968959,-19.1058759986503,19.8673451495164));
#377=CARTESIAN_POINT('Ctrl Pts',(-19.297411267398,-19.139150832607,19.776124783834));
#378=CARTESIAN_POINT('Ctrl Pts',(-19.2748018310269,-19.1723826901324,19.6850292329548));
#379=CARTESIAN_POINT('Ctrl Pts',(-19.180118465239,-19.3115504283391,19.3035410249343));
#380=CARTESIAN_POINT('Ctrl Pts',(-19.0726229356034,-19.4495415373324,18.9254010521382));
#381=CARTESIAN_POINT('Ctrl Pts',(-18.9526308993815,-19.586134408525,18.5512148959354));
#382=CARTESIAN_POINT('Ctrl Pts',(-18.8318495882132,-19.7236257504368,18.1745674450693));
#383=CARTESIAN_POINT('Ctrl Pts',(-18.6984066987329,-19.8597005982306,17.8019254498148));
#384=CARTESIAN_POINT('Ctrl Pts',(-18.5525712107643,-19.9941316364349,17.4339099755994));
#385=CARTESIAN_POINT('Ctrl Pts',(-18.4065284742163,-20.1287537162167,17.0653715101335));
#386=CARTESIAN_POINT('Ctrl Pts',(-18.2480577173199,-20.2617275112523,16.7014721738491));
#387=CARTESIAN_POINT('Ctrl Pts',(-18.0773785314472,-20.3928204303341,16.3428473914614));
#388=CARTESIAN_POINT('Ctrl Pts',(-17.9844001957086,-20.4642339502721,16.1474847568758));
#389=CARTESIAN_POINT('Ctrl Pts',(-17.8877980483621,-20.5350892127031,15.9536876405112));
#390=CARTESIAN_POINT('Ctrl Pts',(-17.7876015709113,-20.6053477561282,15.761561116169));
#391=CARTESIAN_POINT('Ctrl Pts',(-17.6026849637483,-20.7350127084789,15.4069839301117));
#392=CARTESIAN_POINT('Ctrl Pts',(-17.4055285161039,-20.8626458222474,15.0580951759975));
#393=CARTESIAN_POINT('Ctrl Pts',(-17.1965594752988,-20.9880956130373,14.7153072110179));
#394=CARTESIAN_POINT('Ctrl Pts',(-16.987425514077,-21.1136444100324,14.3722487144142));
#395=CARTESIAN_POINT('Ctrl Pts',(-16.7664599473856,-21.2370065808957,14.0353002429571));
#396=CARTESIAN_POINT('Ctrl Pts',(-16.534049978434,-21.3580193240683,13.7049051404065));
#397=CARTESIAN_POINT('Ctrl Pts',(-16.3971524758818,-21.4293000113471,13.5102910083246));
#398=CARTESIAN_POINT('Ctrl Pts',(-16.2562834556713,-21.4997653197231,13.3179512399725));
#399=CARTESIAN_POINT('Ctrl Pts',(-16.1115161605804,-21.5693798889325,13.1279821650982));
#400=CARTESIAN_POINT('Ctrl Pts',(-15.8685428083735,-21.6862190219193,12.8091434183434));
#401=CARTESIAN_POINT('Ctrl Pts',(-15.6153315854466,-21.8003060372344,12.4979530235041));
#402=CARTESIAN_POINT('Ctrl Pts',(-15.3523881413127,-21.9115135279695,12.1947554432781));
#403=CARTESIAN_POINT('Ctrl Pts',(-15.0872665508783,-22.0236422289114,11.8890462633054));
#404=CARTESIAN_POINT('Ctrl Pts',(-14.8122505205085,-22.1328436476761,11.5914624638386));
#405=CARTESIAN_POINT('Ctrl Pts',(-14.5278113589513,-22.2389787356007,11.3023803348211));
#406=CARTESIAN_POINT('Ctrl Pts',(-14.2344892214465,-22.3484284002807,11.0042702309464));
#407=CARTESIAN_POINT('Ctrl Pts',(-13.9311460147259,-22.4546174336929,10.7152005167199));
#408=CARTESIAN_POINT('Ctrl Pts',(-13.6182523755789,-22.5573816011325,10.4356161212126));
#409=CARTESIAN_POINT('Ctrl Pts',(-13.3151795028665,-22.6569203182592,10.1648070177009));
#410=CARTESIAN_POINT('Ctrl Pts',(-13.003145727351,-22.7532458630117,9.90289693882996));
#411=CARTESIAN_POINT('Ctrl Pts',(-12.6825424504554,-22.8461961994625,9.65032535850062));
#412=CARTESIAN_POINT('Ctrl Pts',(-12.3643424155128,-22.9384497802523,9.39964705457145));
#413=CARTESIAN_POINT('Ctrl Pts',(-12.0377004827335,-23.0273786830167,9.1581674438972));
#414=CARTESIAN_POINT('Ctrl Pts',(-11.7029698709981,-23.1128101866162,8.92635550908446));
#415=CARTESIAN_POINT('Ctrl Pts',(-11.3732285073087,-23.1969683111237,8.69799879229559));
#416=CARTESIAN_POINT('Ctrl Pts',(-11.0356374088295,-23.2777326113861,8.4790234455528));
#417=CARTESIAN_POINT('Ctrl Pts',(-10.6905113282964,-23.3549225118002,8.26992031082805));
#418=CARTESIAN_POINT('Ctrl Pts',(-10.6456819657624,-23.3649489172932,8.24275933760025));
#419=CARTESIAN_POINT('Ctrl Pts',(-10.6007254446859,-23.3749149922791,8.2157649922278));
#420=CARTESIAN_POINT('Ctrl Pts',(-10.555642431161,-23.38482032022,8.18893840760777));
#421=CARTESIAN_POINT('Ctrl Pts',(-10.2807684269467,-23.4452137354181,8.02537501294183));
#422=CARTESIAN_POINT('Ctrl Pts',(-10.0018460602657,-23.503205882247,7.8684352602281));
#423=CARTESIAN_POINT('Ctrl Pts',(-9.71908092459724,-23.5587328509095,7.71829182872642));
#424=CARTESIAN_POINT('Ctrl Pts',(-9.35983467310811,-23.6292785187883,7.52753823802934));
#425=CARTESIAN_POINT('Ctrl Pts',(-8.99438676518238,-23.6958456745741,7.34775312444219));
#426=CARTESIAN_POINT('Ctrl Pts',(-8.62340904373546,-23.7583921589381,7.17904643406105));
#427=CARTESIAN_POINT('Ctrl Pts',(-8.24797767889302,-23.8216895232631,7.00831439446362));
#428=CARTESIAN_POINT('Ctrl Pts',(-7.86688244363465,-23.8808691922867,6.84892811420791));
#429=CARTESIAN_POINT('Ctrl Pts',(-7.48078976722725,-23.9358724055074,6.70104304575761));
#430=CARTESIAN_POINT('Ctrl Pts',(-7.09429934544717,-23.9909322819981,6.55300562890688));
#431=CARTESIAN_POINT('Ctrl Pts',(-6.70280063081721,-24.041807163233,6.41649293972759));
#432=CARTESIAN_POINT('Ctrl Pts',(-6.30694023464082,-24.0884219120651,6.29170552786562));
#433=CARTESIAN_POINT('Ctrl Pts',(-5.91395385513222,-24.1346982295552,6.1678240947403));
#434=CARTESIAN_POINT('Ctrl Pts',(-5.51666834163849,-24.1767760968217,6.05549816919053));
#435=CARTESIAN_POINT('Ctrl Pts',(-5.11570306054881,-24.2145652026424,5.95497024637459));
#436=CARTESIAN_POINT('Ctrl Pts',(-4.80410805299349,-24.2439315774111,5.87684877215561));
#437=CARTESIAN_POINT('Ctrl Pts',(-4.49029048043465,-24.270707631789,5.80585304117657));
#438=CARTESIAN_POINT('Ctrl Pts',(-4.17453862893745,-24.294843597481,5.7421172036109));
#439=CARTESIAN_POINT('Ctrl Pts',(-3.92333395265946,-24.3140455987347,5.69141048449882));
#440=CARTESIAN_POINT('Ctrl Pts',(-3.67090493090426,-24.3315764362372,5.64529924445134));
#441=CARTESIAN_POINT('Ctrl Pts',(-3.41739120849157,-24.3474295654121,5.60380018513145));
#442=CARTESIAN_POINT('Ctrl Pts',(-3.00950497286239,-24.3729361656884,5.53703103777702));
#443=CARTESIAN_POINT('Ctrl Pts',(-2.60004343667183,-24.3940236520874,5.48240021616846));
#444=CARTESIAN_POINT('Ctrl Pts',(-2.18961839626536,-24.4107304527551,5.439797106099));
#445=CARTESIAN_POINT('Ctrl Pts',(-1.77565569902375,-24.4275812576178,5.39682677870921));
#446=CARTESIAN_POINT('Ctrl Pts',(-1.36071230835297,-24.4399755591052,5.36609232902358));
#447=CARTESIAN_POINT('Ctrl Pts',(-0.945399847525838,-24.447935514249,5.34752787721443));
#448=CARTESIAN_POINT('Ctrl Pts',(-0.512179075755134,-24.4562387033798,5.32816292456107));
#449=CARTESIAN_POINT('Ctrl Pts',(-0.078556164613361,-24.4597170269534,5.32203974206412));
#450=CARTESIAN_POINT('Ctrl Pts',(0.354784057847132,-24.458375460657,5.32913917057687));
#451=CARTESIAN_POINT('Ctrl Pts',(0.770415481048284,-24.4570887185542,5.33594847519187));
#452=CARTESIAN_POINT('Ctrl Pts',(1.1857874171978,-24.4513678560251,5.35492209455372));
#453=CARTESIAN_POINT('Ctrl Pts',(1.60029556050373,-24.4411993601266,5.38609248254641));
#454=CARTESIAN_POINT('Ctrl Pts',(2.01195681845554,-24.4311007025231,5.4170487890488));
#455=CARTESIAN_POINT('Ctrl Pts',(2.42276662424831,-24.4166152863449,5.46003492716378));
#456=CARTESIAN_POINT('Ctrl Pts',(2.83212505411031,-24.397712622274,5.51513025158901));
#457=CARTESIAN_POINT('Ctrl Pts',(3.23563525475739,-24.3790800078813,5.56943846608221));
#458=CARTESIAN_POINT('Ctrl Pts',(3.63773571790835,-24.3561554298042,5.63551242068137));
#459=CARTESIAN_POINT('Ctrl Pts',(4.03783685282247,-24.3288931626416,5.71347367095416));
#460=CARTESIAN_POINT('Ctrl Pts',(4.1014910693129,-24.3245558636325,5.72587694070193));
#461=CARTESIAN_POINT('Ctrl Pts',(4.16509464053003,-24.3201087380146,5.73858118724412));
#462=CARTESIAN_POINT('Ctrl Pts',(4.22864514446701,-24.3155515630052,5.75158700661833));
#463=CARTESIAN_POINT('Ctrl Pts',(4.36648872690657,-24.3056668683106,5.77979714853761));
#464=CARTESIAN_POINT('Ctrl Pts',(4.50394085348711,-24.2952746044709,5.80939703843517));
#465=CARTESIAN_POINT('Ctrl Pts',(4.64097872732331,-24.2843754908049,5.84038456703358));
#466=CARTESIAN_POINT('Ctrl Pts',(5.03996419921489,-24.2526427450498,5.93060468921211));
#467=CARTESIAN_POINT('Ctrl Pts',(5.43543832378804,-24.2166148706287,6.03258386723662));
#468=CARTESIAN_POINT('Ctrl Pts',(5.82688751379065,-24.1764247593714,6.14595378841161));
#469=CARTESIAN_POINT('Ctrl Pts',(6.2222729943221,-24.1358305089349,6.2604637220285));
#470=CARTESIAN_POINT('Ctrl Pts',(6.61355267847628,-24.0909898416108,6.38659477409195));
#471=CARTESIAN_POINT('Ctrl Pts',(7.00019080623383,-24.0420216633546,6.52401708845171));
#472=CARTESIAN_POINT('Ctrl Pts',(7.3892525954567,-23.9927465254941,6.66230084182609));
#473=CARTESIAN_POINT('Ctrl Pts',(7.77361496910985,-23.9392919048928,6.81201803326406));
#474=CARTESIAN_POINT('Ctrl Pts',(8.15271784294876,-23.8817616621479,6.97288020773102));
#475=CARTESIAN_POINT('Ctrl Pts',(8.53106476716986,-23.8243461375125,7.13342161517746));
#476=CARTESIAN_POINT('Ctrl Pts',(8.90417364457131,-23.7628711452282,7.30506383214123));
#477=CARTESIAN_POINT('Ctrl Pts',(9.27146607285522,-23.6974238835746,7.48756431667841));
#478=CARTESIAN_POINT('Ctrl Pts',(9.63463550853814,-23.632711291505,7.66801616615132));
#479=CARTESIAN_POINT('Ctrl Pts',(9.99211878490486,-23.5641150102887,7.85908414985851));
#480=CARTESIAN_POINT('Ctrl Pts',(10.343328654039,-23.4917050296295,8.06057320617434));
#481=CARTESIAN_POINT('Ctrl Pts',(10.6505705101901,-23.4283600646476,8.23683781915136));
#482=CARTESIAN_POINT('Ctrl Pts',(10.9530111634811,-23.3620962632883,8.4210782642485));
#483=CARTESIAN_POINT('Ctrl Pts',(11.2502354750529,-23.2929521970401,8.61318677205271));
#484=CARTESIAN_POINT('Ctrl Pts',(11.5929529128579,-23.2132249462688,8.8346993906774));
#485=CARTESIAN_POINT('Ctrl Pts',(11.927695646959,-23.1299103989212,9.06600012554151));
#486=CARTESIAN_POINT('Ctrl Pts',(12.2539356131437,-23.0431211712164,9.30677800075085));
#487=CARTESIAN_POINT('Ctrl Pts',(12.3400071550689,-23.0202236619431,9.37030217046899));
#488=CARTESIAN_POINT('Ctrl Pts',(12.4254867478421,-22.9970842062256,9.43448624755837));
#489=CARTESIAN_POINT('Ctrl Pts',(12.5103644432771,-22.9737046842757,9.49932503777489));
#490=CARTESIAN_POINT('Ctrl Pts',(12.8294022603903,-22.8858258651134,9.74304072761455));
#491=CARTESIAN_POINT('Ctrl Pts',(13.1399383904883,-22.7945564321404,9.99600333789154));
#492=CARTESIAN_POINT('Ctrl Pts',(13.4416659477437,-22.7000802164449,10.2577063011197));
#493=CARTESIAN_POINT('Ctrl Pts',(13.7462530834165,-22.6047086163508,10.5218895155792));
#494=CARTESIAN_POINT('Ctrl Pts',(14.0418642759848,-22.5060690422311,10.7949798684385));
#495=CARTESIAN_POINT('Ctrl Pts',(14.3281512951421,-22.4043362609263,11.0764956640122));
#496=CARTESIAN_POINT('Ctrl Pts',(14.6144776760017,-22.3025894923459,11.3580501652909));
#497=CARTESIAN_POINT('Ctrl Pts',(14.8914776657924,-22.1977485242616,11.6480328164848));
#498=CARTESIAN_POINT('Ctrl Pts',(15.1587650684955,-22.0899759195766,11.9459954488556));
#499=CARTESIAN_POINT('Ctrl Pts',(15.4239320172303,-21.9830583003678,12.2415942734307));
#500=CARTESIAN_POINT('Ctrl Pts',(15.679540161513,-21.8732552246879,12.5450473805671));
#501=CARTESIAN_POINT('Ctrl Pts',(15.925170542972,-21.7607155343299,12.8559443199434));
#502=CARTESIAN_POINT('Ctrl Pts',(16.1586491609456,-21.6537433787849,13.1514606453536));
#503=CARTESIAN_POINT('Ctrl Pts',(16.3831127855278,-21.5442985108342,13.4537029709076));
#504=CARTESIAN_POINT('Ctrl Pts',(16.5981623751945,-21.4325021888407,13.7623368191387));
#505=CARTESIAN_POINT('Ctrl Pts',(16.8251811082417,-21.31448355222,14.0881484856919));
#506=CARTESIAN_POINT('Ctrl Pts',(17.0410222814222,-21.1942014991965,14.4200971261879));
#507=CARTESIAN_POINT('Ctrl Pts',(17.245370659342,-21.0718333817326,14.7576952123884));
#508=CARTESIAN_POINT('Ctrl Pts',(17.450163836458,-20.9491989091312,15.0960281385664));
#509=CARTESIAN_POINT('Ctrl Pts',(17.6434144711317,-20.8244691385381,15.4400355228897));
#510=CARTESIAN_POINT('Ctrl Pts',(17.8247658268417,-20.6978108826058,15.7892586924585));
#511=CARTESIAN_POINT('Ctrl Pts',(17.8543797459109,-20.6771281183334,15.846285377703));
#512=CARTESIAN_POINT('Ctrl Pts',(17.8836762728277,-20.6563939074376,15.903451206325));
#513=CARTESIAN_POINT('Ctrl Pts',(17.9126537449182,-20.6356089507704,15.9607542509159));
#514=CARTESIAN_POINT('Ctrl Pts',(18.0921471575009,-20.5068619437523,16.3157030536583));
#515=CARTESIAN_POINT('Ctrl Pts',(18.2594029271765,-20.3761685998401,16.6759147074843));
#516=CARTESIAN_POINT('Ctrl Pts',(18.4143396399537,-20.2437478520745,17.0407871937952));
#517=CARTESIAN_POINT('Ctrl Pts',(18.5676382626668,-20.1127271411841,17.4018020147163));
#518=CARTESIAN_POINT('Ctrl Pts',(18.7088769820208,-19.9800151652418,17.7673801694872));
#519=CARTESIAN_POINT('Ctrl Pts',(18.8379278455137,-19.8458171946728,18.1369570706792));
#520=CARTESIAN_POINT('Ctrl Pts',(18.9690471907729,-19.7094682423306,18.512457706596));
#521=CARTESIAN_POINT('Ctrl Pts',(19.0875851295725,-19.571585098917,18.8920867946232));
#522=CARTESIAN_POINT('Ctrl Pts',(19.1933537366102,-19.4323787892528,19.2752637677993));
#523=CARTESIAN_POINT('Ctrl Pts',(19.2991223436478,-19.2931724795885,19.6584407409755));
#524=CARTESIAN_POINT('Ctrl Pts',(19.3921217774923,-19.1526428083071,20.0451661368045));
#525=CARTESIAN_POINT('Ctrl Pts',(19.4721076846791,-19.0109993974836,20.4348630906324));
#526=CARTESIAN_POINT('Ctrl Pts',(19.5505011929644,-18.872175893563,20.8168017652455));
#527=CARTESIAN_POINT('Ctrl Pts',(19.6161569924685,-18.7327022394174,21.2004401618994));
#528=CARTESIAN_POINT('Ctrl Pts',(19.6690223001616,-18.5927879455422,21.5852031081965));
#529=CARTESIAN_POINT('Ctrl Pts',(19.7231483579063,-18.4495369274346,21.9791420136544));
#530=CARTESIAN_POINT('Ctrl Pts',(19.7638669022424,-18.3058238304171,22.3742602175938));
#531=CARTESIAN_POINT('Ctrl Pts',(19.7910678370934,-18.1618674084458,22.7699570013374));
#532=CARTESIAN_POINT('Ctrl Pts',(19.8182687719445,-18.0179109864745,23.1656537850811));
#533=CARTESIAN_POINT('Ctrl Pts',(19.8319522201576,-17.873711039647,23.561929697863));
#534=CARTESIAN_POINT('Ctrl Pts',(19.8319522509103,-17.7294831369388,23.9581925860131));
#535=CARTESIAN_POINT('',(-20.2870988842807,-18.798727968823,24.3473658779619));
#536=CARTESIAN_POINT('',(-20.2414300726558,-18.691441355613,24.3083167442183));
#537=CARTESIAN_POINT('Origin',(2.17403964840127E-15,-18.798727968823,24.3473658779619));
#538=CARTESIAN_POINT('Ctrl Pts',(19.8319522509103,-17.7294831369388,23.9581925860131));
#539=CARTESIAN_POINT('Ctrl Pts',(19.8319522174782,-17.5883032643276,24.3460811174404));
#540=CARTESIAN_POINT('Ctrl Pts',(19.8188440739898,-17.447134244844,24.7338537532946));
#541=CARTESIAN_POINT('Ctrl Pts',(19.7927879931524,-17.3061681089227,25.1209828205768));
#542=CARTESIAN_POINT('Ctrl Pts',(19.7667021516539,-17.1650409646969,25.5085540578476));
#543=CARTESIAN_POINT('Ctrl Pts',(19.7276386765084,-17.0241169936211,25.8954807340117));
#544=CARTESIAN_POINT('Ctrl Pts',(19.6757066588602,-16.8835914601242,26.2812261195807));
#545=CARTESIAN_POINT('Ctrl Pts',(19.6239977781875,-16.7436697245143,26.6653140679357));
#546=CARTESIAN_POINT('Ctrl Pts',(19.5595305651586,-16.6041428404385,27.0482313206421));
#547=CARTESIAN_POINT('Ctrl Pts',(19.4823634076388,-16.4652086824999,27.4294338119331));
#548=CARTESIAN_POINT('Ctrl Pts',(19.4683400306708,-16.439960557091,27.4987087004782));
#549=CARTESIAN_POINT('Ctrl Pts',(19.4538971119619,-16.4147320239614,27.5679269105224));
#550=CARTESIAN_POINT('Ctrl Pts',(19.4390348314324,-16.3895242957112,27.6370851074222));
#551=CARTESIAN_POINT('Ctrl Pts',(19.3571993091201,-16.2507240891363,28.0178878485796));
#552=CARTESIAN_POINT('Ctrl Pts',(19.262900619799,-16.1129739293676,28.3957208394059));
#553=CARTESIAN_POINT('Ctrl Pts',(19.1563659914585,-15.9764614661557,28.7700694071181));
#554=CARTESIAN_POINT('Ctrl Pts',(19.0494074998802,-15.8394058686077,29.1459073740842));
#555=CARTESIAN_POINT('Ctrl Pts',(18.9301154008788,-15.7035976623313,29.5182336125461));
#556=CARTESIAN_POINT('Ctrl Pts',(18.7986669921126,-15.5692281394723,29.8865233128352));
#557=CARTESIAN_POINT('Ctrl Pts',(18.6673690500047,-15.4350124270188,30.2543914384474));
#558=CARTESIAN_POINT('Ctrl Pts',(18.5239424683619,-15.3022319349889,30.6182327313826));
#559=CARTESIAN_POINT('Ctrl Pts',(18.3685134807817,-15.1710812723303,30.9775131369754));
#560=CARTESIAN_POINT('Ctrl Pts',(18.2265641659989,-15.0513047300809,31.3056347324562));
#561=CARTESIAN_POINT('Ctrl Pts',(18.0746033520593,-14.9328875290663,31.6299523656265));
#562=CARTESIAN_POINT('Ctrl Pts',(17.9126918287863,-14.8159826315768,31.95004616815));
#563=CARTESIAN_POINT('Ctrl Pts',(17.7352344094743,-14.6878531384187,32.3008737002817));
#564=CARTESIAN_POINT('Ctrl Pts',(17.5458240480256,-14.5615400394122,32.646628072505));
#565=CARTESIAN_POINT('Ctrl Pts',(17.3448314744644,-14.43722310084,32.9868157920492));
#566=CARTESIAN_POINT('Ctrl Pts',(17.1444843375781,-14.3133053745873,33.3259110850095));
#567=CARTESIAN_POINT('Ctrl Pts',(16.9326289085007,-14.1913708599716,33.6594758284816));
#568=CARTESIAN_POINT('Ctrl Pts',(16.7095921372049,-14.0716086233669,33.9869908749439));
#569=CARTESIAN_POINT('Ctrl Pts',(16.6395630424248,-14.0340056713087,34.0898240629306));
#570=CARTESIAN_POINT('Ctrl Pts',(16.5684313743215,-13.9966169608096,34.1920606004798));
#571=CARTESIAN_POINT('Ctrl Pts',(16.4962065146989,-13.9594486056395,34.2936836978323));
#572=CARTESIAN_POINT('Ctrl Pts',(16.2672953276574,-13.8416463371849,34.6157703583998));
#573=CARTESIAN_POINT('Ctrl Pts',(16.0280955889753,-13.7264118353685,34.9307263881756));
#574=CARTESIAN_POINT('Ctrl Pts',(15.7790678989255,-13.6139016872406,35.238123119499));
#575=CARTESIAN_POINT('Ctrl Pts',(15.5275518998099,-13.5002673266948,35.5485913890645));
#576=CARTESIAN_POINT('Ctrl Pts',(15.2660102814113,-13.3894118737114,35.8513489834889));
#577=CARTESIAN_POINT('Ctrl Pts',(14.9948700168511,-13.2815046995975,36.1459321304025));
#578=CARTESIAN_POINT('Ctrl Pts',(14.723719232556,-13.173593338887,36.4405267065911));
#579=CARTESIAN_POINT('Ctrl Pts',(14.4429687023228,-13.0686303345123,36.7269466157154));
#580=CARTESIAN_POINT('Ctrl Pts',(14.1530030304613,-12.9667954220154,37.0046995974986));
#581=CARTESIAN_POINT('Ctrl Pts',(13.8654032212729,-12.8657913920734,37.2801863613268));
#582=CARTESIAN_POINT('Ctrl Pts',(13.5687376458917,-12.7678644860109,37.5471474096592));
#583=CARTESIAN_POINT('Ctrl Pts',(13.2633454471303,-12.6732023350259,37.8050687526833));
#584=CARTESIAN_POINT('Ctrl Pts',(13.017827620975,-12.5970993906046,38.0124227313218));
#585=CARTESIAN_POINT('Ctrl Pts',(12.7666688187203,-12.5231067371942,38.2139335778598));
#586=CARTESIAN_POINT('Ctrl Pts',(12.510030584058,-12.4513285681231,38.4093158210419));
#587=CARTESIAN_POINT('Ctrl Pts',(12.1876736910831,-12.3611697981502,38.6547305891785));
#588=CARTESIAN_POINT('Ctrl Pts',(11.8566721141725,-12.2745043891832,38.8904774413048));
#589=CARTESIAN_POINT('Ctrl Pts',(11.5175628070757,-12.1914126412217,39.116337358782));
#590=CARTESIAN_POINT('Ctrl Pts',(11.3722217802788,-12.1557998175264,39.2131401053638));
#591=CARTESIAN_POINT('Ctrl Pts',(11.2253911227919,-12.1208436583606,39.3081261199923));
#592=CARTESIAN_POINT('Ctrl Pts',(11.0771119887933,-12.086551412527,39.4012756149957));
#593=CARTESIAN_POINT('Ctrl Pts',(10.7367928653756,-12.0078464273588,39.6150653346381));
#594=CARTESIAN_POINT('Ctrl Pts',(10.3898669381252,-11.9328738731248,39.8185422092684));
#595=CARTESIAN_POINT('Ctrl Pts',(10.0369371252203,-11.8616661997171,40.0116197654189));
#596=CARTESIAN_POINT('Ctrl Pts',(9.67994380889216,-11.7896386674761,40.2069203451896));
#597=CARTESIAN_POINT('Ctrl Pts',(9.31680712598284,-11.7214631302456,40.3915809784277));
#598=CARTESIAN_POINT('Ctrl Pts',(8.94811654255307,-11.6571872195299,40.5654736705729));
#599=CARTESIAN_POINT('Ctrl Pts',(8.57668086764384,-11.5924327415201,40.7406610834649));
#600=CARTESIAN_POINT('Ctrl Pts',(8.19960780706887,-11.5316360993066,40.9049198215798));
#601=CARTESIAN_POINT('Ctrl Pts',(7.81747215795217,-11.4748613418658,41.0580769583368));
#602=CARTESIAN_POINT('Ctrl Pts',(7.43455331096786,-11.4179702229469,41.211547994996));
#603=CARTESIAN_POINT('Ctrl Pts',(7.04655059919024,-11.3651174250873,41.3538720597588));
#604=CARTESIAN_POINT('Ctrl Pts',(6.65402181526924,-11.3163837993423,41.4848302021588));
#605=CARTESIAN_POINT('Ctrl Pts',(6.26298226664949,-11.2678350666263,41.6152914956737));
#606=CARTESIAN_POINT('Ctrl Pts',(5.86745041495078,-11.2233742571584,41.7344730899543));
#607=CARTESIAN_POINT('Ctrl Pts',(5.46796496158551,-11.1830984365435,41.8421115766657));
#608=CARTESIAN_POINT('Ctrl Pts',(5.0728592398259,-11.1432641771495,41.9485699761466));
#609=CARTESIAN_POINT('Ctrl Pts',(4.67388564273827,-11.1075236145644,42.0437370708252));
#610=CARTESIAN_POINT('Ctrl Pts',(4.27156025704905,-11.0759880354647,42.1273104026474));
#611=CARTESIAN_POINT('Ctrl Pts',(4.17926028522023,-11.0687532619057,42.146483481074));
#612=CARTESIAN_POINT('Ctrl Pts',(4.08678389860402,-11.0617398782951,42.165046155855));
#613=CARTESIAN_POINT('Ctrl Pts',(3.99413733173846,-11.0549493621167,42.1829944084623));
#614=CARTESIAN_POINT('Ctrl Pts',(3.58327473062193,-11.0248352495881,42.2625900805008));
#615=CARTESIAN_POINT('Ctrl Pts',(3.1703285917586,-10.9991954865535,42.3298610187187));
#616=CARTESIAN_POINT('Ctrl Pts',(2.75588186844332,-10.9780877944369,42.3846530577));
#617=CARTESIAN_POINT('Ctrl Pts',(2.41290770632946,-10.960620186152,42.4299960477708));
#618=CARTESIAN_POINT('Ctrl Pts',(2.06890531303033,-10.9462565692748,42.4667923103747));
#619=CARTESIAN_POINT('Ctrl Pts',(1.72419622312676,-10.9350384055816,42.4949305245042));
#620=CARTESIAN_POINT('Ctrl Pts',(1.31221220715927,-10.9216308562437,42.5285603149529));
#621=CARTESIAN_POINT('Ctrl Pts',(0.899218651520522,-10.9127158144865,42.5498242022413));
#622=CARTESIAN_POINT('Ctrl Pts',(0.485899804195625,-10.908262774317,42.5588105794033));
#623=CARTESIAN_POINT('Ctrl Pts',(0.0702108793257697,-10.9037841992593,42.5678484867842));
#624=CARTESIAN_POINT('Ctrl Pts',(-0.345807664610559,-10.9038189471847,42.5644676695327));
#625=CARTESIAN_POINT('Ctrl Pts',(-0.761462173868558,-10.9083539592057,42.5487088302062));
#626=CARTESIAN_POINT('Ctrl Pts',(-1.17602157138596,-10.9128770229745,42.5329915101935));
#627=CARTESIAN_POINT('Ctrl Pts',(-1.59021943406516,-10.9218766925541,42.5049612407432));
#628=CARTESIAN_POINT('Ctrl Pts',(-2.00336120771149,-10.9353576084862,42.4646102208859));
#629=CARTESIAN_POINT('Ctrl Pts',(-2.4119040176837,-10.948688459122,42.424708375831));
#630=CARTESIAN_POINT('Ctrl Pts',(-2.81941465768021,-10.9664013877601,42.3727584346726));
#631=CARTESIAN_POINT('Ctrl Pts',(-3.22520696573308,-10.9885175696359,42.3087071585404));
#632=CARTESIAN_POINT('Ctrl Pts',(-3.38106006044705,-10.9970117557508,42.2841069149984));
#633=CARTESIAN_POINT('Ctrl Pts',(-3.53665948704172,-11.0061556413334,42.2577211227131));
#634=CARTESIAN_POINT('Ctrl Pts',(-3.69196553570226,-11.0159510711326,42.2295449990316));
#635=CARTESIAN_POINT('Ctrl Pts',(-3.85483818326409,-11.0262237398352,42.199996118601));
#636=CARTESIAN_POINT('Ctrl Pts',(-4.0171904815311,-11.0372005332583,42.168514048247));
#637=CARTESIAN_POINT('Ctrl Pts',(-4.17897942674825,-11.0488788474043,42.1351062852642));
#638=CARTESIAN_POINT('Ctrl Pts',(-4.58025029313431,-11.0778435410611,42.0522479541332));
#639=CARTESIAN_POINT('Ctrl Pts',(-4.97805609218273,-11.1111223164494,41.9575473504856));
#640=CARTESIAN_POINT('Ctrl Pts',(-5.37194684289949,-11.1485774515621,41.8513881869515));
#641=CARTESIAN_POINT('Ctrl Pts',(-5.77071512903636,-11.1864963923058,41.7439144582002));
#642=CARTESIAN_POINT('Ctrl Pts',(-6.16547125511649,-11.2286958232468,41.6246964697837));
#643=CARTESIAN_POINT('Ctrl Pts',(-6.55574033466652,-11.2750509907415,41.4940826368333));
#644=CARTESIAN_POINT('Ctrl Pts',(-6.95044249634091,-11.3219327084426,41.3619851561168));
#645=CARTESIAN_POINT('Ctrl Pts',(-7.3405555802264,-11.3730651740833,41.2182312910703));
#646=CARTESIAN_POINT('Ctrl Pts',(-7.72557312636065,-11.4283368398967,41.0631334985583));
#647=CARTESIAN_POINT('Ctrl Pts',(-8.11111682122918,-11.4836840376366,40.9078237559468));
#648=CARTESIAN_POINT('Ctrl Pts',(-8.49155151510486,-11.5431818490887,40.7411388058778));
#649=CARTESIAN_POINT('Ctrl Pts',(-8.86634632087408,-11.6067344900615,40.5633479404061));
#650=CARTESIAN_POINT('Ctrl Pts',(-9.23901933093562,-11.6699273455765,40.3865635880702));
#651=CARTESIAN_POINT('Ctrl Pts',(-9.60611656640967,-11.7371293562746,40.198798419343));
#652=CARTESIAN_POINT('Ctrl Pts',(-9.96708727021712,-11.8082608671271,40.0002774157055));
#653=CARTESIAN_POINT('Ctrl Pts',(-10.2509110160994,-11.8641900925392,39.8441844854637));
#654=CARTESIAN_POINT('Ctrl Pts',(-10.5309466381896,-11.9225489713934,39.6814411026112));
#655=CARTESIAN_POINT('Ctrl Pts',(-10.8069110956035,-11.9833045103431,39.5121409376833));
#656=CARTESIAN_POINT('Ctrl Pts',(-11.1595891282231,-12.0609490887368,39.2957781145556));
#657=CARTESIAN_POINT('Ctrl Pts',(-11.504764156084,-12.142319509774,39.069231870813));
#658=CARTESIAN_POINT('Ctrl Pts',(-11.8419234717028,-12.2273052078213,38.8328118858159));
#659=CARTESIAN_POINT('Ctrl Pts',(-12.1784399636258,-12.3121288732094,38.5968426561782));
#660=CARTESIAN_POINT('Ctrl Pts',(-12.5069717363732,-12.4005541464924,38.3510370164382));
#661=CARTESIAN_POINT('Ctrl Pts',(-12.8269807729495,-12.4924859577546,38.0956620823648));
#662=CARTESIAN_POINT('Ctrl Pts',(-13.143952998358,-12.5835453575558,37.8427105968917));
#663=CARTESIAN_POINT('Ctrl Pts',(-13.4525638761451,-12.6780451721948,37.580370265082));
#664=CARTESIAN_POINT('Ctrl Pts',(-13.7522565296329,-12.7759059694741,37.3088651012761));
#665=CARTESIAN_POINT('Ctrl Pts',(-13.8986576580614,-12.8237113827328,37.1762336807432));
#666=CARTESIAN_POINT('Ctrl Pts',(-14.0429300187699,-12.8723190353079,37.0414146856019));
#667=CARTESIAN_POINT('Ctrl Pts',(-14.1850052594017,-12.9217206857768,36.9044314338912));
#668=CARTESIAN_POINT('Ctrl Pts',(-14.2566739846764,-12.9466409554862,36.8353313219333));
#669=CARTESIAN_POINT('Ctrl Pts',(-14.3277528690828,-12.9717525987547,36.7657100746093));
#670=CARTESIAN_POINT('Ctrl Pts',(-14.3982344002225,-12.9970541170483,36.6955718849306));
#671=CARTESIAN_POINT('Ctrl Pts',(-14.6846109498657,-13.0998578074978,36.4105903807882));
#672=CARTESIAN_POINT('Ctrl Pts',(-14.9611284722756,-13.2057951038442,36.1170775377824));
#673=CARTESIAN_POINT('Ctrl Pts',(-15.2274307627571,-13.3146561912309,35.8156148892049));
#674=CARTESIAN_POINT('Ctrl Pts',(-15.4948275535265,-13.4239646968176,35.5129132315483));
#675=CARTESIAN_POINT('Ctrl Pts',(-15.7519253353268,-13.5362212414646,35.2021958339755));
#676=CARTESIAN_POINT('Ctrl Pts',(-15.9983250094475,-13.6512256575386,34.8840177537697));
#677=CARTESIAN_POINT('Ctrl Pts',(-16.2442145748956,-13.7659919858383,34.5664983814081));
#678=CARTESIAN_POINT('Ctrl Pts',(-16.4794506108026,-13.8834949946049,34.2415487059279));
#679=CARTESIAN_POINT('Ctrl Pts',(-16.7035931086624,-14.0035453582511,33.9096939187306));
#680=CARTESIAN_POINT('Ctrl Pts',(-16.7615228852737,-14.0345724540252,33.8239258297994));
#681=CARTESIAN_POINT('Ctrl Pts',(-16.8187114094208,-14.0657697471221,33.7376963853623));
#682=CARTESIAN_POINT('Ctrl Pts',(-16.8751505704457,-14.0971340516401,33.6510144247278));
#683=CARTESIAN_POINT('Ctrl Pts',(-17.0940427544496,-14.2187765599808,33.3148293480454));
#684=CARTESIAN_POINT('Ctrl Pts',(-17.3011396068144,-14.3426378474185,32.9726485643391));
#685=CARTESIAN_POINT('Ctrl Pts',(-17.4961077002832,-14.4685040604532,32.6250630558634));
#686=CARTESIAN_POINT('Ctrl Pts',(-17.5968892392544,-14.5335659402122,32.4453915934972));
#687=CARTESIAN_POINT('Ctrl Pts',(-17.694429387099,-14.5991637456933,32.264275411008));
#688=CARTESIAN_POINT('Ctrl Pts',(-17.7886780028866,-14.6652691665732,32.0817927521512));
#689=CARTESIAN_POINT('Ctrl Pts',(-17.9701747982479,-14.792569943836,31.7303815668009));
#690=CARTESIAN_POINT('Ctrl Pts',(-18.1394681403413,-14.9217526616703,31.3739043226036));
#691=CARTESIAN_POINT('Ctrl Pts',(-18.2965537208036,-15.0526096845537,31.0129347065486));
#692=CARTESIAN_POINT('Ctrl Pts',(-18.4556190984535,-15.1851159381629,30.6474156810024));
#693=CARTESIAN_POINT('Ctrl Pts',(-18.6021672362542,-15.3193391342511,30.2772898720089));
#694=CARTESIAN_POINT('Ctrl Pts',(-18.7361451617454,-15.4550712789818,29.9031319503487));
#695=CARTESIAN_POINT('Ctrl Pts',(-18.8704290136395,-15.5911133557154,29.5281196731174));
#696=CARTESIAN_POINT('Ctrl Pts',(-18.9920852863578,-15.7286714658583,29.1490563384324));
#697=CARTESIAN_POINT('Ctrl Pts',(-19.1010102237392,-15.8675410754902,28.7665069987274));
#698=CARTESIAN_POINT('Ctrl Pts',(-19.2094925024962,-16.0058463347369,28.3855122962664));
#699=CARTESIAN_POINT('Ctrl Pts',(-19.3053467699831,-16.1454526428474,28.0010593506359));
#700=CARTESIAN_POINT('Ctrl Pts',(-19.3884194485151,-16.2861599936805,27.6137005948873));
#701=CARTESIAN_POINT('Ctrl Pts',(-19.4403184770452,-16.3740658484612,27.3717011376501));
#702=CARTESIAN_POINT('Ctrl Pts',(-19.4872277960712,-16.4624014740536,27.1285674472921));
#703=CARTESIAN_POINT('Ctrl Pts',(-19.5290996106184,-16.551118016067,26.884434432636));
#704=CARTESIAN_POINT('Ctrl Pts',(-19.5959919554355,-16.6928471859994,26.4944195748082));
#705=CARTESIAN_POINT('Ctrl Pts',(-19.6498247909935,-16.8351127948754,26.1030532698975));
#706=CARTESIAN_POINT('Ctrl Pts',(-19.6906014552563,-16.9777045479145,25.710913487956));
#707=CARTESIAN_POINT('Ctrl Pts',(-19.7316358987971,-17.1211977282728,25.3162947021114));
#708=CARTESIAN_POINT('Ctrl Pts',(-19.7594486951365,-17.2650213732249,24.920892124001));
#709=CARTESIAN_POINT('Ctrl Pts',(-19.7739928979155,-17.4089663936785,24.5252802396652));
#710=CARTESIAN_POINT('Ctrl Pts',(-19.7813819023273,-17.4820959015208,24.3242944583799));
#711=CARTESIAN_POINT('Ctrl Pts',(-19.7853454388707,-17.5552568024463,24.1232544711433));
#712=CARTESIAN_POINT('Ctrl Pts',(-19.7858722678624,-17.6284219571941,23.9222348276161));
#713=CARTESIAN_POINT('Ctrl Pts',(21.419,-16.8253734651726,23.629123576978));
#714=CARTESIAN_POINT('Ctrl Pts',(21.419,-17.908815501238,20.6523910476004));
#715=CARTESIAN_POINT('Ctrl Pts',(19.9737198382052,-20.0752645848418,14.7001211100008));
#716=CARTESIAN_POINT('Ctrl Pts',(13.8994398748089,-22.6807558823199,7.54159260359425));
#717=CARTESIAN_POINT('Ctrl Pts',(5.11389513046464,-24.1281518941202,3.56490474416417));
#718=CARTESIAN_POINT('Ctrl Pts',(-3.54014850808053,-24.1259323883207,3.57100278623063));
#719=CARTESIAN_POINT('Ctrl Pts',(-12.501503536421,-22.9265176325938,6.86636774415094));
#720=CARTESIAN_POINT('Ctrl Pts',(-18.4943634873112,-20.7176081274793,12.9352967310717));
#721=CARTESIAN_POINT('Ctrl Pts',(-21.6501870431519,-17.2198253496068,22.5453759314338));
#722=CARTESIAN_POINT('Ctrl Pts',(-20.3361062421979,-14.2413852495491,30.7285728515403));
#723=CARTESIAN_POINT('Ctrl Pts',(-14.3062422641616,-11.2178979718796,39.0355358749456));
#724=CARTESIAN_POINT('Ctrl Pts',(-6.68200116857761,-9.7108289718307,43.1761739221401));
#725=CARTESIAN_POINT('Ctrl Pts',(3.98902900356623,-9.43746668984807,43.927230619218));
#726=CARTESIAN_POINT('Ctrl Pts',(13.2233806356416,-10.6741934054674,40.5293518940174));
#727=CARTESIAN_POINT('Ctrl Pts',(19.9740732257212,-13.5787346985649,32.5491902773586));
#728=CARTESIAN_POINT('Ctrl Pts',(21.419,-15.7419314291072,26.6058561063557));
#729=CARTESIAN_POINT('Ctrl Pts',(21.419,-16.8253734651726,23.629123576978));
#730=CARTESIAN_POINT('Ctrl Pts',(21.419,-16.9652293128783,23.680026942631));
#731=CARTESIAN_POINT('Ctrl Pts',(21.419,-18.0487479645727,20.7030839135427));
#732=CARTESIAN_POINT('Ctrl Pts',(19.9737872299529,-20.2150921964673,14.7511020536465));
#733=CARTESIAN_POINT('Ctrl Pts',(13.8995099904334,-22.8206577142394,7.59236962865835));
#734=CARTESIAN_POINT('Ctrl Pts',(5.11393506430605,-24.2680032650734,3.61582040959371));
#735=CARTESIAN_POINT('Ctrl Pts',(-3.54009349791259,-24.2658394924139,3.62176532611635));
#736=CARTESIAN_POINT('Ctrl Pts',(-12.501620461953,-23.0663515461954,6.91733137325982));
#737=CARTESIAN_POINT('Ctrl Pts',(-18.4944429916785,-20.8575096828132,12.9860745160484));
#738=CARTESIAN_POINT('Ctrl Pts',(-21.6502178718673,-17.3596712354414,22.5963066671027));
#739=CARTESIAN_POINT('Ctrl Pts',(-20.3362557577515,-14.3812610341431,30.779421441043));
#740=CARTESIAN_POINT('Ctrl Pts',(-14.3061682733046,-11.3577105749283,39.0865580543174));
#741=CARTESIAN_POINT('Ctrl Pts',(-6.68208869361988,-9.8506573663571,43.2271527147834));
#742=CARTESIAN_POINT('Ctrl Pts',(3.98903050904809,-9.57730333882786,43.978186732937));
#743=CARTESIAN_POINT('Ctrl Pts',(13.2234725947843,-10.8140271313054,40.5803160390028));
#744=CARTESIAN_POINT('Ctrl Pts',(19.9741484236688,-13.7186097507021,32.6000408792697));
#745=CARTESIAN_POINT('Ctrl Pts',(21.419,-15.8817106611839,26.6569699717193));
#746=CARTESIAN_POINT('Ctrl Pts',(21.419,-16.9652293128783,23.680026942631));
#747=CARTESIAN_POINT('Ctrl Pts',(21.2712699344228,-17.2202214927707,23.7728365060825));
#748=CARTESIAN_POINT('Ctrl Pts',(21.2712699344228,-18.296097025496,20.8168927737762));
#749=CARTESIAN_POINT('Ctrl Pts',(19.8360661505001,-20.4474421859351,14.9061205240167));
#750=CARTESIAN_POINT('Ctrl Pts',(13.8041638945785,-23.0347484526671,7.7975549789571));
#751=CARTESIAN_POINT('Ctrl Pts',(5.07991566058193,-24.472051616247,3.84859699211064));
#752=CARTESIAN_POINT('Ctrl Pts',(-3.51375346969129,-24.4698419698675,3.85466794564314));
#753=CARTESIAN_POINT('Ctrl Pts',(-12.4125711175327,-23.278802470122,7.12702207687263));
#754=CARTESIAN_POINT('Ctrl Pts',(-18.3636249000206,-21.0852968743407,13.1536291707291));
#755=CARTESIAN_POINT('Ctrl Pts',(-21.4974363666141,-17.6119224392145,22.6966470005494));
#756=CARTESIAN_POINT('Ctrl Pts',(-20.1925114372952,-14.6542587854749,30.8227611035406));
#757=CARTESIAN_POINT('Ctrl Pts',(-14.2047381268111,-11.6518716262126,39.0717520280742));
#758=CARTESIAN_POINT('Ctrl Pts',(-6.63367221141425,-10.1553152897855,43.1835067693494));
#759=CARTESIAN_POINT('Ctrl Pts',(3.96290118312488,-9.88385932119984,43.9293259134146));
#760=CARTESIAN_POINT('Ctrl Pts',(13.1328190634925,-11.1119581515123,40.5551521082726));
#761=CARTESIAN_POINT('Ctrl Pts',(19.83641628467,-13.9962313737955,32.6306765585117));
#762=CARTESIAN_POINT('Ctrl Pts',(21.2712699344228,-16.1443459600455,26.7287802383887));
#763=CARTESIAN_POINT('Ctrl Pts',(21.2712699344228,-17.2202214927707,23.7728365060825));
#764=CARTESIAN_POINT('Ctrl Pts',(20.6323390883697,-17.5415672817971,23.8897968081949));
#765=CARTESIAN_POINT('Ctrl Pts',(20.6323390883697,-18.5847854042521,21.023578573184));
#766=CARTESIAN_POINT('Ctrl Pts',(19.2407750117635,-20.6707137147124,15.2925376415932));
#767=CARTESIAN_POINT('Ctrl Pts',(13.3921582609995,-23.1794354470296,8.39988133035672));
#768=CARTESIAN_POINT('Ctrl Pts',(4.9329900919469,-24.5730426143842,4.57097710645959));
#769=CARTESIAN_POINT('Ctrl Pts',(-3.39954667153431,-24.5709248067093,4.57679573522534));
#770=CARTESIAN_POINT('Ctrl Pts',(-12.0280426343927,-23.4160435866096,7.74980580960145));
#771=CARTESIAN_POINT('Ctrl Pts',(-17.7982521836499,-21.2892194315231,13.5932071508523));
#772=CARTESIAN_POINT('Ctrl Pts',(-20.8368186486697,-17.9213616593018,22.8463203319649));
#773=CARTESIAN_POINT('Ctrl Pts',(-19.5715975269726,-15.0535822908212,30.7254793908433));
#774=CARTESIAN_POINT('Ctrl Pts',(-13.7656685789851,-12.1423971309457,38.7238948814526));
#775=CARTESIAN_POINT('Ctrl Pts',(-6.424727283972,-10.691321884066,42.7106913561841));
#776=CARTESIAN_POINT('Ctrl Pts',(3.84989998710332,-10.4281179855271,43.4338381241321));
#777=CARTESIAN_POINT('Ctrl Pts',(12.7412224727481,-11.6188987301269,40.162194916823));
#778=CARTESIAN_POINT('Ctrl Pts',(19.2411179659472,-14.4155492572685,32.4784607433955));
#779=CARTESIAN_POINT('Ctrl Pts',(20.6323390883697,-16.4983491593422,26.7560150432057));
#780=CARTESIAN_POINT('Ctrl Pts',(20.6323390883697,-17.5415672817971,23.8897968081949));
#781=CARTESIAN_POINT('Ctrl Pts',(20.1111250720093,-17.6775608864314,23.9392944323323));
#782=CARTESIAN_POINT('Ctrl Pts',(20.1111250720093,-18.6940840341572,21.1464200376027));
#783=CARTESIAN_POINT('Ctrl Pts',(18.7551126786412,-20.7267223331582,15.5617922091788));
#784=CARTESIAN_POINT('Ctrl Pts',(13.0560109179268,-23.171285295137,8.84541067070671));
#785=CARTESIAN_POINT('Ctrl Pts',(4.8131057962215,-24.5292828447304,5.11434306752423));
#786=CARTESIAN_POINT('Ctrl Pts',(-3.30642041394192,-24.5272003998257,5.12006453787721));
#787=CARTESIAN_POINT('Ctrl Pts',(-11.7142768200589,-23.4018675915766,8.21189101791303));
#788=CARTESIAN_POINT('Ctrl Pts',(-17.3369874961922,-21.3293914591316,13.9059723941643));
#789=CARTESIAN_POINT('Ctrl Pts',(-20.297891476747,-18.0476494354327,22.9224845007525));
#790=CARTESIAN_POINT('Ctrl Pts',(-19.064974884331,-15.2531728217872,30.6002458959376));
#791=CARTESIAN_POINT('Ctrl Pts',(-13.4075458629945,-12.4164314167735,38.3941288510446));
#792=CARTESIAN_POINT('Ctrl Pts',(-6.25421631959616,-11.0024466008084,42.2790202043605));
#793=CARTESIAN_POINT('Ctrl Pts',(3.75771710019901,-10.7459685497686,42.9836878581781));
#794=CARTESIAN_POINT('Ctrl Pts',(12.421708500707,-11.9063087797134,39.7956792775199));
#795=CARTESIAN_POINT('Ctrl Pts',(18.7554442353792,-14.6314509153915,32.3084127949399));
#796=CARTESIAN_POINT('Ctrl Pts',(20.1111250720093,-16.6610377387056,26.7321688270619));
#797=CARTESIAN_POINT('Ctrl Pts',(20.1111250720093,-17.6775608864314,23.9392944323323));
#798=CARTESIAN_POINT('Ctrl Pts',(19.8319522509103,-17.7294831369388,23.9581925860131));
#799=CARTESIAN_POINT('Ctrl Pts',(19.8319522509103,-18.7317221390204,21.2045635588971));
#800=CARTESIAN_POINT('Ctrl Pts',(18.4949945744794,-20.7357977566667,15.6984110525344));
#801=CARTESIAN_POINT('Ctrl Pts',(12.8759765871516,-23.146009757855,9.07640800317097));
#802=CARTESIAN_POINT('Ctrl Pts',(4.74890074533563,-24.4849247031821,5.39776942431425));
#803=CARTESIAN_POINT('Ctrl Pts',(-3.25652988366635,-24.4828715474031,5.40341042345577));
#804=CARTESIAN_POINT('Ctrl Pts',(-11.546239182301,-23.3733518796715,8.451790656989));
#805=CARTESIAN_POINT('Ctrl Pts',(-17.0899395159222,-21.3299982120085,14.065858718853));
#806=CARTESIAN_POINT('Ctrl Pts',(-20.0092368535423,-18.0943711972731,22.9556708796161));
#807=CARTESIAN_POINT('Ctrl Pts',(-18.793645260488,-15.3391625804076,30.5255443403407));
#808=CARTESIAN_POINT('Ctrl Pts',(-13.2157143192243,-12.542283032534,38.209907743058));
#809=CARTESIAN_POINT('Ctrl Pts',(-6.16290343234227,-11.1481675372902,42.0402085863519));
#810=CARTESIAN_POINT('Ctrl Pts',(3.70834235183611,-10.8952935195015,42.7349742401932));
#811=CARTESIAN_POINT('Ctrl Pts',(12.2505873972769,-12.0393286483316,39.5917635566696));
#812=CARTESIAN_POINT('Ctrl Pts',(18.4953214759099,-14.7261771092521,32.2097080807942));
#813=CARTESIAN_POINT('Ctrl Pts',(19.8319522509103,-16.7272441348572,26.7118216131291));
#814=CARTESIAN_POINT('Ctrl Pts',(19.8319522509103,-17.7294831369388,23.9581925860131));
#815=CARTESIAN_POINT('',(21.419,-16.8253734651726,23.629123576978));
#816=CARTESIAN_POINT('Ctrl Pts',(21.419,-16.8253734651726,23.629123576978));
#817=CARTESIAN_POINT('Ctrl Pts',(21.419,-16.9652293128783,23.680026942631));
#818=CARTESIAN_POINT('Ctrl Pts',(21.2712699344228,-17.2202214927707,23.7728365060825));
#819=CARTESIAN_POINT('Ctrl Pts',(20.6323390883697,-17.5415672817971,23.8897968081949));
#820=CARTESIAN_POINT('Ctrl Pts',(20.1111250720093,-17.6775608864314,23.9392944323323));
#821=CARTESIAN_POINT('Ctrl Pts',(19.8319522509103,-17.7294831369388,23.9581925860131));
#822=CARTESIAN_POINT('Ctrl Pts',(21.419,-16.8253734651726,23.629123576978));
#823=CARTESIAN_POINT('Ctrl Pts',(21.419,-15.7419314291072,26.6058561063557));
#824=CARTESIAN_POINT('Ctrl Pts',(19.9740732257212,-13.5787346985649,32.5491902773586));
#825=CARTESIAN_POINT('Ctrl Pts',(13.2233806356416,-10.6741934054674,40.5293518940174));
#826=CARTESIAN_POINT('Ctrl Pts',(3.98902900356623,-9.43746668984807,43.927230619218));
#827=CARTESIAN_POINT('Ctrl Pts',(-6.68200116857761,-9.7108289718307,43.1761739221401));
#828=CARTESIAN_POINT('Ctrl Pts',(-14.3062422641616,-11.2178979718796,39.0355358749456));
#829=CARTESIAN_POINT('Ctrl Pts',(-20.3361062421979,-14.2413852495491,30.7285728515403));
#830=CARTESIAN_POINT('Ctrl Pts',(-21.6501870431519,-17.2198253496068,22.5453759314338));
#831=CARTESIAN_POINT('Ctrl Pts',(-18.4943634873112,-20.7176081274793,12.9352967310717));
#832=CARTESIAN_POINT('Ctrl Pts',(-12.501503536421,-22.9265176325938,6.86636774415094));
#833=CARTESIAN_POINT('Ctrl Pts',(-3.54014850808053,-24.1259323883207,3.57100278623063));
#834=CARTESIAN_POINT('Ctrl Pts',(5.11389513046464,-24.1281518941202,3.56490474416417));
#835=CARTESIAN_POINT('Ctrl Pts',(13.8994398748089,-22.6807558823199,7.54159260359425));
#836=CARTESIAN_POINT('Ctrl Pts',(19.9737198382052,-20.0752645848418,14.7001211100008));
#837=CARTESIAN_POINT('Ctrl Pts',(21.419,-17.908815501238,20.6523910476004));
#838=CARTESIAN_POINT('Ctrl Pts',(21.419,-16.8253734651726,23.629123576978));
#839=CARTESIAN_POINT('Origin',(0.244000000000009,-15.9796501064653,23.3213054479849));
#840=CARTESIAN_POINT('',(21.419,-15.9796501064653,23.3213054479849));
#841=CARTESIAN_POINT('Origin',(0.244000000000009,-15.9796501064653,23.3213054479849));
#842=CARTESIAN_POINT('',(21.419,-15.9796501064653,23.3213054479849));
#843=CARTESIAN_POINT('Origin',(16.4533490989119,-12.6887222345666,39.52637624548));
#844=CARTESIAN_POINT('',(16.4533490989119,-12.4531088606824,41.7818110900381));
#845=CARTESIAN_POINT('Origin',(16.4533490989119,-13.2055531759988,39.7144873243091));
#846=CARTESIAN_POINT('',(16.4533490989119,-11.9152036309682,40.6282696023377));
#847=CARTESIAN_POINT('',(16.4533490989119,-12.1243889980792,41.0768690697767));
#848=CARTESIAN_POINT('Origin',(16.4533490989119,-12.3598298172915,39.406669195316));
#849=CARTESIAN_POINT('Origin',(16.4533490989119,-11.79601424482,39.2014571093206));
#850=CARTESIAN_POINT('',(16.4533490989119,-9.94184912731777,39.9100273013538));
#851=CARTESIAN_POINT('',(16.4533490989119,-11.3513880584966,40.4230575163423));
#852=CARTESIAN_POINT('Origin',(16.4533490989119,-10.3864753136411,38.6884268943321));
#853=CARTESIAN_POINT('Origin',(-16.4533490989119,-23.8917966120612,8.74618236484296));
#854=CARTESIAN_POINT('',(-16.4533490989119,-23.6561832381769,11.0016172094011));
#855=CARTESIAN_POINT('Origin',(-16.4533490989119,-24.4086275534934,8.93429344367208));
#856=CARTESIAN_POINT('',(-16.4533490989119,-23.1182780084627,9.84807572170065));
#857=CARTESIAN_POINT('',(-16.4533490989119,-23.3274633755738,10.2966751891397));
#858=CARTESIAN_POINT('Origin',(-16.4533490989119,-23.5629041947861,8.62647531467898));
#859=CARTESIAN_POINT('Origin',(-16.4533490989119,-22.9990886223145,8.42126322868357));
#860=CARTESIAN_POINT('',(-16.4533490989119,-21.1449235048123,9.12983342071676));
#861=CARTESIAN_POINT('',(-16.4533490989119,-22.5544624359912,9.64286363570525));
#862=CARTESIAN_POINT('Origin',(-16.4533490989119,-21.5895496911357,7.90823301369508));
#863=CARTESIAN_POINT('Origin',(16.4524490796859,-23.8917966120612,8.74618236484296));
#864=CARTESIAN_POINT('',(16.4524490796859,-23.6561832381769,11.0016172094011));
#865=CARTESIAN_POINT('Origin',(16.4524490796859,-24.4086275534934,8.93429344367207));
#866=CARTESIAN_POINT('',(16.4524490796859,-23.1182780084627,9.84807572170065));
#867=CARTESIAN_POINT('',(16.4524490796859,-23.3274633755738,10.2966751891397));
#868=CARTESIAN_POINT('Origin',(16.4524490796859,-23.5629041947861,8.62647531467897));
#869=CARTESIAN_POINT('Origin',(16.4524490796859,-22.9990886223145,8.42126322868357));
#870=CARTESIAN_POINT('',(16.4524490796859,-21.1449235048123,9.12983342071675));
#871=CARTESIAN_POINT('',(16.4524490796859,-22.5544624359912,9.64286363570525));
#872=CARTESIAN_POINT('Origin',(16.4524490796859,-21.5895496911357,7.90823301369507));
#873=CARTESIAN_POINT('Origin',(-16.4533490989119,-12.6887222345666,39.52637624548));
#874=CARTESIAN_POINT('',(-16.4533490989119,-12.4531088606824,41.7818110900381));
#875=CARTESIAN_POINT('Origin',(-16.4533490989119,-13.2055531759988,39.7144873243091));
#876=CARTESIAN_POINT('',(-16.4533490989119,-11.9152036309682,40.6282696023377));
#877=CARTESIAN_POINT('',(-16.4533490989119,-12.1243889980792,41.0768690697767));
#878=CARTESIAN_POINT('Origin',(-16.4533490989119,-12.3598298172915,39.406669195316));
#879=CARTESIAN_POINT('Origin',(-16.4533490989119,-11.79601424482,39.2014571093206));
#880=CARTESIAN_POINT('',(-16.4533490989119,-9.94184912731777,39.9100273013538));
#881=CARTESIAN_POINT('',(-16.4533490989119,-11.3513880584966,40.4230575163423));
#882=CARTESIAN_POINT('Origin',(-16.4533490989119,-10.3864753136411,38.6884268943321));
#883=CARTESIAN_POINT('Origin',(1.84801827850538E-15,-15.9796501064653,23.3213054479849));
#884=CARTESIAN_POINT('',(-26.25,-15.9796501064653,23.3213054479849));
#885=CARTESIAN_POINT('Origin',(-5.82922974618763E-17,-15.9796501064653,
23.3213054479849));
#886=CARTESIAN_POINT('Origin',(-5.82922974618763E-17,-18.798727968823,24.3473658779619));
#887=CARTESIAN_POINT('',(-26.25,-18.798727968823,24.3473658779619));
#888=CARTESIAN_POINT('',(-26.25,-18.798727968823,24.3473658779619));
#889=CARTESIAN_POINT('Origin',(-5.82922974618763E-17,-18.798727968823,24.3473658779619));
#890=CARTESIAN_POINT('Origin',(2.17403964840127E-15,-18.798727968823,24.3473658779619));
#891=UNCERTAINTY_MEASURE_WITH_UNIT(LENGTH_MEASURE(0.01),#895,
'DISTANCE_ACCURACY_VALUE',
'Maximum model space distance between geometric entities at asserted c
onnectivities');
#892=UNCERTAINTY_MEASURE_WITH_UNIT(LENGTH_MEASURE(0.01),#895,
'DISTANCE_ACCURACY_VALUE',
'Maximum model space distance between geometric entities at asserted c
onnectivities');
#893=(
GEOMETRIC_REPRESENTATION_CONTEXT(3)
GLOBAL_UNCERTAINTY_ASSIGNED_CONTEXT((#891))
GLOBAL_UNIT_ASSIGNED_CONTEXT((#895,#897,#898))
REPRESENTATION_CONTEXT('','3D')
);
#894=(
GEOMETRIC_REPRESENTATION_CONTEXT(3)
GLOBAL_UNCERTAINTY_ASSIGNED_CONTEXT((#892))
GLOBAL_UNIT_ASSIGNED_CONTEXT((#895,#897,#898))
REPRESENTATION_CONTEXT('','3D')
);
#895=(
LENGTH_UNIT()
NAMED_UNIT(*)
SI_UNIT(.MILLI.,.METRE.)
);
#896=(
LENGTH_UNIT()
NAMED_UNIT(*)
SI_UNIT($,.METRE.)
);
#897=(
NAMED_UNIT(*)
PLANE_ANGLE_UNIT()
SI_UNIT($,.RADIAN.)
);
#898=(
NAMED_UNIT(*)
SI_UNIT($,.STERADIAN.)
SOLID_ANGLE_UNIT()
);
#899=SHAPE_DEFINITION_REPRESENTATION(#900,#901);
#900=PRODUCT_DEFINITION_SHAPE('',$,#903);
#901=SHAPE_REPRESENTATION('',(#258),#893);
#902=PRODUCT_DEFINITION_CONTEXT('part definition',#907,'design');
#903=PRODUCT_DEFINITION('2026-09-23-14-37-59-331','Bezel',#904,#902);
#904=PRODUCT_DEFINITION_FORMATION('',$,#909);
#905=PRODUCT_RELATED_PRODUCT_CATEGORY('Bezel','Bezel',(#909));
#906=APPLICATION_PROTOCOL_DEFINITION('international standard',
'automotive_design',2009,#907);
#907=APPLICATION_CONTEXT(
'Core Data for Automotive Mechanical Design Process');
#908=PRODUCT_CONTEXT('part definition',#907,'mechanical');
#909=PRODUCT('2026-09-23-14-37-59-331','Bezel','Bezel',(#908));
#910=PRESENTATION_STYLE_ASSIGNMENT((#912));
#911=PRESENTATION_STYLE_ASSIGNMENT((#913));
#912=SURFACE_STYLE_USAGE(.BOTH.,#914);
#913=SURFACE_STYLE_USAGE(.BOTH.,#915);
#914=SURFACE_SIDE_STYLE('',(#916));
#915=SURFACE_SIDE_STYLE('',(#917));
#916=SURFACE_STYLE_FILL_AREA(#918);
#917=SURFACE_STYLE_FILL_AREA(#919);
#918=FILL_AREA_STYLE('Steel - Satin',(#920));
#919=FILL_AREA_STYLE('Opaque(26,26,26)',(#921));
#920=FILL_AREA_STYLE_COLOUR('Steel - Satin',#922);
#921=FILL_AREA_STYLE_COLOUR('Opaque(26,26,26)',#923);
#922=COLOUR_RGB('Steel - Satin',0.627450980392157,0.627450980392157,0.627450980392157);
#923=COLOUR_RGB('Opaque(26,26,26)',0.101960784313725,0.101960784313725,
0.101960784313725);
ENDSEC;
END-ISO-10303-21;
