ISO-10303-21;
HEADER;
/* Generated by software containing ST-Developer
 * from STEP Tools, Inc. (www.steptools.com) 
 */

FILE_DESCRIPTION(
/* description */ (''),
/* implementation_level */ '2;1');

FILE_NAME(
/* name */ 'blipscope-back-small.step',
/* time_stamp */ '2026-09-23T14:38:00-07:00',
/* author */ (''),
/* organization */ (''),
/* preprocessor_version */ 'ST-DEVELOPER v20.2',
/* originating_system */ 'Autodesk Translation Framework v15.15.0.0',
/* authorisation */ '');

FILE_SCHEMA (('AUTOMOTIVE_DESIGN { 1 0 10303 214 3 1 1 }'));
ENDSEC;

DATA;
#10=MECHANICAL_DESIGN_GEOMETRIC_PRESENTATION_REPRESENTATION('',(#13),#1831);
#11=SHAPE_REPRESENTATION_RELATIONSHIP('SRR','None',#1838,#12);
#12=ADVANCED_BREP_SHAPE_REPRESENTATION('',(#14),#1830);
#13=STYLED_ITEM('',(#1848),#14);
#14=MANIFOLD_SOLID_BREP('back-small',#1061);
#15=CYLINDRICAL_SURFACE('',#1087,2.);
#16=CYLINDRICAL_SURFACE('',#1090,2.);
#17=CYLINDRICAL_SURFACE('',#1092,3.);
#18=CYLINDRICAL_SURFACE('',#1098,3.);
#19=CYLINDRICAL_SURFACE('',#1109,0.95);
#20=CYLINDRICAL_SURFACE('',#1110,0.95);
#21=CYLINDRICAL_SURFACE('',#1146,0.1);
#22=CYLINDRICAL_SURFACE('',#1148,0.1);
#23=CYLINDRICAL_SURFACE('',#1150,0.1);
#24=CYLINDRICAL_SURFACE('',#1152,0.1);
#25=CYLINDRICAL_SURFACE('',#1154,0.1);
#26=CYLINDRICAL_SURFACE('',#1156,0.1);
#27=CYLINDRICAL_SURFACE('',#1158,0.1);
#28=CYLINDRICAL_SURFACE('',#1161,0.1);
#29=CYLINDRICAL_SURFACE('',#1162,0.1);
#30=CYLINDRICAL_SURFACE('',#1164,0.1);
#31=CYLINDRICAL_SURFACE('',#1167,0.1);
#32=CYLINDRICAL_SURFACE('',#1168,0.1);
#33=FACE_BOUND('',#150,.T.);
#34=FACE_BOUND('',#162,.T.);
#35=FACE_BOUND('',#173,.T.);
#36=FACE_BOUND('',#174,.T.);
#37=B_SPLINE_CURVE_WITH_KNOTS('',3,(#1500,#1501,#1502,#1503,#1504,#1505,
#1506,#1507,#1508,#1509),.UNSPECIFIED.,.F.,.F.,(4,2,2,2,4),(0.10432065974299,
0.114545258253528,0.131890146918226,0.165718206415644,0.208529461975568),
 .UNSPECIFIED.);
#38=B_SPLINE_CURVE_WITH_KNOTS('',3,(#1512,#1513,#1514,#1515),
 .UNSPECIFIED.,.F.,.F.,(4,4),(-0.785398163397448,-0.487651603322173),
 .UNSPECIFIED.);
#39=B_SPLINE_CURVE_WITH_KNOTS('',3,(#1548,#1549,#1550,#1551,#1552,#1553,
#1554,#1555,#1556,#1557),.UNSPECIFIED.,.F.,.F.,(4,2,2,2,4),(0.,0.064056052145008,
0.0868322336677118,0.101239446133103,0.104320659743017),.UNSPECIFIED.);
#40=B_SPLINE_CURVE_WITH_KNOTS('',3,(#1559,#1560,#1561,#1562),
 .UNSPECIFIED.,.F.,.F.,(4,4),(0.487651603322173,0.785398163397448),
 .UNSPECIFIED.);
#41=B_SPLINE_SURFACE_WITH_KNOTS('',3,3,((#1483,#1484,#1485,#1486),(#1487,
#1488,#1489,#1490),(#1491,#1492,#1493,#1494),(#1495,#1496,#1497,#1498)),
 .UNSPECIFIED.,.F.,.F.,.F.,(4,4),(4,4),(0.,1.),(0.487651603322173,0.785398164391177),
 .UNSPECIFIED.);
#42=B_SPLINE_SURFACE_WITH_KNOTS('',3,3,((#1531,#1532,#1533,#1534),(#1535,
#1536,#1537,#1538),(#1539,#1540,#1541,#1542),(#1543,#1544,#1545,#1546)),
 .UNSPECIFIED.,.F.,.F.,.F.,(4,4),(4,4),(0.,1.),(-0.785398163397448,-0.487651603322173),
 .UNSPECIFIED.);
#43=CIRCLE('',#1077,2.);
#44=CIRCLE('',#1078,3.5);
#45=CIRCLE('',#1080,3.5);
#46=CIRCLE('',#1081,2.);
#47=CIRCLE('',#1086,0.95);
#48=CIRCLE('',#1088,2.);
#49=CIRCLE('',#1091,2.);
#50=CIRCLE('',#1093,3.);
#51=CIRCLE('',#1094,3.);
#52=CIRCLE('',#1096,3.);
#53=CIRCLE('',#1099,3.);
#54=CIRCLE('',#1104,0.95);
#55=CIRCLE('',#1106,0.95);
#56=CIRCLE('',#1108,0.95);
#57=CIRCLE('',#1117,0.1);
#58=CIRCLE('',#1118,0.1);
#59=CIRCLE('',#1119,0.1);
#60=CIRCLE('',#1120,0.1);
#61=CIRCLE('',#1121,0.1);
#62=CIRCLE('',#1122,0.1);
#63=CIRCLE('',#1123,0.1);
#64=CIRCLE('',#1124,0.1);
#65=CIRCLE('',#1125,0.1);
#66=CIRCLE('',#1126,0.1);
#67=CIRCLE('',#1127,0.1);
#68=CIRCLE('',#1128,0.1);
#69=CIRCLE('',#1132,0.1);
#70=CIRCLE('',#1133,0.1);
#71=CIRCLE('',#1134,0.1);
#72=CIRCLE('',#1135,0.1);
#73=CIRCLE('',#1136,0.1);
#74=CIRCLE('',#1137,0.1);
#75=CIRCLE('',#1139,0.1);
#76=CIRCLE('',#1140,0.1);
#77=CIRCLE('',#1141,0.1);
#78=CIRCLE('',#1142,0.1);
#79=CIRCLE('',#1143,0.1);
#80=CIRCLE('',#1144,0.1);
#81=CONICAL_SURFACE('',#1076,2.75,0.785398163397449);
#82=CONICAL_SURFACE('',#1079,2.75,0.785398163397449);
#83=FACE_OUTER_BOUND('',#141,.T.);
#84=FACE_OUTER_BOUND('',#142,.T.);
#85=FACE_OUTER_BOUND('',#143,.T.);
#86=FACE_OUTER_BOUND('',#144,.T.);
#87=FACE_OUTER_BOUND('',#145,.T.);
#88=FACE_OUTER_BOUND('',#146,.T.);
#89=FACE_OUTER_BOUND('',#147,.T.);
#90=FACE_OUTER_BOUND('',#148,.T.);
#91=FACE_OUTER_BOUND('',#149,.T.);
#92=FACE_OUTER_BOUND('',#151,.T.);
#93=FACE_OUTER_BOUND('',#152,.T.);
#94=FACE_OUTER_BOUND('',#153,.T.);
#95=FACE_OUTER_BOUND('',#154,.T.);
#96=FACE_OUTER_BOUND('',#155,.T.);
#97=FACE_OUTER_BOUND('',#156,.T.);
#98=FACE_OUTER_BOUND('',#157,.T.);
#99=FACE_OUTER_BOUND('',#158,.T.);
#100=FACE_OUTER_BOUND('',#159,.T.);
#101=FACE_OUTER_BOUND('',#160,.T.);
#102=FACE_OUTER_BOUND('',#161,.T.);
#103=FACE_OUTER_BOUND('',#163,.T.);
#104=FACE_OUTER_BOUND('',#164,.T.);
#105=FACE_OUTER_BOUND('',#165,.T.);
#106=FACE_OUTER_BOUND('',#166,.T.);
#107=FACE_OUTER_BOUND('',#167,.T.);
#108=FACE_OUTER_BOUND('',#168,.T.);
#109=FACE_OUTER_BOUND('',#169,.T.);
#110=FACE_OUTER_BOUND('',#170,.T.);
#111=FACE_OUTER_BOUND('',#171,.T.);
#112=FACE_OUTER_BOUND('',#172,.T.);
#113=FACE_OUTER_BOUND('',#175,.T.);
#114=FACE_OUTER_BOUND('',#176,.T.);
#115=FACE_OUTER_BOUND('',#177,.T.);
#116=FACE_OUTER_BOUND('',#178,.T.);
#117=FACE_OUTER_BOUND('',#179,.T.);
#118=FACE_OUTER_BOUND('',#180,.T.);
#119=FACE_OUTER_BOUND('',#181,.T.);
#120=FACE_OUTER_BOUND('',#182,.T.);
#121=FACE_OUTER_BOUND('',#183,.T.);
#122=FACE_OUTER_BOUND('',#184,.T.);
#123=FACE_OUTER_BOUND('',#185,.T.);
#124=FACE_OUTER_BOUND('',#186,.T.);
#125=FACE_OUTER_BOUND('',#187,.T.);
#126=FACE_OUTER_BOUND('',#188,.T.);
#127=FACE_OUTER_BOUND('',#189,.T.);
#128=FACE_OUTER_BOUND('',#190,.T.);
#129=FACE_OUTER_BOUND('',#191,.T.);
#130=FACE_OUTER_BOUND('',#192,.T.);
#131=FACE_OUTER_BOUND('',#193,.T.);
#132=FACE_OUTER_BOUND('',#194,.T.);
#133=FACE_OUTER_BOUND('',#195,.T.);
#134=FACE_OUTER_BOUND('',#196,.T.);
#135=FACE_OUTER_BOUND('',#197,.T.);
#136=FACE_OUTER_BOUND('',#198,.T.);
#137=FACE_OUTER_BOUND('',#199,.T.);
#138=FACE_OUTER_BOUND('',#200,.T.);
#139=FACE_OUTER_BOUND('',#201,.T.);
#140=FACE_OUTER_BOUND('',#202,.T.);
#141=EDGE_LOOP('',(#667,#668,#669,#670));
#142=EDGE_LOOP('',(#671,#672,#673,#674));
#143=EDGE_LOOP('',(#675,#676,#677,#678));
#144=EDGE_LOOP('',(#679,#680,#681,#682));
#145=EDGE_LOOP('',(#683,#684,#685,#686));
#146=EDGE_LOOP('',(#687,#688,#689,#690));
#147=EDGE_LOOP('',(#691,#692,#693,#694));
#148=EDGE_LOOP('',(#695,#696,#697,#698,#699,#700));
#149=EDGE_LOOP('',(#701,#702,#703,#704,#705));
#150=EDGE_LOOP('',(#706));
#151=EDGE_LOOP('',(#707,#708,#709,#710,#711));
#152=EDGE_LOOP('',(#712,#713,#714,#715));
#153=EDGE_LOOP('',(#716,#717,#718,#719,#720));
#154=EDGE_LOOP('',(#721,#722,#723,#724));
#155=EDGE_LOOP('',(#725,#726,#727,#728,#729,#730,#731,#732,#733,#734,#735,
#736,#737,#738));
#156=EDGE_LOOP('',(#739,#740,#741,#742));
#157=EDGE_LOOP('',(#743,#744,#745,#746));
#158=EDGE_LOOP('',(#747,#748,#749,#750,#751));
#159=EDGE_LOOP('',(#752,#753,#754,#755,#756));
#160=EDGE_LOOP('',(#757,#758,#759,#760));
#161=EDGE_LOOP('',(#761,#762,#763,#764,#765));
#162=EDGE_LOOP('',(#766));
#163=EDGE_LOOP('',(#767));
#164=EDGE_LOOP('',(#768));
#165=EDGE_LOOP('',(#769,#770,#771,#772));
#166=EDGE_LOOP('',(#773,#774,#775,#776));
#167=EDGE_LOOP('',(#777,#778,#779,#780,#781,#782));
#168=EDGE_LOOP('',(#783,#784,#785,#786,#787,#788,#789,#790));
#169=EDGE_LOOP('',(#791,#792,#793,#794));
#170=EDGE_LOOP('',(#795,#796,#797,#798));
#171=EDGE_LOOP('',(#799,#800,#801,#802));
#172=EDGE_LOOP('',(#803,#804,#805,#806,#807,#808,#809,#810,#811,#812,#813,
#814));
#173=EDGE_LOOP('',(#815,#816,#817,#818,#819,#820,#821,#822,#823,#824,#825,
#826));
#174=EDGE_LOOP('',(#827,#828,#829,#830,#831,#832,#833,#834,#835,#836,#837,
#838));
#175=EDGE_LOOP('',(#839,#840,#841,#842));
#176=EDGE_LOOP('',(#843,#844,#845,#846));
#177=EDGE_LOOP('',(#847,#848,#849,#850,#851,#852,#853,#854,#855,#856,#857,
#858));
#178=EDGE_LOOP('',(#859,#860,#861,#862,#863,#864,#865,#866,#867,#868,#869,
#870));
#179=EDGE_LOOP('',(#871,#872,#873,#874));
#180=EDGE_LOOP('',(#875,#876,#877,#878));
#181=EDGE_LOOP('',(#879,#880,#881,#882));
#182=EDGE_LOOP('',(#883,#884,#885,#886));
#183=EDGE_LOOP('',(#887,#888,#889,#890));
#184=EDGE_LOOP('',(#891,#892,#893,#894));
#185=EDGE_LOOP('',(#895,#896,#897,#898));
#186=EDGE_LOOP('',(#899,#900,#901,#902));
#187=EDGE_LOOP('',(#903,#904,#905,#906));
#188=EDGE_LOOP('',(#907,#908,#909,#910));
#189=EDGE_LOOP('',(#911,#912,#913,#914));
#190=EDGE_LOOP('',(#915,#916,#917,#918));
#191=EDGE_LOOP('',(#919,#920,#921,#922));
#192=EDGE_LOOP('',(#923,#924,#925,#926));
#193=EDGE_LOOP('',(#927,#928,#929,#930));
#194=EDGE_LOOP('',(#931,#932,#933,#934));
#195=EDGE_LOOP('',(#935,#936,#937,#938));
#196=EDGE_LOOP('',(#939,#940,#941,#942));
#197=EDGE_LOOP('',(#943,#944,#945,#946));
#198=EDGE_LOOP('',(#947,#948,#949,#950));
#199=EDGE_LOOP('',(#951,#952,#953,#954));
#200=EDGE_LOOP('',(#955,#956,#957,#958));
#201=EDGE_LOOP('',(#959,#960,#961,#962));
#202=EDGE_LOOP('',(#963,#964,#965,#966));
#203=LINE('',#1471,#311);
#204=LINE('',#1473,#312);
#205=LINE('',#1475,#313);
#206=LINE('',#1476,#314);
#207=LINE('',#1480,#315);
#208=LINE('',#1511,#316);
#209=LINE('',#1519,#317);
#210=LINE('',#1523,#318);
#211=LINE('',#1528,#319);
#212=LINE('',#1529,#320);
#213=LINE('',#1530,#321);
#214=LINE('',#1563,#322);
#215=LINE('',#1565,#323);
#216=LINE('',#1566,#324);
#217=LINE('',#1569,#325);
#218=LINE('',#1571,#326);
#219=LINE('',#1573,#327);
#220=LINE('',#1575,#328);
#221=LINE('',#1576,#329);
#222=LINE('',#1579,#330);
#223=LINE('',#1581,#331);
#224=LINE('',#1582,#332);
#225=LINE('',#1587,#333);
#226=LINE('',#1591,#334);
#227=LINE('',#1592,#335);
#228=LINE('',#1595,#336);
#229=LINE('',#1602,#337);
#230=LINE('',#1605,#338);
#231=LINE('',#1608,#339);
#232=LINE('',#1612,#340);
#233=LINE('',#1614,#341);
#234=LINE('',#1616,#342);
#235=LINE('',#1618,#343);
#236=LINE('',#1620,#344);
#237=LINE('',#1622,#345);
#238=LINE('',#1624,#346);
#239=LINE('',#1625,#347);
#240=LINE('',#1627,#348);
#241=LINE('',#1628,#349);
#242=LINE('',#1631,#350);
#243=LINE('',#1632,#351);
#244=LINE('',#1636,#352);
#245=LINE('',#1639,#353);
#246=LINE('',#1640,#354);
#247=LINE('',#1642,#355);
#248=LINE('',#1643,#356);
#249=LINE('',#1646,#357);
#250=LINE('',#1647,#358);
#251=LINE('',#1650,#359);
#252=LINE('',#1651,#360);
#253=LINE('',#1661,#361);
#254=LINE('',#1663,#362);
#255=LINE('',#1666,#363);
#256=LINE('',#1667,#364);
#257=LINE('',#1669,#365);
#258=LINE('',#1670,#366);
#259=LINE('',#1675,#367);
#260=LINE('',#1676,#368);
#261=LINE('',#1678,#369);
#262=LINE('',#1679,#370);
#263=LINE('',#1682,#371);
#264=LINE('',#1686,#372);
#265=LINE('',#1690,#373);
#266=LINE('',#1694,#374);
#267=LINE('',#1698,#375);
#268=LINE('',#1702,#376);
#269=LINE('',#1706,#377);
#270=LINE('',#1710,#378);
#271=LINE('',#1714,#379);
#272=LINE('',#1718,#380);
#273=LINE('',#1722,#381);
#274=LINE('',#1726,#382);
#275=LINE('',#1733,#383);
#276=LINE('',#1737,#384);
#277=LINE('',#1741,#385);
#278=LINE('',#1745,#386);
#279=LINE('',#1749,#387);
#280=LINE('',#1753,#388);
#281=LINE('',#1758,#389);
#282=LINE('',#1762,#390);
#283=LINE('',#1766,#391);
#284=LINE('',#1770,#392);
#285=LINE('',#1774,#393);
#286=LINE('',#1778,#394);
#287=LINE('',#1781,#395);
#288=LINE('',#1782,#396);
#289=LINE('',#1784,#397);
#290=LINE('',#1786,#398);
#291=LINE('',#1788,#399);
#292=LINE('',#1790,#400);
#293=LINE('',#1792,#401);
#294=LINE('',#1794,#402);
#295=LINE('',#1795,#403);
#296=LINE('',#1797,#404);
#297=LINE('',#1799,#405);
#298=LINE('',#1801,#406);
#299=LINE('',#1803,#407);
#300=LINE('',#1805,#408);
#301=LINE('',#1807,#409);
#302=LINE('',#1808,#410);
#303=LINE('',#1811,#411);
#304=LINE('',#1812,#412);
#305=LINE('',#1814,#413);
#306=LINE('',#1818,#414);
#307=LINE('',#1819,#415);
#308=LINE('',#1822,#416);
#309=LINE('',#1823,#417);
#310=LINE('',#1825,#418);
#311=VECTOR('',#1173,10.);
#312=VECTOR('',#1174,10.);
#313=VECTOR('',#1175,10.);
#314=VECTOR('',#1176,10.);
#315=VECTOR('',#1179,10.);
#316=VECTOR('',#1184,10.);
#317=VECTOR('',#1187,10.);
#318=VECTOR('',#1190,10.);
#319=VECTOR('',#1195,10.);
#320=VECTOR('',#1196,10.);
#321=VECTOR('',#1197,10.);
#322=VECTOR('',#1198,10.);
#323=VECTOR('',#1201,10.);
#324=VECTOR('',#1202,10.);
#325=VECTOR('',#1205,10.);
#326=VECTOR('',#1206,10.);
#327=VECTOR('',#1207,10.);
#328=VECTOR('',#1208,10.);
#329=VECTOR('',#1209,10.);
#330=VECTOR('',#1212,10.);
#331=VECTOR('',#1213,10.);
#332=VECTOR('',#1214,10.);
#333=VECTOR('',#1219,10.);
#334=VECTOR('',#1224,10.);
#335=VECTOR('',#1225,10.);
#336=VECTOR('',#1228,10.);
#337=VECTOR('',#1235,10.);
#338=VECTOR('',#1238,10.);
#339=VECTOR('',#1241,10.);
#340=VECTOR('',#1244,10.);
#341=VECTOR('',#1245,10.);
#342=VECTOR('',#1246,10.);
#343=VECTOR('',#1247,10.);
#344=VECTOR('',#1248,10.);
#345=VECTOR('',#1249,10.);
#346=VECTOR('',#1250,10.);
#347=VECTOR('',#1251,10.);
#348=VECTOR('',#1252,10.);
#349=VECTOR('',#1253,10.);
#350=VECTOR('',#1256,10.);
#351=VECTOR('',#1257,10.);
#352=VECTOR('',#1262,10.);
#353=VECTOR('',#1265,10.);
#354=VECTOR('',#1266,10.);
#355=VECTOR('',#1269,10.);
#356=VECTOR('',#1270,10.);
#357=VECTOR('',#1273,10.);
#358=VECTOR('',#1274,10.);
#359=VECTOR('',#1277,10.);
#360=VECTOR('',#1278,10.);
#361=VECTOR('',#1291,0.95);
#362=VECTOR('',#1294,0.95);
#363=VECTOR('',#1297,10.);
#364=VECTOR('',#1298,10.);
#365=VECTOR('',#1301,10.);
#366=VECTOR('',#1302,10.);
#367=VECTOR('',#1309,10.);
#368=VECTOR('',#1310,10.);
#369=VECTOR('',#1313,10.);
#370=VECTOR('',#1314,10.);
#371=VECTOR('',#1315,10.);
#372=VECTOR('',#1318,10.);
#373=VECTOR('',#1321,10.);
#374=VECTOR('',#1324,10.);
#375=VECTOR('',#1327,10.);
#376=VECTOR('',#1330,10.);
#377=VECTOR('',#1333,10.);
#378=VECTOR('',#1336,10.);
#379=VECTOR('',#1339,10.);
#380=VECTOR('',#1342,10.);
#381=VECTOR('',#1345,10.);
#382=VECTOR('',#1348,10.);
#383=VECTOR('',#1357,10.);
#384=VECTOR('',#1360,10.);
#385=VECTOR('',#1363,10.);
#386=VECTOR('',#1366,10.);
#387=VECTOR('',#1369,10.);
#388=VECTOR('',#1372,10.);
#389=VECTOR('',#1377,10.);
#390=VECTOR('',#1380,10.);
#391=VECTOR('',#1383,10.);
#392=VECTOR('',#1386,10.);
#393=VECTOR('',#1389,10.);
#394=VECTOR('',#1392,10.);
#395=VECTOR('',#1397,10.);
#396=VECTOR('',#1398,1000.);
#397=VECTOR('',#1401,1000.);
#398=VECTOR('',#1404,10.);
#399=VECTOR('',#1407,1000.);
#400=VECTOR('',#1410,10.);
#401=VECTOR('',#1413,1000.);
#402=VECTOR('',#1416,10.);
#403=VECTOR('',#1417,1000.);
#404=VECTOR('',#1420,1000.);
#405=VECTOR('',#1423,10.);
#406=VECTOR('',#1426,1000.);
#407=VECTOR('',#1429,10.);
#408=VECTOR('',#1432,1000.);
#409=VECTOR('',#1435,1000.);
#410=VECTOR('',#1436,1000.);
#411=VECTOR('',#1441,1000.);
#412=VECTOR('',#1442,1000.);
#413=VECTOR('',#1445,1000.);
#414=VECTOR('',#1452,1000.);
#415=VECTOR('',#1453,1000.);
#416=VECTOR('',#1458,1000.);
#417=VECTOR('',#1459,1000.);
#418=VECTOR('',#1462,1000.);
#419=VERTEX_POINT('',#1469);
#420=VERTEX_POINT('',#1470);
#421=VERTEX_POINT('',#1472);
#422=VERTEX_POINT('',#1474);
#423=VERTEX_POINT('',#1478);
#424=VERTEX_POINT('',#1479);
#425=VERTEX_POINT('',#1499);
#426=VERTEX_POINT('',#1510);
#427=VERTEX_POINT('',#1517);
#428=VERTEX_POINT('',#1518);
#429=VERTEX_POINT('',#1520);
#430=VERTEX_POINT('',#1522);
#431=VERTEX_POINT('',#1526);
#432=VERTEX_POINT('',#1527);
#433=VERTEX_POINT('',#1547);
#434=VERTEX_POINT('',#1558);
#435=VERTEX_POINT('',#1568);
#436=VERTEX_POINT('',#1570);
#437=VERTEX_POINT('',#1572);
#438=VERTEX_POINT('',#1574);
#439=VERTEX_POINT('',#1578);
#440=VERTEX_POINT('',#1580);
#441=VERTEX_POINT('',#1583);
#442=VERTEX_POINT('',#1586);
#443=VERTEX_POINT('',#1590);
#444=VERTEX_POINT('',#1594);
#445=VERTEX_POINT('',#1598);
#446=VERTEX_POINT('',#1599);
#447=VERTEX_POINT('',#1601);
#448=VERTEX_POINT('',#1603);
#449=VERTEX_POINT('',#1607);
#450=VERTEX_POINT('',#1609);
#451=VERTEX_POINT('',#1611);
#452=VERTEX_POINT('',#1613);
#453=VERTEX_POINT('',#1615);
#454=VERTEX_POINT('',#1617);
#455=VERTEX_POINT('',#1619);
#456=VERTEX_POINT('',#1621);
#457=VERTEX_POINT('',#1623);
#458=VERTEX_POINT('',#1626);
#459=VERTEX_POINT('',#1630);
#460=VERTEX_POINT('',#1634);
#461=VERTEX_POINT('',#1638);
#462=VERTEX_POINT('',#1645);
#463=VERTEX_POINT('',#1649);
#464=VERTEX_POINT('',#1652);
#465=VERTEX_POINT('',#1655);
#466=VERTEX_POINT('',#1658);
#467=VERTEX_POINT('',#1665);
#468=VERTEX_POINT('',#1674);
#469=VERTEX_POINT('',#1680);
#470=VERTEX_POINT('',#1681);
#471=VERTEX_POINT('',#1683);
#472=VERTEX_POINT('',#1685);
#473=VERTEX_POINT('',#1687);
#474=VERTEX_POINT('',#1689);
#475=VERTEX_POINT('',#1691);
#476=VERTEX_POINT('',#1693);
#477=VERTEX_POINT('',#1695);
#478=VERTEX_POINT('',#1697);
#479=VERTEX_POINT('',#1699);
#480=VERTEX_POINT('',#1701);
#481=VERTEX_POINT('',#1704);
#482=VERTEX_POINT('',#1705);
#483=VERTEX_POINT('',#1707);
#484=VERTEX_POINT('',#1709);
#485=VERTEX_POINT('',#1711);
#486=VERTEX_POINT('',#1713);
#487=VERTEX_POINT('',#1715);
#488=VERTEX_POINT('',#1717);
#489=VERTEX_POINT('',#1719);
#490=VERTEX_POINT('',#1721);
#491=VERTEX_POINT('',#1723);
#492=VERTEX_POINT('',#1725);
#493=VERTEX_POINT('',#1731);
#494=VERTEX_POINT('',#1732);
#495=VERTEX_POINT('',#1734);
#496=VERTEX_POINT('',#1736);
#497=VERTEX_POINT('',#1738);
#498=VERTEX_POINT('',#1740);
#499=VERTEX_POINT('',#1742);
#500=VERTEX_POINT('',#1744);
#501=VERTEX_POINT('',#1746);
#502=VERTEX_POINT('',#1748);
#503=VERTEX_POINT('',#1750);
#504=VERTEX_POINT('',#1752);
#505=VERTEX_POINT('',#1756);
#506=VERTEX_POINT('',#1757);
#507=VERTEX_POINT('',#1759);
#508=VERTEX_POINT('',#1761);
#509=VERTEX_POINT('',#1763);
#510=VERTEX_POINT('',#1765);
#511=VERTEX_POINT('',#1767);
#512=VERTEX_POINT('',#1769);
#513=VERTEX_POINT('',#1771);
#514=VERTEX_POINT('',#1773);
#515=VERTEX_POINT('',#1775);
#516=VERTEX_POINT('',#1777);
#517=EDGE_CURVE('',#419,#420,#203,.F.);
#518=EDGE_CURVE('',#420,#421,#204,.T.);
#519=EDGE_CURVE('',#421,#422,#205,.T.);
#520=EDGE_CURVE('',#422,#419,#206,.T.);
#521=EDGE_CURVE('',#423,#424,#207,.T.);
#522=EDGE_CURVE('',#424,#422,#43,.T.);
#523=EDGE_CURVE('',#421,#423,#44,.T.);
#524=EDGE_CURVE('',#423,#425,#37,.F.);
#525=EDGE_CURVE('',#425,#426,#208,.T.);
#526=EDGE_CURVE('',#426,#424,#38,.T.);
#527=EDGE_CURVE('',#427,#428,#209,.T.);
#528=EDGE_CURVE('',#428,#429,#45,.T.);
#529=EDGE_CURVE('',#429,#430,#210,.T.);
#530=EDGE_CURVE('',#430,#427,#46,.T.);
#531=EDGE_CURVE('',#431,#432,#211,.F.);
#532=EDGE_CURVE('',#432,#430,#212,.T.);
#533=EDGE_CURVE('',#429,#431,#213,.T.);
#534=EDGE_CURVE('',#433,#428,#39,.F.);
#535=EDGE_CURVE('',#427,#434,#40,.T.);
#536=EDGE_CURVE('',#434,#433,#214,.T.);
#537=EDGE_CURVE('',#425,#433,#215,.F.);
#538=EDGE_CURVE('',#434,#426,#216,.T.);
#539=EDGE_CURVE('',#419,#435,#217,.T.);
#540=EDGE_CURVE('',#436,#422,#218,.T.);
#541=EDGE_CURVE('',#437,#436,#219,.T.);
#542=EDGE_CURVE('',#438,#437,#220,.T.);
#543=EDGE_CURVE('',#435,#438,#221,.T.);
#544=EDGE_CURVE('',#439,#428,#222,.F.);
#545=EDGE_CURVE('',#440,#439,#223,.F.);
#546=EDGE_CURVE('',#431,#440,#224,.F.);
#547=EDGE_CURVE('',#441,#441,#47,.T.);
#548=EDGE_CURVE('',#426,#442,#225,.T.);
#549=EDGE_CURVE('',#442,#436,#48,.T.);
#550=EDGE_CURVE('',#443,#434,#226,.T.);
#551=EDGE_CURVE('',#442,#443,#227,.T.);
#552=EDGE_CURVE('',#430,#444,#228,.T.);
#553=EDGE_CURVE('',#444,#443,#49,.T.);
#554=EDGE_CURVE('',#445,#446,#50,.T.);
#555=EDGE_CURVE('',#446,#447,#229,.T.);
#556=EDGE_CURVE('',#447,#448,#51,.T.);
#557=EDGE_CURVE('',#448,#445,#230,.T.);
#558=EDGE_CURVE('',#445,#449,#231,.T.);
#559=EDGE_CURVE('',#450,#449,#52,.T.);
#560=EDGE_CURVE('',#450,#451,#232,.T.);
#561=EDGE_CURVE('',#451,#452,#233,.T.);
#562=EDGE_CURVE('',#452,#453,#234,.T.);
#563=EDGE_CURVE('',#453,#454,#235,.F.);
#564=EDGE_CURVE('',#454,#455,#236,.F.);
#565=EDGE_CURVE('',#455,#456,#237,.F.);
#566=EDGE_CURVE('',#456,#457,#238,.F.);
#567=EDGE_CURVE('',#457,#435,#239,.F.);
#568=EDGE_CURVE('',#438,#458,#240,.T.);
#569=EDGE_CURVE('',#458,#446,#241,.T.);
#570=EDGE_CURVE('',#459,#448,#242,.T.);
#571=EDGE_CURVE('',#449,#459,#243,.T.);
#572=EDGE_CURVE('',#459,#460,#53,.T.);
#573=EDGE_CURVE('',#460,#450,#244,.T.);
#574=EDGE_CURVE('',#457,#461,#245,.T.);
#575=EDGE_CURVE('',#461,#420,#246,.F.);
#576=EDGE_CURVE('',#453,#432,#247,.T.);
#577=EDGE_CURVE('',#454,#440,#248,.F.);
#578=EDGE_CURVE('',#462,#437,#249,.T.);
#579=EDGE_CURVE('',#458,#462,#250,.T.);
#580=EDGE_CURVE('',#463,#461,#251,.F.);
#581=EDGE_CURVE('',#423,#463,#252,.F.);
#582=EDGE_CURVE('',#464,#464,#54,.T.);
#583=EDGE_CURVE('',#465,#465,#55,.T.);
#584=EDGE_CURVE('',#466,#466,#56,.T.);
#585=EDGE_CURVE('',#466,#464,#253,.T.);
#586=EDGE_CURVE('',#465,#441,#254,.T.);
#587=EDGE_CURVE('',#467,#452,#255,.T.);
#588=EDGE_CURVE('',#444,#467,#256,.T.);
#589=EDGE_CURVE('',#455,#439,#257,.F.);
#590=EDGE_CURVE('',#456,#463,#258,.T.);
#591=EDGE_CURVE('',#468,#460,#259,.T.);
#592=EDGE_CURVE('',#468,#451,#260,.T.);
#593=EDGE_CURVE('',#462,#447,#261,.T.);
#594=EDGE_CURVE('',#467,#468,#262,.T.);
#595=EDGE_CURVE('',#469,#470,#263,.T.);
#596=EDGE_CURVE('',#470,#471,#57,.T.);
#597=EDGE_CURVE('',#471,#472,#264,.T.);
#598=EDGE_CURVE('',#472,#473,#58,.T.);
#599=EDGE_CURVE('',#473,#474,#265,.T.);
#600=EDGE_CURVE('',#474,#475,#59,.T.);
#601=EDGE_CURVE('',#475,#476,#266,.T.);
#602=EDGE_CURVE('',#476,#477,#60,.T.);
#603=EDGE_CURVE('',#477,#478,#267,.T.);
#604=EDGE_CURVE('',#478,#479,#61,.T.);
#605=EDGE_CURVE('',#479,#480,#268,.T.);
#606=EDGE_CURVE('',#480,#469,#62,.T.);
#607=EDGE_CURVE('',#481,#482,#269,.T.);
#608=EDGE_CURVE('',#482,#483,#63,.T.);
#609=EDGE_CURVE('',#483,#484,#270,.T.);
#610=EDGE_CURVE('',#484,#485,#64,.T.);
#611=EDGE_CURVE('',#485,#486,#271,.T.);
#612=EDGE_CURVE('',#486,#487,#65,.T.);
#613=EDGE_CURVE('',#487,#488,#272,.T.);
#614=EDGE_CURVE('',#488,#489,#66,.T.);
#615=EDGE_CURVE('',#489,#490,#273,.T.);
#616=EDGE_CURVE('',#490,#491,#67,.T.);
#617=EDGE_CURVE('',#491,#492,#274,.T.);
#618=EDGE_CURVE('',#492,#481,#68,.T.);
#619=EDGE_CURVE('',#493,#494,#275,.T.);
#620=EDGE_CURVE('',#495,#493,#69,.T.);
#621=EDGE_CURVE('',#496,#495,#276,.T.);
#622=EDGE_CURVE('',#497,#496,#70,.T.);
#623=EDGE_CURVE('',#498,#497,#277,.T.);
#624=EDGE_CURVE('',#499,#498,#71,.T.);
#625=EDGE_CURVE('',#500,#499,#278,.T.);
#626=EDGE_CURVE('',#501,#500,#72,.T.);
#627=EDGE_CURVE('',#502,#501,#279,.T.);
#628=EDGE_CURVE('',#503,#502,#73,.T.);
#629=EDGE_CURVE('',#504,#503,#280,.T.);
#630=EDGE_CURVE('',#494,#504,#74,.T.);
#631=EDGE_CURVE('',#505,#506,#281,.T.);
#632=EDGE_CURVE('',#507,#505,#75,.T.);
#633=EDGE_CURVE('',#508,#507,#282,.T.);
#634=EDGE_CURVE('',#509,#508,#76,.T.);
#635=EDGE_CURVE('',#510,#509,#283,.T.);
#636=EDGE_CURVE('',#511,#510,#77,.T.);
#637=EDGE_CURVE('',#512,#511,#284,.T.);
#638=EDGE_CURVE('',#513,#512,#78,.T.);
#639=EDGE_CURVE('',#514,#513,#285,.T.);
#640=EDGE_CURVE('',#515,#514,#79,.T.);
#641=EDGE_CURVE('',#516,#515,#286,.T.);
#642=EDGE_CURVE('',#506,#516,#80,.T.);
#643=EDGE_CURVE('',#490,#499,#287,.T.);
#644=EDGE_CURVE('',#500,#489,#288,.T.);
#645=EDGE_CURVE('',#498,#491,#289,.T.);
#646=EDGE_CURVE('',#492,#497,#290,.T.);
#647=EDGE_CURVE('',#496,#481,#291,.T.);
#648=EDGE_CURVE('',#482,#495,#292,.T.);
#649=EDGE_CURVE('',#493,#483,#293,.T.);
#650=EDGE_CURVE('',#478,#511,#294,.T.);
#651=EDGE_CURVE('',#512,#477,#295,.T.);
#652=EDGE_CURVE('',#510,#479,#296,.T.);
#653=EDGE_CURVE('',#480,#509,#297,.T.);
#654=EDGE_CURVE('',#508,#469,#298,.T.);
#655=EDGE_CURVE('',#470,#507,#299,.T.);
#656=EDGE_CURVE('',#505,#471,#300,.T.);
#657=EDGE_CURVE('',#488,#501,#301,.T.);
#658=EDGE_CURVE('',#502,#487,#302,.T.);
#659=EDGE_CURVE('',#486,#503,#303,.T.);
#660=EDGE_CURVE('',#504,#485,#304,.T.);
#661=EDGE_CURVE('',#484,#494,#305,.T.);
#662=EDGE_CURVE('',#476,#513,#306,.T.);
#663=EDGE_CURVE('',#514,#475,#307,.T.);
#664=EDGE_CURVE('',#474,#515,#308,.T.);
#665=EDGE_CURVE('',#516,#473,#309,.T.);
#666=EDGE_CURVE('',#472,#506,#310,.T.);
#667=ORIENTED_EDGE('',*,*,#517,.T.);
#668=ORIENTED_EDGE('',*,*,#518,.T.);
#669=ORIENTED_EDGE('',*,*,#519,.T.);
#670=ORIENTED_EDGE('',*,*,#520,.T.);
#671=ORIENTED_EDGE('',*,*,#521,.T.);
#672=ORIENTED_EDGE('',*,*,#522,.T.);
#673=ORIENTED_EDGE('',*,*,#519,.F.);
#674=ORIENTED_EDGE('',*,*,#523,.T.);
#675=ORIENTED_EDGE('',*,*,#524,.T.);
#676=ORIENTED_EDGE('',*,*,#525,.T.);
#677=ORIENTED_EDGE('',*,*,#526,.T.);
#678=ORIENTED_EDGE('',*,*,#521,.F.);
#679=ORIENTED_EDGE('',*,*,#527,.T.);
#680=ORIENTED_EDGE('',*,*,#528,.T.);
#681=ORIENTED_EDGE('',*,*,#529,.T.);
#682=ORIENTED_EDGE('',*,*,#530,.T.);
#683=ORIENTED_EDGE('',*,*,#531,.T.);
#684=ORIENTED_EDGE('',*,*,#532,.T.);
#685=ORIENTED_EDGE('',*,*,#529,.F.);
#686=ORIENTED_EDGE('',*,*,#533,.T.);
#687=ORIENTED_EDGE('',*,*,#534,.T.);
#688=ORIENTED_EDGE('',*,*,#527,.F.);
#689=ORIENTED_EDGE('',*,*,#535,.T.);
#690=ORIENTED_EDGE('',*,*,#536,.T.);
#691=ORIENTED_EDGE('',*,*,#537,.T.);
#692=ORIENTED_EDGE('',*,*,#536,.F.);
#693=ORIENTED_EDGE('',*,*,#538,.T.);
#694=ORIENTED_EDGE('',*,*,#525,.F.);
#695=ORIENTED_EDGE('',*,*,#539,.F.);
#696=ORIENTED_EDGE('',*,*,#520,.F.);
#697=ORIENTED_EDGE('',*,*,#540,.F.);
#698=ORIENTED_EDGE('',*,*,#541,.F.);
#699=ORIENTED_EDGE('',*,*,#542,.F.);
#700=ORIENTED_EDGE('',*,*,#543,.F.);
#701=ORIENTED_EDGE('',*,*,#528,.F.);
#702=ORIENTED_EDGE('',*,*,#544,.F.);
#703=ORIENTED_EDGE('',*,*,#545,.F.);
#704=ORIENTED_EDGE('',*,*,#546,.F.);
#705=ORIENTED_EDGE('',*,*,#533,.F.);
#706=ORIENTED_EDGE('',*,*,#547,.T.);
#707=ORIENTED_EDGE('',*,*,#522,.F.);
#708=ORIENTED_EDGE('',*,*,#526,.F.);
#709=ORIENTED_EDGE('',*,*,#548,.T.);
#710=ORIENTED_EDGE('',*,*,#549,.T.);
#711=ORIENTED_EDGE('',*,*,#540,.T.);
#712=ORIENTED_EDGE('',*,*,#538,.F.);
#713=ORIENTED_EDGE('',*,*,#550,.F.);
#714=ORIENTED_EDGE('',*,*,#551,.F.);
#715=ORIENTED_EDGE('',*,*,#548,.F.);
#716=ORIENTED_EDGE('',*,*,#535,.F.);
#717=ORIENTED_EDGE('',*,*,#530,.F.);
#718=ORIENTED_EDGE('',*,*,#552,.T.);
#719=ORIENTED_EDGE('',*,*,#553,.T.);
#720=ORIENTED_EDGE('',*,*,#550,.T.);
#721=ORIENTED_EDGE('',*,*,#554,.T.);
#722=ORIENTED_EDGE('',*,*,#555,.T.);
#723=ORIENTED_EDGE('',*,*,#556,.T.);
#724=ORIENTED_EDGE('',*,*,#557,.T.);
#725=ORIENTED_EDGE('',*,*,#554,.F.);
#726=ORIENTED_EDGE('',*,*,#558,.T.);
#727=ORIENTED_EDGE('',*,*,#559,.F.);
#728=ORIENTED_EDGE('',*,*,#560,.T.);
#729=ORIENTED_EDGE('',*,*,#561,.T.);
#730=ORIENTED_EDGE('',*,*,#562,.T.);
#731=ORIENTED_EDGE('',*,*,#563,.T.);
#732=ORIENTED_EDGE('',*,*,#564,.T.);
#733=ORIENTED_EDGE('',*,*,#565,.T.);
#734=ORIENTED_EDGE('',*,*,#566,.T.);
#735=ORIENTED_EDGE('',*,*,#567,.T.);
#736=ORIENTED_EDGE('',*,*,#543,.T.);
#737=ORIENTED_EDGE('',*,*,#568,.T.);
#738=ORIENTED_EDGE('',*,*,#569,.T.);
#739=ORIENTED_EDGE('',*,*,#557,.F.);
#740=ORIENTED_EDGE('',*,*,#570,.F.);
#741=ORIENTED_EDGE('',*,*,#571,.F.);
#742=ORIENTED_EDGE('',*,*,#558,.F.);
#743=ORIENTED_EDGE('',*,*,#572,.T.);
#744=ORIENTED_EDGE('',*,*,#573,.T.);
#745=ORIENTED_EDGE('',*,*,#559,.T.);
#746=ORIENTED_EDGE('',*,*,#571,.T.);
#747=ORIENTED_EDGE('',*,*,#539,.T.);
#748=ORIENTED_EDGE('',*,*,#567,.F.);
#749=ORIENTED_EDGE('',*,*,#574,.T.);
#750=ORIENTED_EDGE('',*,*,#575,.T.);
#751=ORIENTED_EDGE('',*,*,#517,.F.);
#752=ORIENTED_EDGE('',*,*,#576,.T.);
#753=ORIENTED_EDGE('',*,*,#531,.F.);
#754=ORIENTED_EDGE('',*,*,#546,.T.);
#755=ORIENTED_EDGE('',*,*,#577,.F.);
#756=ORIENTED_EDGE('',*,*,#563,.F.);
#757=ORIENTED_EDGE('',*,*,#542,.T.);
#758=ORIENTED_EDGE('',*,*,#578,.F.);
#759=ORIENTED_EDGE('',*,*,#579,.F.);
#760=ORIENTED_EDGE('',*,*,#568,.F.);
#761=ORIENTED_EDGE('',*,*,#518,.F.);
#762=ORIENTED_EDGE('',*,*,#575,.F.);
#763=ORIENTED_EDGE('',*,*,#580,.F.);
#764=ORIENTED_EDGE('',*,*,#581,.F.);
#765=ORIENTED_EDGE('',*,*,#523,.F.);
#766=ORIENTED_EDGE('',*,*,#582,.T.);
#767=ORIENTED_EDGE('',*,*,#583,.F.);
#768=ORIENTED_EDGE('',*,*,#584,.F.);
#769=ORIENTED_EDGE('',*,*,#584,.T.);
#770=ORIENTED_EDGE('',*,*,#585,.T.);
#771=ORIENTED_EDGE('',*,*,#582,.F.);
#772=ORIENTED_EDGE('',*,*,#585,.F.);
#773=ORIENTED_EDGE('',*,*,#583,.T.);
#774=ORIENTED_EDGE('',*,*,#586,.T.);
#775=ORIENTED_EDGE('',*,*,#547,.F.);
#776=ORIENTED_EDGE('',*,*,#586,.F.);
#777=ORIENTED_EDGE('',*,*,#576,.F.);
#778=ORIENTED_EDGE('',*,*,#562,.F.);
#779=ORIENTED_EDGE('',*,*,#587,.F.);
#780=ORIENTED_EDGE('',*,*,#588,.F.);
#781=ORIENTED_EDGE('',*,*,#552,.F.);
#782=ORIENTED_EDGE('',*,*,#532,.F.);
#783=ORIENTED_EDGE('',*,*,#565,.F.);
#784=ORIENTED_EDGE('',*,*,#589,.T.);
#785=ORIENTED_EDGE('',*,*,#544,.T.);
#786=ORIENTED_EDGE('',*,*,#534,.F.);
#787=ORIENTED_EDGE('',*,*,#537,.F.);
#788=ORIENTED_EDGE('',*,*,#524,.F.);
#789=ORIENTED_EDGE('',*,*,#581,.T.);
#790=ORIENTED_EDGE('',*,*,#590,.F.);
#791=ORIENTED_EDGE('',*,*,#566,.F.);
#792=ORIENTED_EDGE('',*,*,#590,.T.);
#793=ORIENTED_EDGE('',*,*,#580,.T.);
#794=ORIENTED_EDGE('',*,*,#574,.F.);
#795=ORIENTED_EDGE('',*,*,#564,.F.);
#796=ORIENTED_EDGE('',*,*,#577,.T.);
#797=ORIENTED_EDGE('',*,*,#545,.T.);
#798=ORIENTED_EDGE('',*,*,#589,.F.);
#799=ORIENTED_EDGE('',*,*,#573,.F.);
#800=ORIENTED_EDGE('',*,*,#591,.F.);
#801=ORIENTED_EDGE('',*,*,#592,.T.);
#802=ORIENTED_EDGE('',*,*,#560,.F.);
#803=ORIENTED_EDGE('',*,*,#556,.F.);
#804=ORIENTED_EDGE('',*,*,#593,.F.);
#805=ORIENTED_EDGE('',*,*,#578,.T.);
#806=ORIENTED_EDGE('',*,*,#541,.T.);
#807=ORIENTED_EDGE('',*,*,#549,.F.);
#808=ORIENTED_EDGE('',*,*,#551,.T.);
#809=ORIENTED_EDGE('',*,*,#553,.F.);
#810=ORIENTED_EDGE('',*,*,#588,.T.);
#811=ORIENTED_EDGE('',*,*,#594,.T.);
#812=ORIENTED_EDGE('',*,*,#591,.T.);
#813=ORIENTED_EDGE('',*,*,#572,.F.);
#814=ORIENTED_EDGE('',*,*,#570,.T.);
#815=ORIENTED_EDGE('',*,*,#595,.T.);
#816=ORIENTED_EDGE('',*,*,#596,.T.);
#817=ORIENTED_EDGE('',*,*,#597,.T.);
#818=ORIENTED_EDGE('',*,*,#598,.T.);
#819=ORIENTED_EDGE('',*,*,#599,.T.);
#820=ORIENTED_EDGE('',*,*,#600,.T.);
#821=ORIENTED_EDGE('',*,*,#601,.T.);
#822=ORIENTED_EDGE('',*,*,#602,.T.);
#823=ORIENTED_EDGE('',*,*,#603,.T.);
#824=ORIENTED_EDGE('',*,*,#604,.T.);
#825=ORIENTED_EDGE('',*,*,#605,.T.);
#826=ORIENTED_EDGE('',*,*,#606,.T.);
#827=ORIENTED_EDGE('',*,*,#607,.T.);
#828=ORIENTED_EDGE('',*,*,#608,.T.);
#829=ORIENTED_EDGE('',*,*,#609,.T.);
#830=ORIENTED_EDGE('',*,*,#610,.T.);
#831=ORIENTED_EDGE('',*,*,#611,.T.);
#832=ORIENTED_EDGE('',*,*,#612,.T.);
#833=ORIENTED_EDGE('',*,*,#613,.T.);
#834=ORIENTED_EDGE('',*,*,#614,.T.);
#835=ORIENTED_EDGE('',*,*,#615,.T.);
#836=ORIENTED_EDGE('',*,*,#616,.T.);
#837=ORIENTED_EDGE('',*,*,#617,.T.);
#838=ORIENTED_EDGE('',*,*,#618,.T.);
#839=ORIENTED_EDGE('',*,*,#587,.T.);
#840=ORIENTED_EDGE('',*,*,#561,.F.);
#841=ORIENTED_EDGE('',*,*,#592,.F.);
#842=ORIENTED_EDGE('',*,*,#594,.F.);
#843=ORIENTED_EDGE('',*,*,#555,.F.);
#844=ORIENTED_EDGE('',*,*,#569,.F.);
#845=ORIENTED_EDGE('',*,*,#579,.T.);
#846=ORIENTED_EDGE('',*,*,#593,.T.);
#847=ORIENTED_EDGE('',*,*,#619,.F.);
#848=ORIENTED_EDGE('',*,*,#620,.F.);
#849=ORIENTED_EDGE('',*,*,#621,.F.);
#850=ORIENTED_EDGE('',*,*,#622,.F.);
#851=ORIENTED_EDGE('',*,*,#623,.F.);
#852=ORIENTED_EDGE('',*,*,#624,.F.);
#853=ORIENTED_EDGE('',*,*,#625,.F.);
#854=ORIENTED_EDGE('',*,*,#626,.F.);
#855=ORIENTED_EDGE('',*,*,#627,.F.);
#856=ORIENTED_EDGE('',*,*,#628,.F.);
#857=ORIENTED_EDGE('',*,*,#629,.F.);
#858=ORIENTED_EDGE('',*,*,#630,.F.);
#859=ORIENTED_EDGE('',*,*,#631,.F.);
#860=ORIENTED_EDGE('',*,*,#632,.F.);
#861=ORIENTED_EDGE('',*,*,#633,.F.);
#862=ORIENTED_EDGE('',*,*,#634,.F.);
#863=ORIENTED_EDGE('',*,*,#635,.F.);
#864=ORIENTED_EDGE('',*,*,#636,.F.);
#865=ORIENTED_EDGE('',*,*,#637,.F.);
#866=ORIENTED_EDGE('',*,*,#638,.F.);
#867=ORIENTED_EDGE('',*,*,#639,.F.);
#868=ORIENTED_EDGE('',*,*,#640,.F.);
#869=ORIENTED_EDGE('',*,*,#641,.F.);
#870=ORIENTED_EDGE('',*,*,#642,.F.);
#871=ORIENTED_EDGE('',*,*,#643,.F.);
#872=ORIENTED_EDGE('',*,*,#615,.F.);
#873=ORIENTED_EDGE('',*,*,#644,.F.);
#874=ORIENTED_EDGE('',*,*,#625,.T.);
#875=ORIENTED_EDGE('',*,*,#645,.T.);
#876=ORIENTED_EDGE('',*,*,#616,.F.);
#877=ORIENTED_EDGE('',*,*,#643,.T.);
#878=ORIENTED_EDGE('',*,*,#624,.T.);
#879=ORIENTED_EDGE('',*,*,#646,.F.);
#880=ORIENTED_EDGE('',*,*,#617,.F.);
#881=ORIENTED_EDGE('',*,*,#645,.F.);
#882=ORIENTED_EDGE('',*,*,#623,.T.);
#883=ORIENTED_EDGE('',*,*,#647,.T.);
#884=ORIENTED_EDGE('',*,*,#618,.F.);
#885=ORIENTED_EDGE('',*,*,#646,.T.);
#886=ORIENTED_EDGE('',*,*,#622,.T.);
#887=ORIENTED_EDGE('',*,*,#648,.F.);
#888=ORIENTED_EDGE('',*,*,#607,.F.);
#889=ORIENTED_EDGE('',*,*,#647,.F.);
#890=ORIENTED_EDGE('',*,*,#621,.T.);
#891=ORIENTED_EDGE('',*,*,#649,.T.);
#892=ORIENTED_EDGE('',*,*,#608,.F.);
#893=ORIENTED_EDGE('',*,*,#648,.T.);
#894=ORIENTED_EDGE('',*,*,#620,.T.);
#895=ORIENTED_EDGE('',*,*,#650,.F.);
#896=ORIENTED_EDGE('',*,*,#603,.F.);
#897=ORIENTED_EDGE('',*,*,#651,.F.);
#898=ORIENTED_EDGE('',*,*,#637,.T.);
#899=ORIENTED_EDGE('',*,*,#652,.T.);
#900=ORIENTED_EDGE('',*,*,#604,.F.);
#901=ORIENTED_EDGE('',*,*,#650,.T.);
#902=ORIENTED_EDGE('',*,*,#636,.T.);
#903=ORIENTED_EDGE('',*,*,#653,.F.);
#904=ORIENTED_EDGE('',*,*,#605,.F.);
#905=ORIENTED_EDGE('',*,*,#652,.F.);
#906=ORIENTED_EDGE('',*,*,#635,.T.);
#907=ORIENTED_EDGE('',*,*,#654,.T.);
#908=ORIENTED_EDGE('',*,*,#606,.F.);
#909=ORIENTED_EDGE('',*,*,#653,.T.);
#910=ORIENTED_EDGE('',*,*,#634,.T.);
#911=ORIENTED_EDGE('',*,*,#655,.F.);
#912=ORIENTED_EDGE('',*,*,#595,.F.);
#913=ORIENTED_EDGE('',*,*,#654,.F.);
#914=ORIENTED_EDGE('',*,*,#633,.T.);
#915=ORIENTED_EDGE('',*,*,#656,.T.);
#916=ORIENTED_EDGE('',*,*,#596,.F.);
#917=ORIENTED_EDGE('',*,*,#655,.T.);
#918=ORIENTED_EDGE('',*,*,#632,.T.);
#919=ORIENTED_EDGE('',*,*,#657,.F.);
#920=ORIENTED_EDGE('',*,*,#613,.F.);
#921=ORIENTED_EDGE('',*,*,#658,.F.);
#922=ORIENTED_EDGE('',*,*,#627,.T.);
#923=ORIENTED_EDGE('',*,*,#644,.T.);
#924=ORIENTED_EDGE('',*,*,#614,.F.);
#925=ORIENTED_EDGE('',*,*,#657,.T.);
#926=ORIENTED_EDGE('',*,*,#626,.T.);
#927=ORIENTED_EDGE('',*,*,#659,.F.);
#928=ORIENTED_EDGE('',*,*,#611,.F.);
#929=ORIENTED_EDGE('',*,*,#660,.F.);
#930=ORIENTED_EDGE('',*,*,#629,.T.);
#931=ORIENTED_EDGE('',*,*,#661,.F.);
#932=ORIENTED_EDGE('',*,*,#609,.F.);
#933=ORIENTED_EDGE('',*,*,#649,.F.);
#934=ORIENTED_EDGE('',*,*,#619,.T.);
#935=ORIENTED_EDGE('',*,*,#660,.T.);
#936=ORIENTED_EDGE('',*,*,#610,.F.);
#937=ORIENTED_EDGE('',*,*,#661,.T.);
#938=ORIENTED_EDGE('',*,*,#630,.T.);
#939=ORIENTED_EDGE('',*,*,#658,.T.);
#940=ORIENTED_EDGE('',*,*,#612,.F.);
#941=ORIENTED_EDGE('',*,*,#659,.T.);
#942=ORIENTED_EDGE('',*,*,#628,.T.);
#943=ORIENTED_EDGE('',*,*,#662,.F.);
#944=ORIENTED_EDGE('',*,*,#601,.F.);
#945=ORIENTED_EDGE('',*,*,#663,.F.);
#946=ORIENTED_EDGE('',*,*,#639,.T.);
#947=ORIENTED_EDGE('',*,*,#651,.T.);
#948=ORIENTED_EDGE('',*,*,#602,.F.);
#949=ORIENTED_EDGE('',*,*,#662,.T.);
#950=ORIENTED_EDGE('',*,*,#638,.T.);
#951=ORIENTED_EDGE('',*,*,#664,.F.);
#952=ORIENTED_EDGE('',*,*,#599,.F.);
#953=ORIENTED_EDGE('',*,*,#665,.F.);
#954=ORIENTED_EDGE('',*,*,#641,.T.);
#955=ORIENTED_EDGE('',*,*,#666,.F.);
#956=ORIENTED_EDGE('',*,*,#597,.F.);
#957=ORIENTED_EDGE('',*,*,#656,.F.);
#958=ORIENTED_EDGE('',*,*,#631,.T.);
#959=ORIENTED_EDGE('',*,*,#665,.T.);
#960=ORIENTED_EDGE('',*,*,#598,.F.);
#961=ORIENTED_EDGE('',*,*,#666,.T.);
#962=ORIENTED_EDGE('',*,*,#642,.T.);
#963=ORIENTED_EDGE('',*,*,#663,.T.);
#964=ORIENTED_EDGE('',*,*,#600,.F.);
#965=ORIENTED_EDGE('',*,*,#664,.T.);
#966=ORIENTED_EDGE('',*,*,#640,.T.);
#967=PLANE('',#1075);
#968=PLANE('',#1082);
#969=PLANE('',#1083);
#970=PLANE('',#1084);
#971=PLANE('',#1085);
#972=PLANE('',#1089);
#973=PLANE('',#1095);
#974=PLANE('',#1097);
#975=PLANE('',#1100);
#976=PLANE('',#1101);
#977=PLANE('',#1102);
#978=PLANE('',#1103);
#979=PLANE('',#1105);
#980=PLANE('',#1107);
#981=PLANE('',#1111);
#982=PLANE('',#1112);
#983=PLANE('',#1113);
#984=PLANE('',#1114);
#985=PLANE('',#1115);
#986=PLANE('',#1116);
#987=PLANE('',#1129);
#988=PLANE('',#1130);
#989=PLANE('',#1131);
#990=PLANE('',#1138);
#991=PLANE('',#1145);
#992=PLANE('',#1147);
#993=PLANE('',#1149);
#994=PLANE('',#1151);
#995=PLANE('',#1153);
#996=PLANE('',#1155);
#997=PLANE('',#1157);
#998=PLANE('',#1159);
#999=PLANE('',#1160);
#1000=PLANE('',#1163);
#1001=PLANE('',#1165);
#1002=PLANE('',#1166);
#1003=ADVANCED_FACE('',(#83),#967,.T.);
#1004=ADVANCED_FACE('',(#84),#81,.F.);
#1005=ADVANCED_FACE('',(#85),#41,.T.);
#1006=ADVANCED_FACE('',(#86),#82,.F.);
#1007=ADVANCED_FACE('',(#87),#968,.T.);
#1008=ADVANCED_FACE('',(#88),#42,.T.);
#1009=ADVANCED_FACE('',(#89),#969,.T.);
#1010=ADVANCED_FACE('',(#90),#970,.F.);
#1011=ADVANCED_FACE('',(#91,#33),#971,.F.);
#1012=ADVANCED_FACE('',(#92),#15,.F.);
#1013=ADVANCED_FACE('',(#93),#972,.F.);
#1014=ADVANCED_FACE('',(#94),#16,.F.);
#1015=ADVANCED_FACE('',(#95),#17,.T.);
#1016=ADVANCED_FACE('',(#96),#973,.F.);
#1017=ADVANCED_FACE('',(#97),#974,.F.);
#1018=ADVANCED_FACE('',(#98),#18,.T.);
#1019=ADVANCED_FACE('',(#99),#975,.F.);
#1020=ADVANCED_FACE('',(#100),#976,.F.);
#1021=ADVANCED_FACE('',(#101),#977,.F.);
#1022=ADVANCED_FACE('',(#102,#34),#978,.F.);
#1023=ADVANCED_FACE('',(#103),#979,.F.);
#1024=ADVANCED_FACE('',(#104),#980,.F.);
#1025=ADVANCED_FACE('',(#105),#19,.F.);
#1026=ADVANCED_FACE('',(#106),#20,.F.);
#1027=ADVANCED_FACE('',(#107),#981,.F.);
#1028=ADVANCED_FACE('',(#108),#982,.F.);
#1029=ADVANCED_FACE('',(#109),#983,.F.);
#1030=ADVANCED_FACE('',(#110),#984,.F.);
#1031=ADVANCED_FACE('',(#111),#985,.T.);
#1032=ADVANCED_FACE('',(#112,#35,#36),#986,.T.);
#1033=ADVANCED_FACE('',(#113),#987,.F.);
#1034=ADVANCED_FACE('',(#114),#988,.T.);
#1035=ADVANCED_FACE('',(#115),#989,.T.);
#1036=ADVANCED_FACE('',(#116),#990,.T.);
#1037=ADVANCED_FACE('',(#117),#991,.T.);
#1038=ADVANCED_FACE('',(#118),#21,.F.);
#1039=ADVANCED_FACE('',(#119),#992,.T.);
#1040=ADVANCED_FACE('',(#120),#22,.F.);
#1041=ADVANCED_FACE('',(#121),#993,.T.);
#1042=ADVANCED_FACE('',(#122),#23,.F.);
#1043=ADVANCED_FACE('',(#123),#994,.T.);
#1044=ADVANCED_FACE('',(#124),#24,.F.);
#1045=ADVANCED_FACE('',(#125),#995,.T.);
#1046=ADVANCED_FACE('',(#126),#25,.F.);
#1047=ADVANCED_FACE('',(#127),#996,.T.);
#1048=ADVANCED_FACE('',(#128),#26,.F.);
#1049=ADVANCED_FACE('',(#129),#997,.T.);
#1050=ADVANCED_FACE('',(#130),#27,.F.);
#1051=ADVANCED_FACE('',(#131),#998,.T.);
#1052=ADVANCED_FACE('',(#132),#999,.T.);
#1053=ADVANCED_FACE('',(#133),#28,.F.);
#1054=ADVANCED_FACE('',(#134),#29,.F.);
#1055=ADVANCED_FACE('',(#135),#1000,.T.);
#1056=ADVANCED_FACE('',(#136),#30,.F.);
#1057=ADVANCED_FACE('',(#137),#1001,.T.);
#1058=ADVANCED_FACE('',(#138),#1002,.T.);
#1059=ADVANCED_FACE('',(#139),#31,.F.);
#1060=ADVANCED_FACE('',(#140),#32,.F.);
#1061=CLOSED_SHELL('',(#1003,#1004,#1005,#1006,#1007,#1008,#1009,#1010,
#1011,#1012,#1013,#1014,#1015,#1016,#1017,#1018,#1019,#1020,#1021,#1022,
#1023,#1024,#1025,#1026,#1027,#1028,#1029,#1030,#1031,#1032,#1033,#1034,
#1035,#1036,#1037,#1038,#1039,#1040,#1041,#1042,#1043,#1044,#1045,#1046,
#1047,#1048,#1049,#1050,#1051,#1052,#1053,#1054,#1055,#1056,#1057,#1058,
#1059,#1060));
#1062=DERIVED_UNIT_ELEMENT(#1064,1.);
#1063=DERIVED_UNIT_ELEMENT(#1833,-3.);
#1064=(
MASS_UNIT()
NAMED_UNIT(*)
SI_UNIT(.KILO.,.GRAM.)
);
#1065=DERIVED_UNIT((#1062,#1063));
#1066=MEASURE_REPRESENTATION_ITEM('density measure',
POSITIVE_RATIO_MEASURE(7850.),#1065);
#1067=PROPERTY_DEFINITION_REPRESENTATION(#1072,#1069);
#1068=PROPERTY_DEFINITION_REPRESENTATION(#1073,#1070);
#1069=REPRESENTATION('material name',(#1071),#1830);
#1070=REPRESENTATION('density',(#1066),#1830);
#1071=DESCRIPTIVE_REPRESENTATION_ITEM('Steel','Steel');
#1072=PROPERTY_DEFINITION('material property','material name',#1840);
#1073=PROPERTY_DEFINITION('material property','density of part',#1840);
#1074=AXIS2_PLACEMENT_3D('',#1467,#1169,#1170);
#1075=AXIS2_PLACEMENT_3D('',#1468,#1171,#1172);
#1076=AXIS2_PLACEMENT_3D('',#1477,#1177,#1178);
#1077=AXIS2_PLACEMENT_3D('',#1481,#1180,#1181);
#1078=AXIS2_PLACEMENT_3D('',#1482,#1182,#1183);
#1079=AXIS2_PLACEMENT_3D('',#1516,#1185,#1186);
#1080=AXIS2_PLACEMENT_3D('',#1521,#1188,#1189);
#1081=AXIS2_PLACEMENT_3D('',#1524,#1191,#1192);
#1082=AXIS2_PLACEMENT_3D('',#1525,#1193,#1194);
#1083=AXIS2_PLACEMENT_3D('',#1564,#1199,#1200);
#1084=AXIS2_PLACEMENT_3D('',#1567,#1203,#1204);
#1085=AXIS2_PLACEMENT_3D('',#1577,#1210,#1211);
#1086=AXIS2_PLACEMENT_3D('',#1584,#1215,#1216);
#1087=AXIS2_PLACEMENT_3D('',#1585,#1217,#1218);
#1088=AXIS2_PLACEMENT_3D('',#1588,#1220,#1221);
#1089=AXIS2_PLACEMENT_3D('',#1589,#1222,#1223);
#1090=AXIS2_PLACEMENT_3D('',#1593,#1226,#1227);
#1091=AXIS2_PLACEMENT_3D('',#1596,#1229,#1230);
#1092=AXIS2_PLACEMENT_3D('',#1597,#1231,#1232);
#1093=AXIS2_PLACEMENT_3D('',#1600,#1233,#1234);
#1094=AXIS2_PLACEMENT_3D('',#1604,#1236,#1237);
#1095=AXIS2_PLACEMENT_3D('',#1606,#1239,#1240);
#1096=AXIS2_PLACEMENT_3D('',#1610,#1242,#1243);
#1097=AXIS2_PLACEMENT_3D('',#1629,#1254,#1255);
#1098=AXIS2_PLACEMENT_3D('',#1633,#1258,#1259);
#1099=AXIS2_PLACEMENT_3D('',#1635,#1260,#1261);
#1100=AXIS2_PLACEMENT_3D('',#1637,#1263,#1264);
#1101=AXIS2_PLACEMENT_3D('',#1641,#1267,#1268);
#1102=AXIS2_PLACEMENT_3D('',#1644,#1271,#1272);
#1103=AXIS2_PLACEMENT_3D('',#1648,#1275,#1276);
#1104=AXIS2_PLACEMENT_3D('',#1653,#1279,#1280);
#1105=AXIS2_PLACEMENT_3D('',#1654,#1281,#1282);
#1106=AXIS2_PLACEMENT_3D('',#1656,#1283,#1284);
#1107=AXIS2_PLACEMENT_3D('',#1657,#1285,#1286);
#1108=AXIS2_PLACEMENT_3D('',#1659,#1287,#1288);
#1109=AXIS2_PLACEMENT_3D('',#1660,#1289,#1290);
#1110=AXIS2_PLACEMENT_3D('',#1662,#1292,#1293);
#1111=AXIS2_PLACEMENT_3D('',#1664,#1295,#1296);
#1112=AXIS2_PLACEMENT_3D('',#1668,#1299,#1300);
#1113=AXIS2_PLACEMENT_3D('',#1671,#1303,#1304);
#1114=AXIS2_PLACEMENT_3D('',#1672,#1305,#1306);
#1115=AXIS2_PLACEMENT_3D('',#1673,#1307,#1308);
#1116=AXIS2_PLACEMENT_3D('',#1677,#1311,#1312);
#1117=AXIS2_PLACEMENT_3D('',#1684,#1316,#1317);
#1118=AXIS2_PLACEMENT_3D('',#1688,#1319,#1320);
#1119=AXIS2_PLACEMENT_3D('',#1692,#1322,#1323);
#1120=AXIS2_PLACEMENT_3D('',#1696,#1325,#1326);
#1121=AXIS2_PLACEMENT_3D('',#1700,#1328,#1329);
#1122=AXIS2_PLACEMENT_3D('',#1703,#1331,#1332);
#1123=AXIS2_PLACEMENT_3D('',#1708,#1334,#1335);
#1124=AXIS2_PLACEMENT_3D('',#1712,#1337,#1338);
#1125=AXIS2_PLACEMENT_3D('',#1716,#1340,#1341);
#1126=AXIS2_PLACEMENT_3D('',#1720,#1343,#1344);
#1127=AXIS2_PLACEMENT_3D('',#1724,#1346,#1347);
#1128=AXIS2_PLACEMENT_3D('',#1727,#1349,#1350);
#1129=AXIS2_PLACEMENT_3D('',#1728,#1351,#1352);
#1130=AXIS2_PLACEMENT_3D('',#1729,#1353,#1354);
#1131=AXIS2_PLACEMENT_3D('',#1730,#1355,#1356);
#1132=AXIS2_PLACEMENT_3D('',#1735,#1358,#1359);
#1133=AXIS2_PLACEMENT_3D('',#1739,#1361,#1362);
#1134=AXIS2_PLACEMENT_3D('',#1743,#1364,#1365);
#1135=AXIS2_PLACEMENT_3D('',#1747,#1367,#1368);
#1136=AXIS2_PLACEMENT_3D('',#1751,#1370,#1371);
#1137=AXIS2_PLACEMENT_3D('',#1754,#1373,#1374);
#1138=AXIS2_PLACEMENT_3D('',#1755,#1375,#1376);
#1139=AXIS2_PLACEMENT_3D('',#1760,#1378,#1379);
#1140=AXIS2_PLACEMENT_3D('',#1764,#1381,#1382);
#1141=AXIS2_PLACEMENT_3D('',#1768,#1384,#1385);
#1142=AXIS2_PLACEMENT_3D('',#1772,#1387,#1388);
#1143=AXIS2_PLACEMENT_3D('',#1776,#1390,#1391);
#1144=AXIS2_PLACEMENT_3D('',#1779,#1393,#1394);
#1145=AXIS2_PLACEMENT_3D('',#1780,#1395,#1396);
#1146=AXIS2_PLACEMENT_3D('',#1783,#1399,#1400);
#1147=AXIS2_PLACEMENT_3D('',#1785,#1402,#1403);
#1148=AXIS2_PLACEMENT_3D('',#1787,#1405,#1406);
#1149=AXIS2_PLACEMENT_3D('',#1789,#1408,#1409);
#1150=AXIS2_PLACEMENT_3D('',#1791,#1411,#1412);
#1151=AXIS2_PLACEMENT_3D('',#1793,#1414,#1415);
#1152=AXIS2_PLACEMENT_3D('',#1796,#1418,#1419);
#1153=AXIS2_PLACEMENT_3D('',#1798,#1421,#1422);
#1154=AXIS2_PLACEMENT_3D('',#1800,#1424,#1425);
#1155=AXIS2_PLACEMENT_3D('',#1802,#1427,#1428);
#1156=AXIS2_PLACEMENT_3D('',#1804,#1430,#1431);
#1157=AXIS2_PLACEMENT_3D('',#1806,#1433,#1434);
#1158=AXIS2_PLACEMENT_3D('',#1809,#1437,#1438);
#1159=AXIS2_PLACEMENT_3D('',#1810,#1439,#1440);
#1160=AXIS2_PLACEMENT_3D('',#1813,#1443,#1444);
#1161=AXIS2_PLACEMENT_3D('',#1815,#1446,#1447);
#1162=AXIS2_PLACEMENT_3D('',#1816,#1448,#1449);
#1163=AXIS2_PLACEMENT_3D('',#1817,#1450,#1451);
#1164=AXIS2_PLACEMENT_3D('',#1820,#1454,#1455);
#1165=AXIS2_PLACEMENT_3D('',#1821,#1456,#1457);
#1166=AXIS2_PLACEMENT_3D('',#1824,#1460,#1461);
#1167=AXIS2_PLACEMENT_3D('',#1826,#1463,#1464);
#1168=AXIS2_PLACEMENT_3D('',#1827,#1465,#1466);
#1169=DIRECTION('axis',(0.,0.,1.));
#1170=DIRECTION('refdir',(1.,0.,0.));
#1171=DIRECTION('center_axis',(0.707106781186547,0.707106781186548,-1.2433801139465E-47));
#1172=DIRECTION('ref_axis',(-1.75840502032814E-47,0.,-1.));
#1173=DIRECTION('',(0.707106781186548,-0.707106781186547,0.));
#1174=DIRECTION('',(0.,1.75840502032814E-47,1.));
#1175=DIRECTION('',(0.707106781186548,-0.707106781186547,0.));
#1176=DIRECTION('',(0.,-1.75840502032814E-47,-1.));
#1177=DIRECTION('center_axis',(0.,1.,0.));
#1178=DIRECTION('ref_axis',(-0.707106781186547,7.91241890693227E-48,0.707106781186548));
#1179=DIRECTION('',(0.207441558035029,-0.707106781186547,-0.67599408281434));
#1180=DIRECTION('center_axis',(0.,-1.,1.75840502032814E-47));
#1181=DIRECTION('ref_axis',(-0.707106781186547,0.,0.707106781186548));
#1182=DIRECTION('center_axis',(0.,1.,-1.75840502032814E-47));
#1183=DIRECTION('ref_axis',(-0.707106781186547,1.2433801139465E-47,0.707106781186548));
#1184=DIRECTION('',(0.,-0.707106781186547,-0.707106781186548));
#1185=DIRECTION('center_axis',(0.,1.,0.));
#1186=DIRECTION('ref_axis',(0.707106781186547,7.91241890693227E-48,0.707106781186548));
#1187=DIRECTION('',(0.207441558035029,0.707106781186547,0.67599408281434));
#1188=DIRECTION('center_axis',(0.,1.,-1.75840502032814E-47));
#1189=DIRECTION('ref_axis',(0.707106781186547,1.2433801139465E-47,0.707106781186548));
#1190=DIRECTION('',(-0.707106781186548,-0.707106781186547,0.));
#1191=DIRECTION('center_axis',(0.,-1.,1.75840502032814E-47));
#1192=DIRECTION('ref_axis',(0.707106781186547,0.,0.707106781186548));
#1193=DIRECTION('center_axis',(-0.707106781186547,0.707106781186548,-1.2433801139465E-47));
#1194=DIRECTION('ref_axis',(-1.75840502032814E-47,0.,1.));
#1195=DIRECTION('',(0.707106781186548,0.707106781186547,0.));
#1196=DIRECTION('',(0.,1.75840502032814E-47,1.));
#1197=DIRECTION('',(0.,-1.75840502032814E-47,-1.));
#1198=DIRECTION('',(7.85046229341888E-16,0.707106781186547,0.707106781186548));
#1199=DIRECTION('center_axis',(0.,0.707106781186548,-0.707106781186547));
#1200=DIRECTION('ref_axis',(-1.,0.,0.));
#1201=DIRECTION('',(-1.,0.,0.));
#1202=DIRECTION('',(-1.,0.,0.));
#1203=DIRECTION('center_axis',(-1.,0.,0.));
#1204=DIRECTION('ref_axis',(0.,0.,1.));
#1205=DIRECTION('',(0.,1.,0.));
#1206=DIRECTION('',(0.,1.,0.));
#1207=DIRECTION('',(0.,0.,1.));
#1208=DIRECTION('',(0.,-1.,0.));
#1209=DIRECTION('',(0.,1.0560192573106E-32,-1.));
#1210=DIRECTION('center_axis',(0.,-1.,1.75840502032814E-47));
#1211=DIRECTION('ref_axis',(1.,0.,0.));
#1212=DIRECTION('',(1.,0.,0.));
#1213=DIRECTION('',(0.,-1.75840502032814E-47,-1.));
#1214=DIRECTION('',(-1.,0.,0.));
#1215=DIRECTION('center_axis',(0.,-1.,1.75840502032814E-47));
#1216=DIRECTION('ref_axis',(1.,0.,0.));
#1217=DIRECTION('center_axis',(0.,-1.,0.));
#1218=DIRECTION('ref_axis',(-0.707106781186547,0.,0.707106781186548));
#1219=DIRECTION('',(0.,-1.,0.));
#1220=DIRECTION('center_axis',(0.,-1.,0.));
#1221=DIRECTION('ref_axis',(-0.707106781186547,0.,0.707106781186548));
#1222=DIRECTION('center_axis',(0.,0.,1.));
#1223=DIRECTION('ref_axis',(1.,0.,0.));
#1224=DIRECTION('',(0.,1.,0.));
#1225=DIRECTION('',(1.,0.,0.));
#1226=DIRECTION('center_axis',(0.,1.,0.));
#1227=DIRECTION('ref_axis',(0.707106781186547,0.,0.707106781186548));
#1228=DIRECTION('',(0.,-1.,0.));
#1229=DIRECTION('center_axis',(0.,-1.,0.));
#1230=DIRECTION('ref_axis',(0.707106781186547,0.,0.707106781186548));
#1231=DIRECTION('center_axis',(0.,1.,0.));
#1232=DIRECTION('ref_axis',(-0.707106781186547,0.,0.707106781186548));
#1233=DIRECTION('center_axis',(7.60942069395212E-17,-1.,-1.0560192573106E-32));
#1234=DIRECTION('ref_axis',(-0.707106781186547,0.,0.707106781186548));
#1235=DIRECTION('',(0.,-1.,0.));
#1236=DIRECTION('center_axis',(0.,1.,0.));
#1237=DIRECTION('ref_axis',(-0.707106781186547,0.,0.707106781186548));
#1238=DIRECTION('',(0.,1.,0.));
#1239=DIRECTION('center_axis',(7.60942069395212E-17,-1.,-1.0560192573106E-32));
#1240=DIRECTION('ref_axis',(0.,1.0560192573106E-32,-1.));
#1241=DIRECTION('',(1.,7.60942069395212E-17,0.));
#1242=DIRECTION('center_axis',(7.60942069395212E-17,-1.,-1.0560192573106E-32));
#1243=DIRECTION('ref_axis',(0.707106781186547,0.,0.707106781186548));
#1244=DIRECTION('',(0.,1.0560192573106E-32,-1.));
#1245=DIRECTION('',(-1.,-7.60942069395212E-17,0.));
#1246=DIRECTION('',(0.,-1.0560192573106E-32,1.));
#1247=DIRECTION('',(-1.,-7.60942069395212E-17,0.));
#1248=DIRECTION('',(0.,1.0560192573106E-32,-1.));
#1249=DIRECTION('',(1.,7.60942069395212E-17,0.));
#1250=DIRECTION('',(0.,-1.0560192573106E-32,1.));
#1251=DIRECTION('',(-1.,-7.60942069395212E-17,0.));
#1252=DIRECTION('',(-1.,-7.60942069395212E-17,0.));
#1253=DIRECTION('',(0.,-1.0560192573106E-32,1.));
#1254=DIRECTION('center_axis',(0.,0.,-1.));
#1255=DIRECTION('ref_axis',(-1.,0.,0.));
#1256=DIRECTION('',(-1.,0.,0.));
#1257=DIRECTION('',(0.,-1.,0.));
#1258=DIRECTION('center_axis',(0.,-1.,0.));
#1259=DIRECTION('ref_axis',(0.707106781186547,0.,0.707106781186548));
#1260=DIRECTION('center_axis',(0.,1.,0.));
#1261=DIRECTION('ref_axis',(0.707106781186547,0.,0.707106781186548));
#1262=DIRECTION('',(0.,1.,0.));
#1263=DIRECTION('center_axis',(0.,0.,-1.));
#1264=DIRECTION('ref_axis',(1.,5.89065681809928E-48,0.));
#1265=DIRECTION('',(0.,-1.,0.));
#1266=DIRECTION('',(-1.,0.,0.));
#1267=DIRECTION('center_axis',(0.,0.,-1.));
#1268=DIRECTION('ref_axis',(1.,5.89065681809928E-48,0.));
#1269=DIRECTION('',(0.,-1.,0.));
#1270=DIRECTION('',(0.,1.,0.));
#1271=DIRECTION('center_axis',(0.,0.,1.));
#1272=DIRECTION('ref_axis',(1.,0.,0.));
#1273=DIRECTION('',(1.,0.,0.));
#1274=DIRECTION('',(0.,-1.,0.));
#1275=DIRECTION('center_axis',(0.,-1.,1.75840502032814E-47));
#1276=DIRECTION('ref_axis',(1.,0.,0.));
#1277=DIRECTION('',(0.,1.75840502032814E-47,1.));
#1278=DIRECTION('',(1.,0.,0.));
#1279=DIRECTION('center_axis',(0.,-1.,1.75840502032814E-47));
#1280=DIRECTION('ref_axis',(1.,0.,0.));
#1281=DIRECTION('center_axis',(0.,-1.,0.));
#1282=DIRECTION('ref_axis',(1.,0.,0.));
#1283=DIRECTION('center_axis',(0.,-1.,0.));
#1284=DIRECTION('ref_axis',(1.,0.,0.));
#1285=DIRECTION('center_axis',(0.,-1.,0.));
#1286=DIRECTION('ref_axis',(1.,0.,0.));
#1287=DIRECTION('center_axis',(0.,-1.,0.));
#1288=DIRECTION('ref_axis',(1.,0.,0.));
#1289=DIRECTION('center_axis',(0.,1.,0.));
#1290=DIRECTION('ref_axis',(1.,0.,0.));
#1291=DIRECTION('',(0.,1.,0.));
#1292=DIRECTION('center_axis',(0.,1.,0.));
#1293=DIRECTION('ref_axis',(1.,0.,0.));
#1294=DIRECTION('',(0.,1.,0.));
#1295=DIRECTION('center_axis',(1.,0.,0.));
#1296=DIRECTION('ref_axis',(0.,0.,-1.));
#1297=DIRECTION('',(0.,1.,0.));
#1298=DIRECTION('',(0.,0.,-1.));
#1299=DIRECTION('center_axis',(0.,0.,1.));
#1300=DIRECTION('ref_axis',(-1.,0.,0.));
#1301=DIRECTION('',(0.,1.,0.));
#1302=DIRECTION('',(0.,-1.,0.));
#1303=DIRECTION('center_axis',(-1.,0.,0.));
#1304=DIRECTION('ref_axis',(0.,-1.75840502032814E-47,-1.));
#1305=DIRECTION('center_axis',(1.,0.,0.));
#1306=DIRECTION('ref_axis',(0.,0.,1.));
#1307=DIRECTION('center_axis',(1.,0.,2.07518322359842E-16));
#1308=DIRECTION('ref_axis',(-2.07518322359842E-16,0.,1.));
#1309=DIRECTION('',(-2.07518322359842E-16,0.,1.));
#1310=DIRECTION('',(0.,1.,0.));
#1311=DIRECTION('center_axis',(0.,-1.,0.));
#1312=DIRECTION('ref_axis',(0.,0.,-1.));
#1313=DIRECTION('',(0.,0.,1.));
#1314=DIRECTION('',(1.,0.,0.));
#1315=DIRECTION('',(0.,0.,-1.));
#1316=DIRECTION('center_axis',(0.,1.,0.));
#1317=DIRECTION('ref_axis',(-1.,0.,0.));
#1318=DIRECTION('',(-0.866025403784439,0.,-0.499999999999999));
#1319=DIRECTION('center_axis',(0.,1.,0.));
#1320=DIRECTION('ref_axis',(-1.,0.,0.));
#1321=DIRECTION('',(-0.866025403784438,0.,0.5));
#1322=DIRECTION('center_axis',(0.,1.,0.));
#1323=DIRECTION('ref_axis',(-1.,0.,0.));
#1324=DIRECTION('',(0.,0.,1.));
#1325=DIRECTION('center_axis',(0.,1.,0.));
#1326=DIRECTION('ref_axis',(-1.,0.,0.));
#1327=DIRECTION('',(0.866025403784439,0.,0.5));
#1328=DIRECTION('center_axis',(0.,1.,0.));
#1329=DIRECTION('ref_axis',(-1.,0.,0.));
#1330=DIRECTION('',(0.866025403784439,0.,-0.499999999999999));
#1331=DIRECTION('center_axis',(0.,1.,0.));
#1332=DIRECTION('ref_axis',(-1.,0.,0.));
#1333=DIRECTION('',(0.,0.,-1.));
#1334=DIRECTION('center_axis',(0.,1.,0.));
#1335=DIRECTION('ref_axis',(-1.,0.,0.));
#1336=DIRECTION('',(-0.866025403784439,0.,-0.499999999999999));
#1337=DIRECTION('center_axis',(0.,1.,0.));
#1338=DIRECTION('ref_axis',(-1.,0.,0.));
#1339=DIRECTION('',(-0.866025403784438,0.,0.5));
#1340=DIRECTION('center_axis',(0.,1.,0.));
#1341=DIRECTION('ref_axis',(-1.,0.,0.));
#1342=DIRECTION('',(0.,0.,1.));
#1343=DIRECTION('center_axis',(0.,1.,0.));
#1344=DIRECTION('ref_axis',(-1.,0.,0.));
#1345=DIRECTION('',(0.866025403784439,0.,0.5));
#1346=DIRECTION('center_axis',(0.,1.,0.));
#1347=DIRECTION('ref_axis',(-1.,0.,0.));
#1348=DIRECTION('',(0.866025403784439,0.,-0.499999999999999));
#1349=DIRECTION('center_axis',(0.,1.,0.));
#1350=DIRECTION('ref_axis',(-1.,0.,0.));
#1351=DIRECTION('center_axis',(0.,0.,1.));
#1352=DIRECTION('ref_axis',(1.,0.,0.));
#1353=DIRECTION('center_axis',(-1.,0.,0.));
#1354=DIRECTION('ref_axis',(0.,0.,-1.));
#1355=DIRECTION('center_axis',(0.,-1.,0.));
#1356=DIRECTION('ref_axis',(0.,0.,-1.));
#1357=DIRECTION('',(-0.866025403784439,0.,-0.499999999999999));
#1358=DIRECTION('center_axis',(0.,1.,0.));
#1359=DIRECTION('ref_axis',(-1.,0.,0.));
#1360=DIRECTION('',(0.,0.,-1.));
#1361=DIRECTION('center_axis',(0.,1.,0.));
#1362=DIRECTION('ref_axis',(-1.,0.,0.));
#1363=DIRECTION('',(0.866025403784439,0.,-0.499999999999999));
#1364=DIRECTION('center_axis',(0.,1.,0.));
#1365=DIRECTION('ref_axis',(-1.,0.,0.));
#1366=DIRECTION('',(0.866025403784439,0.,0.5));
#1367=DIRECTION('center_axis',(0.,1.,0.));
#1368=DIRECTION('ref_axis',(-1.,0.,0.));
#1369=DIRECTION('',(0.,0.,1.));
#1370=DIRECTION('center_axis',(0.,1.,0.));
#1371=DIRECTION('ref_axis',(-1.,0.,0.));
#1372=DIRECTION('',(-0.866025403784438,0.,0.5));
#1373=DIRECTION('center_axis',(0.,1.,0.));
#1374=DIRECTION('ref_axis',(-1.,0.,0.));
#1375=DIRECTION('center_axis',(0.,-1.,0.));
#1376=DIRECTION('ref_axis',(0.,0.,-1.));
#1377=DIRECTION('',(-0.866025403784439,0.,-0.499999999999999));
#1378=DIRECTION('center_axis',(0.,1.,0.));
#1379=DIRECTION('ref_axis',(-1.,0.,0.));
#1380=DIRECTION('',(0.,0.,-1.));
#1381=DIRECTION('center_axis',(0.,1.,0.));
#1382=DIRECTION('ref_axis',(-1.,0.,0.));
#1383=DIRECTION('',(0.866025403784439,0.,-0.499999999999999));
#1384=DIRECTION('center_axis',(0.,1.,0.));
#1385=DIRECTION('ref_axis',(-1.,0.,0.));
#1386=DIRECTION('',(0.866025403784439,0.,0.5));
#1387=DIRECTION('center_axis',(0.,1.,0.));
#1388=DIRECTION('ref_axis',(-1.,0.,0.));
#1389=DIRECTION('',(0.,0.,1.));
#1390=DIRECTION('center_axis',(0.,1.,0.));
#1391=DIRECTION('ref_axis',(-1.,0.,0.));
#1392=DIRECTION('',(-0.866025403784438,0.,0.5));
#1393=DIRECTION('center_axis',(0.,1.,0.));
#1394=DIRECTION('ref_axis',(-1.,0.,0.));
#1395=DIRECTION('center_axis',(0.5,-8.40875527205162E-13,-0.866025403784439));
#1396=DIRECTION('ref_axis',(0.866025403784439,4.85479711986868E-13,0.5));
#1397=DIRECTION('',(0.,1.,0.));
#1398=DIRECTION('',(0.,-1.,9.70959423973737E-13));
#1399=DIRECTION('center_axis',(0.,1.,-9.70959423973737E-13));
#1400=DIRECTION('ref_axis',(-1.,0.,0.));
#1401=DIRECTION('',(0.,-1.,9.70959423973737E-13));
#1402=DIRECTION('center_axis',(-0.499999999999999,-8.40875527205162E-13,
-0.866025403784439));
#1403=DIRECTION('ref_axis',(0.866025403784439,-4.85479711986868E-13,-0.499999999999999));
#1404=DIRECTION('',(0.,1.,0.));
#1405=DIRECTION('center_axis',(0.,1.,-9.70959423973737E-13));
#1406=DIRECTION('ref_axis',(-1.,0.,0.));
#1407=DIRECTION('',(0.,-1.,9.70959423973737E-13));
#1408=DIRECTION('center_axis',(-1.,0.,0.));
#1409=DIRECTION('ref_axis',(0.,-1.,9.70959423973737E-13));
#1410=DIRECTION('',(0.,1.,0.));
#1411=DIRECTION('center_axis',(0.,1.,-9.70959423973737E-13));
#1412=DIRECTION('ref_axis',(-1.,0.,0.));
#1413=DIRECTION('',(0.,-1.,9.70959423973737E-13));
#1414=DIRECTION('center_axis',(0.5,0.,-0.866025403784439));
#1415=DIRECTION('ref_axis',(0.866025403784439,0.,0.5));
#1416=DIRECTION('',(0.,1.,0.));
#1417=DIRECTION('',(0.,-1.,0.));
#1418=DIRECTION('center_axis',(0.,1.,0.));
#1419=DIRECTION('ref_axis',(-1.,0.,0.));
#1420=DIRECTION('',(0.,-1.,0.));
#1421=DIRECTION('center_axis',(-0.499999999999999,0.,-0.866025403784439));
#1422=DIRECTION('ref_axis',(0.866025403784439,0.,-0.499999999999999));
#1423=DIRECTION('',(0.,1.,0.));
#1424=DIRECTION('center_axis',(0.,1.,0.));
#1425=DIRECTION('ref_axis',(-1.,0.,0.));
#1426=DIRECTION('',(0.,-1.,0.));
#1427=DIRECTION('center_axis',(-1.,0.,0.));
#1428=DIRECTION('ref_axis',(0.,-1.,0.));
#1429=DIRECTION('',(0.,1.,0.));
#1430=DIRECTION('center_axis',(0.,1.,0.));
#1431=DIRECTION('ref_axis',(-1.,0.,0.));
#1432=DIRECTION('',(0.,-1.,0.));
#1433=DIRECTION('center_axis',(1.,0.,0.));
#1434=DIRECTION('ref_axis',(0.,1.,-9.70959423973737E-13));
#1435=DIRECTION('',(0.,1.,-9.70959423973737E-13));
#1436=DIRECTION('',(0.,-1.,9.70959423973737E-13));
#1437=DIRECTION('center_axis',(0.,1.,-9.70959423973737E-13));
#1438=DIRECTION('ref_axis',(-1.,0.,0.));
#1439=DIRECTION('center_axis',(0.5,8.40875527205162E-13,0.866025403784438));
#1440=DIRECTION('ref_axis',(-0.866025403784438,4.85479711986869E-13,0.5));
#1441=DIRECTION('',(0.,1.,-9.70959423973737E-13));
#1442=DIRECTION('',(0.,-1.,9.70959423973737E-13));
#1443=DIRECTION('center_axis',(-0.499999999999999,8.40875527205162E-13,
0.866025403784439));
#1444=DIRECTION('ref_axis',(-0.866025403784439,-4.85479711986868E-13,-0.499999999999999));
#1445=DIRECTION('',(0.,1.,-9.70959423973737E-13));
#1446=DIRECTION('center_axis',(0.,1.,-9.70959423973737E-13));
#1447=DIRECTION('ref_axis',(-1.,0.,0.));
#1448=DIRECTION('center_axis',(0.,1.,-9.70959423973737E-13));
#1449=DIRECTION('ref_axis',(-1.,0.,0.));
#1450=DIRECTION('center_axis',(1.,0.,0.));
#1451=DIRECTION('ref_axis',(0.,1.,0.));
#1452=DIRECTION('',(0.,1.,0.));
#1453=DIRECTION('',(0.,-1.,0.));
#1454=DIRECTION('center_axis',(0.,1.,0.));
#1455=DIRECTION('ref_axis',(-1.,0.,0.));
#1456=DIRECTION('center_axis',(0.5,0.,0.866025403784438));
#1457=DIRECTION('ref_axis',(-0.866025403784438,0.,0.5));
#1458=DIRECTION('',(0.,1.,0.));
#1459=DIRECTION('',(0.,-1.,0.));
#1460=DIRECTION('center_axis',(-0.499999999999999,0.,0.866025403784439));
#1461=DIRECTION('ref_axis',(-0.866025403784439,0.,-0.499999999999999));
#1462=DIRECTION('',(0.,1.,0.));
#1463=DIRECTION('center_axis',(0.,1.,0.));
#1464=DIRECTION('ref_axis',(-1.,0.,0.));
#1465=DIRECTION('center_axis',(0.,1.,0.));
#1466=DIRECTION('ref_axis',(-1.,0.,0.));
#1467=CARTESIAN_POINT('',(0.,0.,0.));
#1468=CARTESIAN_POINT('Origin',(-6.,11.8983730442453,0.943));
#1469=CARTESIAN_POINT('',(-5.25,11.1483730442453,-1.534));
#1470=CARTESIAN_POINT('',(-6.75,12.6483730442453,-1.534));
#1471=CARTESIAN_POINT('',(-7.6375,13.5358730442453,-1.534));
#1472=CARTESIAN_POINT('',(-6.75,12.6483730442453,2.32));
#1473=CARTESIAN_POINT('',(-6.75,12.6483730442453,0.943));
#1474=CARTESIAN_POINT('',(-5.25,11.1483730442453,2.32));
#1475=CARTESIAN_POINT('',(-6.75,12.6483730442453,2.32));
#1476=CARTESIAN_POINT('',(-5.25,11.1483730442453,0.943));
#1477=CARTESIAN_POINT('Origin',(-3.25,11.8983730442453,2.32));
#1478=CARTESIAN_POINT('',(-4.2767833267053,12.6483730442453,5.666));
#1479=CARTESIAN_POINT('',(-3.83673332954589,11.1483730442453,4.232));
#1480=CARTESIAN_POINT('',(-4.2767833267053,12.6483730442453,5.666));
#1481=CARTESIAN_POINT('Origin',(-3.25,11.1483730442453,2.32));
#1482=CARTESIAN_POINT('Origin',(-3.25,12.6483730442453,2.32));
#1483=CARTESIAN_POINT('Ctrl Pts',(-3.83673332954589,11.1483730442453,4.232));
#1484=CARTESIAN_POINT('Ctrl Pts',(-3.64696952129124,11.1483730442453,4.29023261037895));
#1485=CARTESIAN_POINT('Ctrl Pts',(-3.44849770539188,11.1483730442453,4.32000000019725));
#1486=CARTESIAN_POINT('Ctrl Pts',(-3.24999999801254,11.1483730442453,4.32));
#1487=CARTESIAN_POINT('Ctrl Pts',(-3.98341666193236,11.6483730442453,4.71));
#1488=CARTESIAN_POINT('Ctrl Pts',(-3.74621190161405,11.6483730442453,4.78279076297369));
#1489=CARTESIAN_POINT('Ctrl Pts',(-3.49812213173985,11.6483730442453,4.82000000024657));
#1490=CARTESIAN_POINT('Ctrl Pts',(-3.24999999751568,11.6483730442453,4.82));
#1491=CARTESIAN_POINT('Ctrl Pts',(-4.13009999431883,12.1483730442453,5.188));
#1492=CARTESIAN_POINT('Ctrl Pts',(-3.84545428193687,12.1483730442453,5.27534891556843));
#1493=CARTESIAN_POINT('Ctrl Pts',(-3.54774655808782,12.1483730442453,5.32000000029588));
#1494=CARTESIAN_POINT('Ctrl Pts',(-3.24999999701881,12.1483730442453,5.32));
#1495=CARTESIAN_POINT('Ctrl Pts',(-4.27678332670531,12.6483730442453,5.666));
#1496=CARTESIAN_POINT('Ctrl Pts',(-3.94469666225968,12.6483730442453,5.76790706816317));
#1497=CARTESIAN_POINT('Ctrl Pts',(-3.59737098443579,12.6483730442453,5.82000000034519));
#1498=CARTESIAN_POINT('Ctrl Pts',(-3.24999999652195,12.6483730442453,5.82));
#1499=CARTESIAN_POINT('',(-3.25,12.4943730442453,5.666));
#1500=CARTESIAN_POINT('Ctrl Pts',(-3.25,12.4943730442453,5.666));
#1501=CARTESIAN_POINT('Ctrl Pts',(-3.28409773304026,12.4943730442453,5.666));
#1502=CARTESIAN_POINT('Ctrl Pts',(-3.31818574196774,12.494894258612,5.666));
#1503=CARTESIAN_POINT('Ctrl Pts',(-3.41010616672727,12.497702644618,5.666));
#1504=CARTESIAN_POINT('Ctrl Pts',(-3.46782516714411,12.5009632596818,5.666));
#1505=CARTESIAN_POINT('Ctrl Pts',(-3.63794983359126,12.5149230051571,5.666));
#1506=CARTESIAN_POINT('Ctrl Pts',(-3.74954805645607,12.5296935416236,5.666));
#1507=CARTESIAN_POINT('Ctrl Pts',(-4.00115156944867,12.5748621681664,5.666));
#1508=CARTESIAN_POINT('Ctrl Pts',(-4.13979522940835,12.6081853030277,5.666));
#1509=CARTESIAN_POINT('Ctrl Pts',(-4.27678332670531,12.6483730442453,5.666));
#1510=CARTESIAN_POINT('',(-3.25,11.1483730442453,4.32));
#1511=CARTESIAN_POINT('',(-3.25,12.6483730442453,5.82));
#1512=CARTESIAN_POINT('Ctrl Pts',(-3.25,11.1483730442453,4.32));
#1513=CARTESIAN_POINT('Ctrl Pts',(-3.44849770671668,11.1483730442453,4.31999999999856));
#1514=CARTESIAN_POINT('Ctrl Pts',(-3.64696952192458,11.1483730442453,4.2902326101846));
#1515=CARTESIAN_POINT('Ctrl Pts',(-3.83673332954589,11.1483730442453,4.232));
#1516=CARTESIAN_POINT('Origin',(3.25,11.8983730442453,2.32));
#1517=CARTESIAN_POINT('',(3.83673332954589,11.1483730442453,4.232));
#1518=CARTESIAN_POINT('',(4.2767833267053,12.6483730442453,5.666));
#1519=CARTESIAN_POINT('',(3.83673332954589,11.1483730442453,4.232));
#1520=CARTESIAN_POINT('',(6.75,12.6483730442453,2.32));
#1521=CARTESIAN_POINT('Origin',(3.25,12.6483730442453,2.32));
#1522=CARTESIAN_POINT('',(5.25,11.1483730442453,2.32));
#1523=CARTESIAN_POINT('',(6.75,12.6483730442453,2.32));
#1524=CARTESIAN_POINT('Origin',(3.25,11.1483730442453,2.32));
#1525=CARTESIAN_POINT('Origin',(6.,11.8983730442453,3.193));
#1526=CARTESIAN_POINT('',(6.75,12.6483730442453,-1.534));
#1527=CARTESIAN_POINT('',(5.25,11.1483730442453,-1.534));
#1528=CARTESIAN_POINT('',(2.6375,8.5358730442453,-1.534));
#1529=CARTESIAN_POINT('',(5.25,11.1483730442453,3.193));
#1530=CARTESIAN_POINT('',(6.75,12.6483730442453,3.193));
#1531=CARTESIAN_POINT('Ctrl Pts',(3.25,11.1483730442453,4.32));
#1532=CARTESIAN_POINT('Ctrl Pts',(3.44849770671685,11.1483730442453,4.32));
#1533=CARTESIAN_POINT('Ctrl Pts',(3.64696952192458,11.1483730442453,4.2902326101846));
#1534=CARTESIAN_POINT('Ctrl Pts',(3.83673332954589,11.1483730442453,4.232));
#1535=CARTESIAN_POINT('Ctrl Pts',(3.25,11.6483730442453,4.82));
#1536=CARTESIAN_POINT('Ctrl Pts',(3.49812213339606,11.6483730442453,4.82));
#1537=CARTESIAN_POINT('Ctrl Pts',(3.74621190240573,11.6483730442453,4.78279076273075));
#1538=CARTESIAN_POINT('Ctrl Pts',(3.98341666193236,11.6483730442453,4.71));
#1539=CARTESIAN_POINT('Ctrl Pts',(3.25,12.1483730442453,5.32));
#1540=CARTESIAN_POINT('Ctrl Pts',(3.54774656007528,12.1483730442453,5.32));
#1541=CARTESIAN_POINT('Ctrl Pts',(3.84545428288687,12.1483730442453,5.2753489152769));
#1542=CARTESIAN_POINT('Ctrl Pts',(4.13009999431883,12.1483730442453,5.188));
#1543=CARTESIAN_POINT('Ctrl Pts',(3.25,12.6483730442453,5.82));
#1544=CARTESIAN_POINT('Ctrl Pts',(3.59737098675449,12.6483730442453,5.82));
#1545=CARTESIAN_POINT('Ctrl Pts',(3.94469666336802,12.6483730442453,5.76790706782305));
#1546=CARTESIAN_POINT('Ctrl Pts',(4.27678332670531,12.6483730442453,5.666));
#1547=CARTESIAN_POINT('',(3.25,12.4943730442453,5.666));
#1548=CARTESIAN_POINT('Ctrl Pts',(4.27678332670531,12.6483730442453,5.666));
#1549=CARTESIAN_POINT('Ctrl Pts',(4.0718978355526,12.5882664710455,5.666));
#1550=CARTESIAN_POINT('Ctrl Pts',(3.8639573973135,12.5437059343549,5.66599999999824));
#1551=CARTESIAN_POINT('Ctrl Pts',(3.57635326500983,12.5094163835507,5.66599999999824));
#1552=CARTESIAN_POINT('Ctrl Pts',(3.50075682655513,12.502900472233,5.666));
#1553=CARTESIAN_POINT('Ctrl Pts',(3.37689321556835,12.4964353001595,5.666));
#1554=CARTESIAN_POINT('Ctrl Pts',(3.32888534064993,12.4949578278374,5.666));
#1555=CARTESIAN_POINT('Ctrl Pts',(3.27055179253883,12.4944203776178,5.666));
#1556=CARTESIAN_POINT('Ctrl Pts',(3.26027545472838,12.4943730442453,5.666));
#1557=CARTESIAN_POINT('Ctrl Pts',(3.25,12.4943730442453,5.666));
#1558=CARTESIAN_POINT('',(3.25,11.1483730442453,4.32));
#1559=CARTESIAN_POINT('Ctrl Pts',(3.83673332954589,11.1483730442453,4.232));
#1560=CARTESIAN_POINT('Ctrl Pts',(3.64696952192458,11.1483730442453,4.2902326101846));
#1561=CARTESIAN_POINT('Ctrl Pts',(3.44849770671685,11.1483730442453,4.32));
#1562=CARTESIAN_POINT('Ctrl Pts',(3.25,11.1483730442453,4.32));
#1563=CARTESIAN_POINT('',(3.25,11.1483730442453,4.32));
#1564=CARTESIAN_POINT('Origin',(-2.625,11.8983730442453,5.07));
#1565=CARTESIAN_POINT('',(3.6875,12.4943730442453,5.666));
#1566=CARTESIAN_POINT('',(-2.625,11.1483730442453,4.32));
#1567=CARTESIAN_POINT('Origin',(-5.25,11.05,-0.18));
#1568=CARTESIAN_POINT('',(-5.25,13.9483730442453,-1.534));
#1569=CARTESIAN_POINT('',(-5.25,12.7491865221226,-1.534));
#1570=CARTESIAN_POINT('',(-5.25,9.1483730442453,2.32));
#1571=CARTESIAN_POINT('',(-5.25,11.05,2.32));
#1572=CARTESIAN_POINT('',(-5.25,9.1483730442453,-3.18));
#1573=CARTESIAN_POINT('',(-5.25,9.1483730442453,-0.0569999999999998));
#1574=CARTESIAN_POINT('',(-5.25,13.9483730442453,-3.18));
#1575=CARTESIAN_POINT('',(-5.25,10.8483730442453,-3.18));
#1576=CARTESIAN_POINT('',(-5.25,13.9483730442453,7.4989418987224));
#1577=CARTESIAN_POINT('Origin',(1.11022302462516E-15,12.6483730442453,2.066));
#1578=CARTESIAN_POINT('',(10.3,12.6483730442453,5.666));
#1579=CARTESIAN_POINT('',(5.,12.6483730442453,5.666));
#1580=CARTESIAN_POINT('',(10.3,12.6483730442453,-1.534));
#1581=CARTESIAN_POINT('',(10.3,12.6483730442453,0.391));
#1582=CARTESIAN_POINT('',(-5.,12.6483730442453,-1.534));
#1583=CARTESIAN_POINT('',(7.05,12.6483730442453,2.07));
#1584=CARTESIAN_POINT('Origin',(8.,12.6483730442453,2.07));
#1585=CARTESIAN_POINT('Origin',(-3.25,11.05,2.32));
#1586=CARTESIAN_POINT('',(-3.25,9.1483730442453,4.32));
#1587=CARTESIAN_POINT('',(-3.25,11.05,4.32));
#1588=CARTESIAN_POINT('Origin',(-3.25,9.1483730442453,2.32));
#1589=CARTESIAN_POINT('Origin',(-5.25,11.05,4.32));
#1590=CARTESIAN_POINT('',(3.25,9.1483730442453,4.32));
#1591=CARTESIAN_POINT('',(3.25,11.05,4.32));
#1592=CARTESIAN_POINT('',(-2.625,9.1483730442453,4.32));
#1593=CARTESIAN_POINT('Origin',(3.25,11.05,2.32));
#1594=CARTESIAN_POINT('',(5.25,9.1483730442453,2.32));
#1595=CARTESIAN_POINT('',(5.25,11.05,2.32));
#1596=CARTESIAN_POINT('Origin',(3.25,9.1483730442453,2.32));
#1597=CARTESIAN_POINT('Origin',(-9.5,13.3483730442453,6.32));
#1598=CARTESIAN_POINT('',(-9.5,13.9483730442453,9.32));
#1599=CARTESIAN_POINT('',(-12.5,13.9483730442453,6.32));
#1600=CARTESIAN_POINT('Origin',(-9.5,13.9483730442453,6.32));
#1601=CARTESIAN_POINT('',(-12.5,9.1483730442453,6.32));
#1602=CARTESIAN_POINT('',(-12.5,13.3483730442453,6.32));
#1603=CARTESIAN_POINT('',(-9.5,9.1483730442453,9.32));
#1604=CARTESIAN_POINT('Origin',(-9.5,9.1483730442453,6.32));
#1605=CARTESIAN_POINT('',(-9.5,13.3483730442453,9.32));
#1606=CARTESIAN_POINT('Origin',(-0.000143296513353081,13.9483730442453,
18.1778837974448));
#1607=CARTESIAN_POINT('',(9.5,13.9483730442453,9.32));
#1608=CARTESIAN_POINT('',(-5.,13.9483730442453,9.32));
#1609=CARTESIAN_POINT('',(12.5,13.9483730442453,6.32));
#1610=CARTESIAN_POINT('Origin',(9.5,13.9483730442453,6.32));
#1611=CARTESIAN_POINT('',(12.5,13.9483730442453,-3.18));
#1612=CARTESIAN_POINT('',(12.5,13.9483730442453,10.0020614770788));
#1613=CARTESIAN_POINT('',(5.25,13.9483730442453,-3.18));
#1614=CARTESIAN_POINT('',(-7.,13.9483730442453,-3.18));
#1615=CARTESIAN_POINT('',(5.25,13.9483730442453,-1.534));
#1616=CARTESIAN_POINT('',(5.25,13.9483730442453,9.9989418987224));
#1617=CARTESIAN_POINT('',(10.3,13.9483730442453,-1.534));
#1618=CARTESIAN_POINT('',(-5.00007164825668,13.9483730442453,-1.534));
#1619=CARTESIAN_POINT('',(10.3,13.9483730442453,5.666));
#1620=CARTESIAN_POINT('',(10.3,13.9483730442453,8.4469418987224));
#1621=CARTESIAN_POINT('',(-10.3,13.9483730442453,5.666));
#1622=CARTESIAN_POINT('',(4.99992835174332,13.9483730442453,5.666));
#1623=CARTESIAN_POINT('',(-10.3,13.9483730442453,-1.534));
#1624=CARTESIAN_POINT('',(-10.3,13.9483730442453,11.7969418987224));
#1625=CARTESIAN_POINT('',(-5.00007164825668,13.9483730442453,-1.534));
#1626=CARTESIAN_POINT('',(-12.5,13.9483730442453,-3.18));
#1627=CARTESIAN_POINT('',(-7.,13.9483730442453,-3.18));
#1628=CARTESIAN_POINT('',(-12.5,13.9483730442453,10.0020614770788));
#1629=CARTESIAN_POINT('Origin',(-10.,13.3483730442453,9.32));
#1630=CARTESIAN_POINT('',(9.5,9.1483730442453,9.32));
#1631=CARTESIAN_POINT('',(-5.,9.1483730442453,9.32));
#1632=CARTESIAN_POINT('',(9.5,13.3483730442453,9.32));
#1633=CARTESIAN_POINT('Origin',(9.5,13.3483730442453,6.32));
#1634=CARTESIAN_POINT('',(12.5,9.1483730442453,6.32));
#1635=CARTESIAN_POINT('Origin',(9.5,9.1483730442453,6.32));
#1636=CARTESIAN_POINT('',(12.5,13.3483730442453,6.32));
#1637=CARTESIAN_POINT('Origin',(-10.,14.4483730442453,-1.534));
#1638=CARTESIAN_POINT('',(-10.3,12.6483730442453,-1.534));
#1639=CARTESIAN_POINT('',(-10.3,14.4483730442453,-1.534));
#1640=CARTESIAN_POINT('',(-5.,12.6483730442453,-1.534));
#1641=CARTESIAN_POINT('Origin',(-10.,14.4483730442453,-1.534));
#1642=CARTESIAN_POINT('',(5.25,12.7491865221226,-1.534));
#1643=CARTESIAN_POINT('',(10.3,14.4483730442453,-1.534));
#1644=CARTESIAN_POINT('Origin',(-14.,13.3483730442453,-3.18));
#1645=CARTESIAN_POINT('',(-12.5,9.1483730442453,-3.18));
#1646=CARTESIAN_POINT('',(-7.,9.1483730442453,-3.18));
#1647=CARTESIAN_POINT('',(-12.5,13.3483730442453,-3.18));
#1648=CARTESIAN_POINT('Origin',(1.11022302462516E-15,12.6483730442453,2.066));
#1649=CARTESIAN_POINT('',(-10.3,12.6483730442453,5.666));
#1650=CARTESIAN_POINT('',(-10.3,12.6483730442453,3.741));
#1651=CARTESIAN_POINT('',(5.,12.6483730442453,5.666));
#1652=CARTESIAN_POINT('',(-8.95,12.6483730442453,2.07));
#1653=CARTESIAN_POINT('Origin',(-8.,12.6483730442453,2.07));
#1654=CARTESIAN_POINT('Origin',(8.,10.95,2.07));
#1655=CARTESIAN_POINT('',(7.05,10.95,2.07));
#1656=CARTESIAN_POINT('Origin',(8.,10.95,2.07));
#1657=CARTESIAN_POINT('Origin',(-8.,10.95,2.07));
#1658=CARTESIAN_POINT('',(-8.95,10.95,2.07));
#1659=CARTESIAN_POINT('Origin',(-8.,10.95,2.07));
#1660=CARTESIAN_POINT('Origin',(-8.,11.05,2.07));
#1661=CARTESIAN_POINT('',(-8.95,11.05,2.07));
#1662=CARTESIAN_POINT('Origin',(8.,11.05,2.07));
#1663=CARTESIAN_POINT('',(7.05,11.05,2.07));
#1664=CARTESIAN_POINT('Origin',(5.25,11.05,4.32));
#1665=CARTESIAN_POINT('',(5.25,9.1483730442453,-3.18));
#1666=CARTESIAN_POINT('',(5.25,10.8483730442453,-3.18));
#1667=CARTESIAN_POINT('',(5.25,9.1483730442453,0.943000000000001));
#1668=CARTESIAN_POINT('Origin',(10.,14.4483730442453,5.666));
#1669=CARTESIAN_POINT('',(10.3,14.4483730442453,5.666));
#1670=CARTESIAN_POINT('',(-10.3,14.4483730442453,5.666));
#1671=CARTESIAN_POINT('Origin',(-10.3,14.4483730442453,5.416));
#1672=CARTESIAN_POINT('Origin',(10.3,14.4483730442453,-1.284));
#1673=CARTESIAN_POINT('Origin',(12.5,13.3483730442453,-5.284));
#1674=CARTESIAN_POINT('',(12.5,9.1483730442453,-3.18));
#1675=CARTESIAN_POINT('',(12.5,9.1483730442453,5.416));
#1676=CARTESIAN_POINT('',(12.5,13.3483730442453,-3.18));
#1677=CARTESIAN_POINT('Origin',(2.22044604925031E-15,9.1483730442453,0.0660000000000005));
#1678=CARTESIAN_POINT('',(-12.5,9.1483730442453,5.416));
#1679=CARTESIAN_POINT('',(-7.,9.1483730442453,-3.18));
#1680=CARTESIAN_POINT('',(10.0000000000052,9.1483730442453,3.16296551146029));
#1681=CARTESIAN_POINT('',(10.0000000000052,9.1483730442453,0.969034488539707));
#1682=CARTESIAN_POINT('',(10.0000000000052,9.1483730442453,0.488649730810372));
#1683=CARTESIAN_POINT('',(9.95000000000523,9.1483730442453,0.882431948161263));
#1684=CARTESIAN_POINT('Origin',(9.90000000000522,9.1483730442453,0.969034488539707));
#1685=CARTESIAN_POINT('',(8.05000000000523,9.1483730442453,-0.21453356329902));
#1686=CARTESIAN_POINT('',(5.06698729811105,9.1483730442453,-1.9367767497337));
#1687=CARTESIAN_POINT('',(7.95000000000523,9.1483730442453,-0.21453356329902));
#1688=CARTESIAN_POINT('Origin',(8.00000000000523,9.1483730442453,-0.127931022920576));
#1689=CARTESIAN_POINT('',(6.05000000000524,9.1483730442453,0.882431948161267));
#1690=CARTESIAN_POINT('',(3.93301270189549,9.1483730442453,2.10467513459595));
#1691=CARTESIAN_POINT('',(6.00000000000523,9.1483730442453,0.969034488539711));
#1692=CARTESIAN_POINT('Origin',(6.10000000000523,9.1483730442453,0.969034488539711));
#1693=CARTESIAN_POINT('',(6.00000000000523,9.1483730442453,3.16296551146029));
#1694=CARTESIAN_POINT('',(6.00000000000523,9.1483730442453,1.64335026918963));
#1695=CARTESIAN_POINT('',(6.05000000000524,9.1483730442453,3.24956805183874));
#1696=CARTESIAN_POINT('Origin',(6.10000000000523,9.1483730442453,3.16296551146029));
#1697=CARTESIAN_POINT('',(7.95000000000523,9.1483730442453,4.34653356329902));
#1698=CARTESIAN_POINT('',(4.06698729811105,9.1483730442453,2.10467513459368));
#1699=CARTESIAN_POINT('',(8.05000000000523,9.1483730442453,4.34653356329902));
#1700=CARTESIAN_POINT('Origin',(8.00000000000523,9.1483730442453,4.25993102292058));
#1701=CARTESIAN_POINT('',(9.95000000000523,9.1483730442453,3.24956805183874));
#1702=CARTESIAN_POINT('',(6.93301270189548,9.1483730442453,4.99142648054408));
#1703=CARTESIAN_POINT('Origin',(9.90000000000522,9.1483730442453,3.16296551146029));
#1704=CARTESIAN_POINT('',(-5.99999999999478,9.1483730442453,3.16296551146078));
#1705=CARTESIAN_POINT('',(-5.99999999999478,9.1483730442453,0.969034488540192));
#1706=CARTESIAN_POINT('',(-5.99999999999478,9.1483730442453,0.488649730810761));
#1707=CARTESIAN_POINT('',(-6.04999999999477,9.1483730442453,0.882431948161748));
#1708=CARTESIAN_POINT('Origin',(-6.09999999999478,9.14837304424618,0.969034488540192));
#1709=CARTESIAN_POINT('',(-7.94999999999477,9.1483730442453,-0.214533563298535));
#1710=CARTESIAN_POINT('',(-4.93301270188899,9.1483730442453,1.52732486540452));
#1711=CARTESIAN_POINT('',(-8.04999999999477,9.1483730442453,-0.214533563298535));
#1712=CARTESIAN_POINT('Origin',(-7.99999999999477,9.14837304424511,-0.127931022920091));
#1713=CARTESIAN_POINT('',(-9.94999999999477,9.1483730442453,0.882431948161752));
#1714=CARTESIAN_POINT('',(-6.06698729810447,9.1483730442453,-1.35942648054135));
#1715=CARTESIAN_POINT('',(-9.99999999999477,9.1483730442453,0.969034488540196));
#1716=CARTESIAN_POINT('Origin',(-9.89999999999477,9.14837304424618,0.969034488540196));
#1717=CARTESIAN_POINT('',(-9.99999999999477,9.1483730442453,3.16296551146078));
#1718=CARTESIAN_POINT('',(-9.99999999999477,9.1483730442453,1.64335026919002));
#1719=CARTESIAN_POINT('',(-9.94999999999477,9.1483730442453,3.24956805183922));
#1720=CARTESIAN_POINT('Origin',(-9.89999999999477,9.14837304424831,3.16296551146078));
#1721=CARTESIAN_POINT('',(-8.04999999999477,9.1483730442453,4.34653356329951));
#1722=CARTESIAN_POINT('',(-5.93301270188899,9.1483730442453,5.56877674973189));
#1723=CARTESIAN_POINT('',(-7.94999999999477,9.1483730442453,4.34653356329951));
#1724=CARTESIAN_POINT('Origin',(-7.99999999999477,9.14837304424937,4.25993102292106));
#1725=CARTESIAN_POINT('',(-6.04999999999478,9.1483730442453,3.24956805183922));
#1726=CARTESIAN_POINT('',(-3.06698729810447,9.1483730442453,1.52732486540679));
#1727=CARTESIAN_POINT('Origin',(-6.09999999999478,9.14837304424831,3.16296551146078));
#1728=CARTESIAN_POINT('Origin',(-14.,13.3483730442453,-3.18));
#1729=CARTESIAN_POINT('Origin',(-12.5,13.3483730442453,5.416));
#1730=CARTESIAN_POINT('Origin',(-8.,10.65,2.05));
#1731=CARTESIAN_POINT('',(-6.04999999999477,10.65,0.882431948161746));
#1732=CARTESIAN_POINT('',(-7.94999999999477,10.65,-0.214533563298536));
#1733=CARTESIAN_POINT('',(-7.50346410161191,10.65,0.0432740578356376));
#1734=CARTESIAN_POINT('',(-5.99999999999478,10.65,0.96903448854019));
#1735=CARTESIAN_POINT('Origin',(-6.09999999999478,10.649999999999,0.96903448854019));
#1736=CARTESIAN_POINT('',(-5.99999999999478,10.65,3.16296551146078));
#1737=CARTESIAN_POINT('',(-5.99999999999478,10.65,1.48064973081076));
#1738=CARTESIAN_POINT('',(-6.04999999999478,10.65,3.24956805183922));
#1739=CARTESIAN_POINT('Origin',(-6.09999999999478,10.6500000000011,3.16296551146078));
#1740=CARTESIAN_POINT('',(-7.94999999999477,10.65,4.3465335632995));
#1741=CARTESIAN_POINT('',(-6.49653589838156,10.65,3.50737567297566));
#1742=CARTESIAN_POINT('',(-8.04999999999477,10.65,4.3465335632995));
#1743=CARTESIAN_POINT('Origin',(-7.99999999999477,10.6500000000021,4.25993102292106));
#1744=CARTESIAN_POINT('',(-9.94999999999477,10.65,3.24956805183922));
#1745=CARTESIAN_POINT('',(-8.50346410161191,10.65,4.08472594216302));
#1746=CARTESIAN_POINT('',(-9.99999999999477,10.65,3.16296551146077));
#1747=CARTESIAN_POINT('Origin',(-9.89999999999477,10.6500000000011,3.16296551146077));
#1748=CARTESIAN_POINT('',(-9.99999999999477,10.65,0.969034488540194));
#1749=CARTESIAN_POINT('',(-9.99999999999477,10.65,2.63535026919002));
#1750=CARTESIAN_POINT('',(-9.94999999999477,10.65,0.882431948161751));
#1751=CARTESIAN_POINT('Origin',(-9.89999999999477,10.649999999999,0.969034488540195));
#1752=CARTESIAN_POINT('',(-8.04999999999477,10.65,-0.214533563298536));
#1753=CARTESIAN_POINT('',(-9.49653589838155,10.65,0.620624327027528));
#1754=CARTESIAN_POINT('Origin',(-7.99999999999477,10.6499999999979,-0.127931022920093));
#1755=CARTESIAN_POINT('Origin',(8.,10.65,2.05));
#1756=CARTESIAN_POINT('',(9.95000000000523,10.65,0.882431948161263));
#1757=CARTESIAN_POINT('',(8.05000000000523,10.65,-0.21453356329902));
#1758=CARTESIAN_POINT('',(8.49653589838813,10.65,0.0432740578351781));
#1759=CARTESIAN_POINT('',(10.0000000000052,10.65,0.969034488539707));
#1760=CARTESIAN_POINT('Origin',(9.90000000000522,10.65,0.969034488539707));
#1761=CARTESIAN_POINT('',(10.0000000000052,10.65,3.16296551146029));
#1762=CARTESIAN_POINT('',(10.0000000000052,10.65,1.48064973081037));
#1763=CARTESIAN_POINT('',(9.95000000000523,10.65,3.24956805183874));
#1764=CARTESIAN_POINT('Origin',(9.90000000000522,10.65,3.16296551146029));
#1765=CARTESIAN_POINT('',(8.05000000000523,10.65,4.34653356329902));
#1766=CARTESIAN_POINT('',(9.5034641016184,10.65,3.5073756729752));
#1767=CARTESIAN_POINT('',(7.95000000000523,10.65,4.34653356329902));
#1768=CARTESIAN_POINT('Origin',(8.00000000000523,10.65,4.25993102292058));
#1769=CARTESIAN_POINT('',(6.05000000000524,10.65,3.24956805183874));
#1770=CARTESIAN_POINT('',(7.49653589838813,10.65,4.08472594216256));
#1771=CARTESIAN_POINT('',(6.00000000000523,10.65,3.16296551146029));
#1772=CARTESIAN_POINT('Origin',(6.10000000000523,10.65,3.16296551146029));
#1773=CARTESIAN_POINT('',(6.00000000000523,10.65,0.969034488539711));
#1774=CARTESIAN_POINT('',(6.00000000000523,10.65,2.63535026918963));
#1775=CARTESIAN_POINT('',(6.05000000000524,10.65,0.882431948161267));
#1776=CARTESIAN_POINT('Origin',(6.10000000000523,10.65,0.969034488539711));
#1777=CARTESIAN_POINT('',(7.95000000000523,10.65,-0.21453356329902));
#1778=CARTESIAN_POINT('',(6.50346410161841,10.65,0.620624327027069));
#1779=CARTESIAN_POINT('Origin',(8.00000000000523,10.65,-0.127931022920576));
#1780=CARTESIAN_POINT('Origin',(-7.99999999999477,8.04837304424754,4.37540107675928));
#1781=CARTESIAN_POINT('',(-8.04999999999477,8.35,4.3465335632995));
#1782=CARTESIAN_POINT('',(-9.94999999999477,8.04837304424645,3.24956805183951));
#1783=CARTESIAN_POINT('Origin',(-7.99999999999477,8.04837304424743,4.25993102292135));
#1784=CARTESIAN_POINT('',(-7.94999999999477,8.04837304424751,4.3465335632998));
#1785=CARTESIAN_POINT('Origin',(-5.99999999999478,8.04837304424642,3.22070053838003));
#1786=CARTESIAN_POINT('',(-6.04999999999478,8.35,3.24956805183922));
#1787=CARTESIAN_POINT('Origin',(-6.09999999999478,8.04837304424636,3.16296551146107));
#1788=CARTESIAN_POINT('',(-5.99999999999478,8.04837304424636,3.16296551146107));
#1789=CARTESIAN_POINT('Origin',(-5.99999999999478,8.04837304424418,0.911299461621521));
#1790=CARTESIAN_POINT('',(-5.99999999999478,8.35,0.96903448854019));
#1791=CARTESIAN_POINT('Origin',(-6.09999999999478,8.04837304424423,0.969034488540483));
#1792=CARTESIAN_POINT('',(-6.04999999999477,8.04837304424415,0.882431948162039));
#1793=CARTESIAN_POINT('Origin',(8.00000000000523,8.0483730442453,4.3754010767585));
#1794=CARTESIAN_POINT('',(7.95000000000523,8.35,4.34653356329902));
#1795=CARTESIAN_POINT('',(6.05000000000524,8.0483730442453,3.24956805183874));
#1796=CARTESIAN_POINT('Origin',(8.00000000000523,8.0483730442453,4.25993102292058));
#1797=CARTESIAN_POINT('',(8.05000000000523,8.0483730442453,4.34653356329902));
#1798=CARTESIAN_POINT('Origin',(10.0000000000052,8.0483730442453,3.22070053837926));
#1799=CARTESIAN_POINT('',(9.95000000000523,8.35,3.24956805183874));
#1800=CARTESIAN_POINT('Origin',(9.90000000000522,8.0483730442453,3.16296551146029));
#1801=CARTESIAN_POINT('',(10.0000000000052,8.0483730442453,3.16296551146029));
#1802=CARTESIAN_POINT('Origin',(10.0000000000052,8.0483730442453,0.911299461620744));
#1803=CARTESIAN_POINT('',(10.0000000000052,8.35,0.969034488539707));
#1804=CARTESIAN_POINT('Origin',(9.90000000000522,8.0483730442453,0.969034488539707));
#1805=CARTESIAN_POINT('',(9.95000000000523,8.0483730442453,0.882431948161263));
#1806=CARTESIAN_POINT('Origin',(-9.99999999999477,8.04837304424642,3.22070053838003));
#1807=CARTESIAN_POINT('',(-9.99999999999477,8.04837304424636,3.16296551146107));
#1808=CARTESIAN_POINT('',(-9.99999999999477,8.04837304424423,0.969034488540487));
#1809=CARTESIAN_POINT('Origin',(-9.89999999999477,8.04837304424636,3.16296551146107));
#1810=CARTESIAN_POINT('Origin',(-9.99999999999477,8.04837304424418,0.911299461621525));
#1811=CARTESIAN_POINT('',(-9.94999999999477,8.04837304424415,0.882431948162044));
#1812=CARTESIAN_POINT('',(-8.04999999999477,8.04837304424308,-0.214533563298243));
#1813=CARTESIAN_POINT('Origin',(-7.99999999999477,8.04837304424306,-0.243401076757725));
#1814=CARTESIAN_POINT('',(-7.94999999999477,8.04837304424308,-0.214533563298243));
#1815=CARTESIAN_POINT('Origin',(-7.99999999999477,8.04837304424317,-0.1279310229198));
#1816=CARTESIAN_POINT('Origin',(-9.89999999999477,8.04837304424423,0.969034488540488));
#1817=CARTESIAN_POINT('Origin',(6.00000000000523,8.0483730442453,3.22070053837925));
#1818=CARTESIAN_POINT('',(6.00000000000523,8.0483730442453,3.16296551146029));
#1819=CARTESIAN_POINT('',(6.00000000000523,8.0483730442453,0.969034488539711));
#1820=CARTESIAN_POINT('Origin',(6.10000000000523,8.0483730442453,3.16296551146029));
#1821=CARTESIAN_POINT('Origin',(6.00000000000523,8.0483730442453,0.911299461620749));
#1822=CARTESIAN_POINT('',(6.05000000000524,8.0483730442453,0.882431948161267));
#1823=CARTESIAN_POINT('',(7.95000000000523,8.0483730442453,-0.21453356329902));
#1824=CARTESIAN_POINT('Origin',(8.00000000000523,8.0483730442453,-0.243401076758501));
#1825=CARTESIAN_POINT('',(8.05000000000523,8.0483730442453,-0.21453356329902));
#1826=CARTESIAN_POINT('Origin',(8.00000000000523,8.0483730442453,-0.127931022920576));
#1827=CARTESIAN_POINT('Origin',(6.10000000000523,8.0483730442453,0.969034488539711));
#1828=UNCERTAINTY_MEASURE_WITH_UNIT(LENGTH_MEASURE(0.01),#1832,
'DISTANCE_ACCURACY_VALUE',
'Maximum model space distance between geometric entities at asserted c
onnectivities');
#1829=UNCERTAINTY_MEASURE_WITH_UNIT(LENGTH_MEASURE(0.01),#1832,
'DISTANCE_ACCURACY_VALUE',
'Maximum model space distance between geometric entities at asserted c
onnectivities');
#1830=(
GEOMETRIC_REPRESENTATION_CONTEXT(3)
GLOBAL_UNCERTAINTY_ASSIGNED_CONTEXT((#1828))
GLOBAL_UNIT_ASSIGNED_CONTEXT((#1832,#1834,#1835))
REPRESENTATION_CONTEXT('','3D')
);
#1831=(
GEOMETRIC_REPRESENTATION_CONTEXT(3)
GLOBAL_UNCERTAINTY_ASSIGNED_CONTEXT((#1829))
GLOBAL_UNIT_ASSIGNED_CONTEXT((#1832,#1834,#1835))
REPRESENTATION_CONTEXT('','3D')
);
#1832=(
LENGTH_UNIT()
NAMED_UNIT(*)
SI_UNIT(.MILLI.,.METRE.)
);
#1833=(
LENGTH_UNIT()
NAMED_UNIT(*)
SI_UNIT($,.METRE.)
);
#1834=(
NAMED_UNIT(*)
PLANE_ANGLE_UNIT()
SI_UNIT($,.RADIAN.)
);
#1835=(
NAMED_UNIT(*)
SI_UNIT($,.STERADIAN.)
SOLID_ANGLE_UNIT()
);
#1836=SHAPE_DEFINITION_REPRESENTATION(#1837,#1838);
#1837=PRODUCT_DEFINITION_SHAPE('',$,#1840);
#1838=SHAPE_REPRESENTATION('',(#1074),#1830);
#1839=PRODUCT_DEFINITION_CONTEXT('part definition',#1844,'design');
#1840=PRODUCT_DEFINITION('2026-09-23-14-38-00-297','back-small',#1841,#1839);
#1841=PRODUCT_DEFINITION_FORMATION('',$,#1846);
#1842=PRODUCT_RELATED_PRODUCT_CATEGORY('back-small','back-small',(#1846));
#1843=APPLICATION_PROTOCOL_DEFINITION('international standard',
'automotive_design',2009,#1844);
#1844=APPLICATION_CONTEXT(
'Core Data for Automotive Mechanical Design Process');
#1845=PRODUCT_CONTEXT('part definition',#1844,'mechanical');
#1846=PRODUCT('2026-09-23-14-38-00-297','back-small',$,(#1845));
#1847=PRESENTATION_STYLE_ASSIGNMENT((#1849));
#1848=PRESENTATION_STYLE_ASSIGNMENT((#1850));
#1849=SURFACE_STYLE_USAGE(.BOTH.,#1851);
#1850=SURFACE_STYLE_USAGE(.BOTH.,#1852);
#1851=SURFACE_SIDE_STYLE('',(#1853));
#1852=SURFACE_SIDE_STYLE('',(#1854));
#1853=SURFACE_STYLE_FILL_AREA(#1855);
#1854=SURFACE_STYLE_FILL_AREA(#1856);
#1855=FILL_AREA_STYLE('Steel - Satin',(#1857));
#1856=FILL_AREA_STYLE('Opaque(76,76,76)',(#1858));
#1857=FILL_AREA_STYLE_COLOUR('Steel - Satin',#1859);
#1858=FILL_AREA_STYLE_COLOUR('Opaque(76,76,76)',#1860);
#1859=COLOUR_RGB('Steel - Satin',0.627450980392157,0.627450980392157,0.627450980392157);
#1860=COLOUR_RGB('Opaque(76,76,76)',0.298039215686275,0.298039215686275,
0.298039215686275);
ENDSEC;
END-ISO-10303-21;
