ISO-10303-21;
HEADER;
/* Generated by software containing ST-Developer
 * from STEP Tools, Inc. (www.steptools.com) 
 */

FILE_DESCRIPTION(
/* description */ (''),
/* implementation_level */ '2;1');

FILE_NAME(
/* name */ 'blipscope-bottom-housing.step',
/* time_stamp */ '2026-09-23T14:38:00-07:00',
/* author */ (''),
/* organization */ (''),
/* preprocessor_version */ 'ST-DEVELOPER v20.2',
/* originating_system */ 'Autodesk Translation Framework v15.15.0.0',
/* authorisation */ '');

FILE_SCHEMA (('AUTOMOTIVE_DESIGN { 1 0 10303 214 3 1 1 }'));
ENDSEC;

DATA;
#10=MECHANICAL_DESIGN_GEOMETRIC_PRESENTATION_REPRESENTATION('',(#13),#1351);
#11=SHAPE_REPRESENTATION_RELATIONSHIP('SRR','None',#1358,#12);
#12=ADVANCED_BREP_SHAPE_REPRESENTATION('',(#14),#1350);
#13=STYLED_ITEM('',(#1368),#14);
#14=MANIFOLD_SOLID_BREP('bottom-housing',#725);
#15=CONICAL_SURFACE('',#797,1.425,0.785398163397448);
#16=CONICAL_SURFACE('',#799,0.930025253169417,0.785398163397448);
#17=CONICAL_SURFACE('',#800,1.425,0.785398163397448);
#18=CONICAL_SURFACE('',#802,0.930025253169417,0.785398163397448);
#19=B_SPLINE_SURFACE_WITH_KNOTS('',3,3,((#1159,#1160,#1161,#1162),(#1163,
#1164,#1165,#1166),(#1167,#1168,#1169,#1170),(#1171,#1172,#1173,#1174),
(#1175,#1176,#1177,#1178),(#1179,#1180,#1181,#1182),(#1183,#1184,#1185,
#1186)),.UNSPECIFIED.,.F.,.F.,.F.,(4,1,1,1,4),(4,4),(0.,0.285714285714286,
0.571428571428571,0.785714285714286,1.),(-2.215,5.285),.UNSPECIFIED.);
#20=B_SPLINE_SURFACE_WITH_KNOTS('',3,3,((#1258,#1259,#1260,#1261),(#1262,
#1263,#1264,#1265),(#1266,#1267,#1268,#1269),(#1270,#1271,#1272,#1273),
(#1274,#1275,#1276,#1277),(#1278,#1279,#1280,#1281)),.UNSPECIFIED.,.F.,
 .F.,.F.,(4,1,1,4),(4,4),(0.,0.285714285714286,0.571428571428571,1.),(-5.375,
2.125),.UNSPECIFIED.);
#21=B_SPLINE_SURFACE_WITH_KNOTS('',3,3,((#1292,#1293,#1294,#1295),(#1296,
#1297,#1298,#1299),(#1300,#1301,#1302,#1303),(#1304,#1305,#1306,#1307),
(#1308,#1309,#1310,#1311)),.UNSPECIFIED.,.F.,.F.,.F.,(4,1,4),(4,4),(0.,
0.5,1.),(-0.500000000000001,7.),.UNSPECIFIED.);
#22=FACE_BOUND('',#144,.T.);
#23=FACE_BOUND('',#145,.T.);
#24=FACE_BOUND('',#146,.T.);
#25=FACE_BOUND('',#147,.T.);
#26=FACE_BOUND('',#148,.T.);
#27=FACE_BOUND('',#149,.T.);
#28=FACE_BOUND('',#162,.T.);
#29=FACE_BOUND('',#173,.T.);
#30=FACE_BOUND('',#174,.T.);
#31=FACE_BOUND('',#175,.T.);
#32=FACE_BOUND('',#176,.T.);
#33=FACE_BOUND('',#177,.T.);
#34=FACE_BOUND('',#178,.T.);
#35=B_SPLINE_CURVE_WITH_KNOTS('',3,(#1077,#1078,#1079,#1080),
 .UNSPECIFIED.,.F.,.F.,(4,4),(-7.,0.500000000000001),.UNSPECIFIED.);
#36=B_SPLINE_CURVE_WITH_KNOTS('',3,(#1084,#1085,#1086,#1087),
 .UNSPECIFIED.,.F.,.F.,(4,4),(-5.375,2.125),.UNSPECIFIED.);
#37=B_SPLINE_CURVE_WITH_KNOTS('',3,(#1153,#1154,#1155,#1156),
 .UNSPECIFIED.,.F.,.F.,(4,4),(-2.215,5.285),.UNSPECIFIED.);
#38=B_SPLINE_CURVE_WITH_KNOTS('',3,(#1188,#1189,#1190,#1191,#1192,#1193,
#1194,#1195,#1196,#1197,#1198,#1199,#1200),.UNSPECIFIED.,.F.,.F.,(4,3,3,
3,4),(0.,0.101303264436336,0.202606528872671,0.337677548121119,0.472748567369567),
 .UNSPECIFIED.);
#39=B_SPLINE_CURVE_WITH_KNOTS('',3,(#1202,#1203,#1204,#1205),
 .UNSPECIFIED.,.F.,.F.,(4,4),(-5.285,2.215),.UNSPECIFIED.);
#40=B_SPLINE_CURVE_WITH_KNOTS('',3,(#1206,#1207,#1208,#1209,#1210,#1211,
#1212,#1213,#1214,#1215,#1216,#1217,#1218),.UNSPECIFIED.,.F.,.F.,(4,3,3,
3,4),(-2.77555756156289E-17,0.135071019248448,0.270142038496895,0.371445302933231,
0.472748567369566),.UNSPECIFIED.);
#41=B_SPLINE_CURVE_WITH_KNOTS('',3,(#1232,#1233,#1234,#1235,#1236,#1237,
#1238,#1239,#1240,#1241),.UNSPECIFIED.,.F.,.F.,(4,3,3,4),(0.,0.06468783227591,
0.107813053793183,0.150938275310457),.UNSPECIFIED.);
#42=B_SPLINE_CURVE_WITH_KNOTS('',3,(#1243,#1244,#1245,#1246,#1247,#1248,
#1249),.UNSPECIFIED.,.F.,.F.,(4,3,4),(0.,0.0849653325479438,0.169930665095888),
 .UNSPECIFIED.);
#43=B_SPLINE_CURVE_WITH_KNOTS('',3,(#1254,#1255,#1256,#1257),
 .UNSPECIFIED.,.F.,.F.,(4,4),(-2.125,5.375),.UNSPECIFIED.);
#44=B_SPLINE_CURVE_WITH_KNOTS('',3,(#1282,#1283,#1284,#1285,#1286,#1287,
#1288,#1289,#1290,#1291),.UNSPECIFIED.,.F.,.F.,(4,3,3,4),(0.,0.0309908777396163,
0.0619817554792326,0.108468072088657),.UNSPECIFIED.);
#45=B_SPLINE_CURVE_WITH_KNOTS('',3,(#1313,#1314,#1315,#1316,#1317,#1318,
#1319),.UNSPECIFIED.,.F.,.F.,(4,3,4),(0.,0.0652011421071223,0.130402284214245),
 .UNSPECIFIED.);
#46=B_SPLINE_CURVE_WITH_KNOTS('',3,(#1320,#1321,#1322,#1323),
 .UNSPECIFIED.,.F.,.F.,(4,4),(-0.500000000000001,7.),.UNSPECIFIED.);
#47=CYLINDRICAL_SURFACE('',#751,1.25);
#48=CYLINDRICAL_SURFACE('',#757,1.25);
#49=CYLINDRICAL_SURFACE('',#768,4.1);
#50=CYLINDRICAL_SURFACE('',#771,4.1);
#51=CYLINDRICAL_SURFACE('',#778,3.);
#52=CYLINDRICAL_SURFACE('',#786,4.05);
#53=CYLINDRICAL_SURFACE('',#789,4.05);
#54=CYLINDRICAL_SURFACE('',#803,0.95);
#55=CYLINDRICAL_SURFACE('',#804,0.95);
#56=CIRCLE('',#750,1.25);
#57=CIRCLE('',#752,1.25);
#58=CIRCLE('',#754,1.25);
#59=CIRCLE('',#756,1.25);
#60=CIRCLE('',#758,1.25);
#61=CIRCLE('',#760,1.25);
#62=CIRCLE('',#762,4.1);
#63=CIRCLE('',#763,4.1);
#64=CIRCLE('',#764,4.05);
#65=CIRCLE('',#765,4.05);
#66=CIRCLE('',#766,2.01005050633884);
#67=CIRCLE('',#767,2.01005050633884);
#68=CIRCLE('',#769,4.1);
#69=CIRCLE('',#772,4.1);
#70=CIRCLE('',#775,1.7);
#71=CIRCLE('',#777,1.7);
#72=CIRCLE('',#779,3.);
#73=CIRCLE('',#780,3.);
#74=CIRCLE('',#787,4.05);
#75=CIRCLE('',#790,4.05);
#76=CIRCLE('',#795,0.95);
#77=CIRCLE('',#796,0.95);
#78=CIRCLE('',#798,0.95);
#79=CIRCLE('',#801,0.95);
#80=FACE_OUTER_BOUND('',#127,.T.);
#81=FACE_OUTER_BOUND('',#128,.T.);
#82=FACE_OUTER_BOUND('',#129,.T.);
#83=FACE_OUTER_BOUND('',#130,.T.);
#84=FACE_OUTER_BOUND('',#131,.T.);
#85=FACE_OUTER_BOUND('',#132,.T.);
#86=FACE_OUTER_BOUND('',#133,.T.);
#87=FACE_OUTER_BOUND('',#134,.T.);
#88=FACE_OUTER_BOUND('',#135,.T.);
#89=FACE_OUTER_BOUND('',#136,.T.);
#90=FACE_OUTER_BOUND('',#137,.T.);
#91=FACE_OUTER_BOUND('',#138,.T.);
#92=FACE_OUTER_BOUND('',#139,.T.);
#93=FACE_OUTER_BOUND('',#140,.T.);
#94=FACE_OUTER_BOUND('',#141,.T.);
#95=FACE_OUTER_BOUND('',#142,.T.);
#96=FACE_OUTER_BOUND('',#143,.T.);
#97=FACE_OUTER_BOUND('',#150,.T.);
#98=FACE_OUTER_BOUND('',#151,.T.);
#99=FACE_OUTER_BOUND('',#152,.T.);
#100=FACE_OUTER_BOUND('',#153,.T.);
#101=FACE_OUTER_BOUND('',#154,.T.);
#102=FACE_OUTER_BOUND('',#155,.T.);
#103=FACE_OUTER_BOUND('',#156,.T.);
#104=FACE_OUTER_BOUND('',#157,.T.);
#105=FACE_OUTER_BOUND('',#158,.T.);
#106=FACE_OUTER_BOUND('',#159,.T.);
#107=FACE_OUTER_BOUND('',#160,.T.);
#108=FACE_OUTER_BOUND('',#161,.T.);
#109=FACE_OUTER_BOUND('',#163,.T.);
#110=FACE_OUTER_BOUND('',#164,.T.);
#111=FACE_OUTER_BOUND('',#165,.T.);
#112=FACE_OUTER_BOUND('',#166,.T.);
#113=FACE_OUTER_BOUND('',#167,.T.);
#114=FACE_OUTER_BOUND('',#168,.T.);
#115=FACE_OUTER_BOUND('',#169,.T.);
#116=FACE_OUTER_BOUND('',#170,.T.);
#117=FACE_OUTER_BOUND('',#171,.T.);
#118=FACE_OUTER_BOUND('',#172,.T.);
#119=FACE_OUTER_BOUND('',#179,.T.);
#120=FACE_OUTER_BOUND('',#180,.T.);
#121=FACE_OUTER_BOUND('',#181,.T.);
#122=FACE_OUTER_BOUND('',#182,.T.);
#123=FACE_OUTER_BOUND('',#183,.T.);
#124=FACE_OUTER_BOUND('',#184,.T.);
#125=FACE_OUTER_BOUND('',#185,.T.);
#126=FACE_OUTER_BOUND('',#186,.T.);
#127=EDGE_LOOP('',(#459,#460,#461,#462));
#128=EDGE_LOOP('',(#463,#464,#465,#466));
#129=EDGE_LOOP('',(#467,#468,#469,#470));
#130=EDGE_LOOP('',(#471,#472,#473,#474));
#131=EDGE_LOOP('',(#475,#476,#477,#478));
#132=EDGE_LOOP('',(#479,#480,#481,#482));
#133=EDGE_LOOP('',(#483,#484,#485,#486));
#134=EDGE_LOOP('',(#487,#488,#489,#490));
#135=EDGE_LOOP('',(#491,#492,#493,#494));
#136=EDGE_LOOP('',(#495,#496,#497,#498));
#137=EDGE_LOOP('',(#499));
#138=EDGE_LOOP('',(#500,#501,#502,#503));
#139=EDGE_LOOP('',(#504));
#140=EDGE_LOOP('',(#505));
#141=EDGE_LOOP('',(#506,#507,#508,#509));
#142=EDGE_LOOP('',(#510));
#143=EDGE_LOOP('',(#511,#512,#513,#514));
#144=EDGE_LOOP('',(#515));
#145=EDGE_LOOP('',(#516));
#146=EDGE_LOOP('',(#517));
#147=EDGE_LOOP('',(#518));
#148=EDGE_LOOP('',(#519));
#149=EDGE_LOOP('',(#520));
#150=EDGE_LOOP('',(#521,#522,#523,#524));
#151=EDGE_LOOP('',(#525));
#152=EDGE_LOOP('',(#526,#527,#528,#529));
#153=EDGE_LOOP('',(#530));
#154=EDGE_LOOP('',(#531));
#155=EDGE_LOOP('',(#532));
#156=EDGE_LOOP('',(#533,#534,#535,#536));
#157=EDGE_LOOP('',(#537,#538,#539,#540));
#158=EDGE_LOOP('',(#541,#542,#543,#544));
#159=EDGE_LOOP('',(#545,#546,#547,#548));
#160=EDGE_LOOP('',(#549,#550,#551,#552));
#161=EDGE_LOOP('',(#553,#554,#555,#556));
#162=EDGE_LOOP('',(#557,#558,#559,#560));
#163=EDGE_LOOP('',(#561,#562,#563,#564));
#164=EDGE_LOOP('',(#565,#566,#567,#568));
#165=EDGE_LOOP('',(#569));
#166=EDGE_LOOP('',(#570,#571,#572,#573));
#167=EDGE_LOOP('',(#574));
#168=EDGE_LOOP('',(#575,#576,#577,#578,#579,#580,#581,#582));
#169=EDGE_LOOP('',(#583,#584,#585,#586));
#170=EDGE_LOOP('',(#587,#588,#589,#590));
#171=EDGE_LOOP('',(#591,#592,#593,#594));
#172=EDGE_LOOP('',(#595,#596,#597,#598));
#173=EDGE_LOOP('',(#599,#600,#601,#602));
#174=EDGE_LOOP('',(#603,#604,#605,#606));
#175=EDGE_LOOP('',(#607));
#176=EDGE_LOOP('',(#608));
#177=EDGE_LOOP('',(#609));
#178=EDGE_LOOP('',(#610));
#179=EDGE_LOOP('',(#611,#612,#613,#614));
#180=EDGE_LOOP('',(#615,#616,#617,#618));
#181=EDGE_LOOP('',(#619,#620,#621,#622));
#182=EDGE_LOOP('',(#623,#624,#625,#626));
#183=EDGE_LOOP('',(#627,#628,#629,#630));
#184=EDGE_LOOP('',(#631,#632,#633,#634));
#185=EDGE_LOOP('',(#635,#636,#637,#638));
#186=EDGE_LOOP('',(#639,#640,#641,#642,#643,#644,#645,#646));
#187=LINE('',#1007,#245);
#188=LINE('',#1009,#246);
#189=LINE('',#1011,#247);
#190=LINE('',#1012,#248);
#191=LINE('',#1015,#249);
#192=LINE('',#1017,#250);
#193=LINE('',#1018,#251);
#194=LINE('',#1021,#252);
#195=LINE('',#1023,#253);
#196=LINE('',#1024,#254);
#197=LINE('',#1026,#255);
#198=LINE('',#1027,#256);
#199=LINE('',#1032,#257);
#200=LINE('',#1034,#258);
#201=LINE('',#1036,#259);
#202=LINE('',#1037,#260);
#203=LINE('',#1040,#261);
#204=LINE('',#1042,#262);
#205=LINE('',#1043,#263);
#206=LINE('',#1046,#264);
#207=LINE('',#1048,#265);
#208=LINE('',#1049,#266);
#209=LINE('',#1051,#267);
#210=LINE('',#1052,#268);
#211=LINE('',#1060,#269);
#212=LINE('',#1070,#270);
#213=LINE('',#1082,#271);
#214=LINE('',#1088,#272);
#215=LINE('',#1103,#273);
#216=LINE('',#1108,#274);
#217=LINE('',#1122,#275);
#218=LINE('',#1125,#276);
#219=LINE('',#1129,#277);
#220=LINE('',#1131,#278);
#221=LINE('',#1133,#279);
#222=LINE('',#1134,#280);
#223=LINE('',#1137,#281);
#224=LINE('',#1139,#282);
#225=LINE('',#1140,#283);
#226=LINE('',#1143,#284);
#227=LINE('',#1145,#285);
#228=LINE('',#1146,#286);
#229=LINE('',#1148,#287);
#230=LINE('',#1149,#288);
#231=LINE('',#1157,#289);
#232=LINE('',#1158,#290);
#233=LINE('',#1222,#291);
#234=LINE('',#1227,#292);
#235=LINE('',#1231,#293);
#236=LINE('',#1250,#294);
#237=LINE('',#1253,#295);
#238=LINE('',#1331,#296);
#239=LINE('',#1334,#297);
#240=LINE('',#1337,#298);
#241=LINE('',#1340,#299);
#242=LINE('',#1342,#300);
#243=LINE('',#1344,#301);
#244=LINE('',#1346,#302);
#245=VECTOR('',#811,10.);
#246=VECTOR('',#812,10.);
#247=VECTOR('',#813,10.);
#248=VECTOR('',#814,10.);
#249=VECTOR('',#817,10.);
#250=VECTOR('',#818,10.);
#251=VECTOR('',#819,10.);
#252=VECTOR('',#822,10.);
#253=VECTOR('',#823,10.);
#254=VECTOR('',#824,10.);
#255=VECTOR('',#827,10.);
#256=VECTOR('',#828,10.);
#257=VECTOR('',#833,10.);
#258=VECTOR('',#834,10.);
#259=VECTOR('',#835,10.);
#260=VECTOR('',#836,10.);
#261=VECTOR('',#839,10.);
#262=VECTOR('',#840,10.);
#263=VECTOR('',#841,10.);
#264=VECTOR('',#844,10.);
#265=VECTOR('',#845,10.);
#266=VECTOR('',#846,10.);
#267=VECTOR('',#849,10.);
#268=VECTOR('',#850,10.);
#269=VECTOR('',#861,1.25);
#270=VECTOR('',#874,1.25);
#271=VECTOR('',#881,1000.);
#272=VECTOR('',#882,1000.);
#273=VECTOR('',#897,4.1);
#274=VECTOR('',#904,4.1);
#275=VECTOR('',#921,10.);
#276=VECTOR('',#924,10.);
#277=VECTOR('',#927,10.);
#278=VECTOR('',#928,10.);
#279=VECTOR('',#929,10.);
#280=VECTOR('',#930,10.);
#281=VECTOR('',#933,10.);
#282=VECTOR('',#934,10.);
#283=VECTOR('',#935,10.);
#284=VECTOR('',#938,10.);
#285=VECTOR('',#939,10.);
#286=VECTOR('',#940,10.);
#287=VECTOR('',#943,10.);
#288=VECTOR('',#944,10.);
#289=VECTOR('',#947,10.);
#290=VECTOR('',#948,1000.);
#291=VECTOR('',#953,3.15);
#292=VECTOR('',#960,3.15);
#293=VECTOR('',#965,10.);
#294=VECTOR('',#966,1000.);
#295=VECTOR('',#969,10.);
#296=VECTOR('',#978,1.425);
#297=VECTOR('',#983,1.425);
#298=VECTOR('',#986,1.425);
#299=VECTOR('',#991,1.425);
#300=VECTOR('',#994,0.85);
#301=VECTOR('',#997,0.85);
#302=VECTOR('',#1000,1000.);
#303=VERTEX_POINT('',#1005);
#304=VERTEX_POINT('',#1006);
#305=VERTEX_POINT('',#1008);
#306=VERTEX_POINT('',#1010);
#307=VERTEX_POINT('',#1014);
#308=VERTEX_POINT('',#1016);
#309=VERTEX_POINT('',#1020);
#310=VERTEX_POINT('',#1022);
#311=VERTEX_POINT('',#1030);
#312=VERTEX_POINT('',#1031);
#313=VERTEX_POINT('',#1033);
#314=VERTEX_POINT('',#1035);
#315=VERTEX_POINT('',#1039);
#316=VERTEX_POINT('',#1041);
#317=VERTEX_POINT('',#1045);
#318=VERTEX_POINT('',#1047);
#319=VERTEX_POINT('',#1055);
#320=VERTEX_POINT('',#1058);
#321=VERTEX_POINT('',#1062);
#322=VERTEX_POINT('',#1065);
#323=VERTEX_POINT('',#1068);
#324=VERTEX_POINT('',#1072);
#325=VERTEX_POINT('',#1075);
#326=VERTEX_POINT('',#1076);
#327=VERTEX_POINT('',#1081);
#328=VERTEX_POINT('',#1083);
#329=VERTEX_POINT('',#1089);
#330=VERTEX_POINT('',#1091);
#331=VERTEX_POINT('',#1093);
#332=VERTEX_POINT('',#1095);
#333=VERTEX_POINT('',#1097);
#334=VERTEX_POINT('',#1099);
#335=VERTEX_POINT('',#1102);
#336=VERTEX_POINT('',#1107);
#337=VERTEX_POINT('',#1112);
#338=VERTEX_POINT('',#1115);
#339=VERTEX_POINT('',#1118);
#340=VERTEX_POINT('',#1119);
#341=VERTEX_POINT('',#1121);
#342=VERTEX_POINT('',#1123);
#343=VERTEX_POINT('',#1127);
#344=VERTEX_POINT('',#1128);
#345=VERTEX_POINT('',#1130);
#346=VERTEX_POINT('',#1132);
#347=VERTEX_POINT('',#1136);
#348=VERTEX_POINT('',#1138);
#349=VERTEX_POINT('',#1142);
#350=VERTEX_POINT('',#1144);
#351=VERTEX_POINT('',#1151);
#352=VERTEX_POINT('',#1152);
#353=VERTEX_POINT('',#1187);
#354=VERTEX_POINT('',#1201);
#355=VERTEX_POINT('',#1220);
#356=VERTEX_POINT('',#1225);
#357=VERTEX_POINT('',#1230);
#358=VERTEX_POINT('',#1242);
#359=VERTEX_POINT('',#1252);
#360=VERTEX_POINT('',#1312);
#361=VERTEX_POINT('',#1325);
#362=VERTEX_POINT('',#1327);
#363=VERTEX_POINT('',#1330);
#364=VERTEX_POINT('',#1336);
#365=EDGE_CURVE('',#303,#304,#187,.T.);
#366=EDGE_CURVE('',#303,#305,#188,.T.);
#367=EDGE_CURVE('',#305,#306,#189,.T.);
#368=EDGE_CURVE('',#304,#306,#190,.T.);
#369=EDGE_CURVE('',#307,#303,#191,.T.);
#370=EDGE_CURVE('',#307,#308,#192,.T.);
#371=EDGE_CURVE('',#308,#305,#193,.T.);
#372=EDGE_CURVE('',#309,#307,#194,.T.);
#373=EDGE_CURVE('',#309,#310,#195,.T.);
#374=EDGE_CURVE('',#310,#308,#196,.T.);
#375=EDGE_CURVE('',#304,#309,#197,.T.);
#376=EDGE_CURVE('',#306,#310,#198,.T.);
#377=EDGE_CURVE('',#311,#312,#199,.T.);
#378=EDGE_CURVE('',#311,#313,#200,.T.);
#379=EDGE_CURVE('',#313,#314,#201,.T.);
#380=EDGE_CURVE('',#312,#314,#202,.T.);
#381=EDGE_CURVE('',#315,#311,#203,.T.);
#382=EDGE_CURVE('',#315,#316,#204,.T.);
#383=EDGE_CURVE('',#316,#313,#205,.T.);
#384=EDGE_CURVE('',#317,#315,#206,.T.);
#385=EDGE_CURVE('',#317,#318,#207,.T.);
#386=EDGE_CURVE('',#318,#316,#208,.T.);
#387=EDGE_CURVE('',#312,#317,#209,.T.);
#388=EDGE_CURVE('',#314,#318,#210,.T.);
#389=EDGE_CURVE('',#319,#319,#56,.T.);
#390=EDGE_CURVE('',#320,#320,#57,.T.);
#391=EDGE_CURVE('',#320,#319,#211,.T.);
#392=EDGE_CURVE('',#321,#321,#58,.T.);
#393=EDGE_CURVE('',#322,#322,#59,.T.);
#394=EDGE_CURVE('',#323,#323,#60,.T.);
#395=EDGE_CURVE('',#323,#322,#212,.T.);
#396=EDGE_CURVE('',#324,#324,#61,.T.);
#397=EDGE_CURVE('',#325,#326,#35,.T.);
#398=EDGE_CURVE('',#327,#325,#213,.T.);
#399=EDGE_CURVE('',#328,#327,#36,.T.);
#400=EDGE_CURVE('',#328,#326,#214,.T.);
#401=EDGE_CURVE('',#329,#329,#62,.T.);
#402=EDGE_CURVE('',#330,#330,#63,.T.);
#403=EDGE_CURVE('',#331,#331,#64,.F.);
#404=EDGE_CURVE('',#332,#332,#65,.T.);
#405=EDGE_CURVE('',#333,#333,#66,.F.);
#406=EDGE_CURVE('',#334,#334,#67,.F.);
#407=EDGE_CURVE('',#329,#335,#215,.T.);
#408=EDGE_CURVE('',#335,#335,#68,.T.);
#409=EDGE_CURVE('',#330,#336,#216,.T.);
#410=EDGE_CURVE('',#336,#336,#69,.T.);
#411=EDGE_CURVE('',#337,#337,#70,.T.);
#412=EDGE_CURVE('',#338,#338,#71,.T.);
#413=EDGE_CURVE('',#339,#340,#72,.T.);
#414=EDGE_CURVE('',#340,#341,#217,.T.);
#415=EDGE_CURVE('',#341,#342,#73,.T.);
#416=EDGE_CURVE('',#342,#339,#218,.T.);
#417=EDGE_CURVE('',#343,#344,#219,.T.);
#418=EDGE_CURVE('',#344,#345,#220,.T.);
#419=EDGE_CURVE('',#345,#346,#221,.T.);
#420=EDGE_CURVE('',#343,#346,#222,.T.);
#421=EDGE_CURVE('',#345,#347,#223,.T.);
#422=EDGE_CURVE('',#348,#347,#224,.T.);
#423=EDGE_CURVE('',#346,#348,#225,.T.);
#424=EDGE_CURVE('',#349,#344,#226,.T.);
#425=EDGE_CURVE('',#350,#343,#227,.T.);
#426=EDGE_CURVE('',#350,#349,#228,.T.);
#427=EDGE_CURVE('',#347,#349,#229,.T.);
#428=EDGE_CURVE('',#348,#350,#230,.T.);
#429=EDGE_CURVE('',#351,#352,#37,.T.);
#430=EDGE_CURVE('',#339,#351,#231,.T.);
#431=EDGE_CURVE('',#342,#352,#232,.T.);
#432=EDGE_CURVE('',#352,#353,#38,.T.);
#433=EDGE_CURVE('',#353,#354,#39,.T.);
#434=EDGE_CURVE('',#354,#351,#40,.T.);
#435=EDGE_CURVE('',#355,#355,#74,.F.);
#436=EDGE_CURVE('',#355,#331,#233,.T.);
#437=EDGE_CURVE('',#356,#356,#75,.T.);
#438=EDGE_CURVE('',#356,#332,#234,.T.);
#439=EDGE_CURVE('',#357,#354,#235,.T.);
#440=EDGE_CURVE('',#327,#357,#41,.T.);
#441=EDGE_CURVE('',#358,#325,#42,.T.);
#442=EDGE_CURVE('',#358,#340,#236,.T.);
#443=EDGE_CURVE('',#359,#353,#237,.T.);
#444=EDGE_CURVE('',#357,#359,#43,.T.);
#445=EDGE_CURVE('',#359,#328,#44,.T.);
#446=EDGE_CURVE('',#326,#360,#45,.T.);
#447=EDGE_CURVE('',#360,#358,#46,.T.);
#448=EDGE_CURVE('',#361,#361,#76,.F.);
#449=EDGE_CURVE('',#362,#362,#77,.F.);
#450=EDGE_CURVE('',#337,#363,#238,.T.);
#451=EDGE_CURVE('',#363,#363,#78,.T.);
#452=EDGE_CURVE('',#334,#324,#239,.T.);
#453=EDGE_CURVE('',#338,#364,#240,.T.);
#454=EDGE_CURVE('',#364,#364,#79,.T.);
#455=EDGE_CURVE('',#333,#321,#241,.T.);
#456=EDGE_CURVE('',#362,#363,#242,.T.);
#457=EDGE_CURVE('',#361,#364,#243,.T.);
#458=EDGE_CURVE('',#360,#341,#244,.T.);
#459=ORIENTED_EDGE('',*,*,#365,.F.);
#460=ORIENTED_EDGE('',*,*,#366,.T.);
#461=ORIENTED_EDGE('',*,*,#367,.T.);
#462=ORIENTED_EDGE('',*,*,#368,.F.);
#463=ORIENTED_EDGE('',*,*,#369,.F.);
#464=ORIENTED_EDGE('',*,*,#370,.T.);
#465=ORIENTED_EDGE('',*,*,#371,.T.);
#466=ORIENTED_EDGE('',*,*,#366,.F.);
#467=ORIENTED_EDGE('',*,*,#372,.F.);
#468=ORIENTED_EDGE('',*,*,#373,.T.);
#469=ORIENTED_EDGE('',*,*,#374,.T.);
#470=ORIENTED_EDGE('',*,*,#370,.F.);
#471=ORIENTED_EDGE('',*,*,#375,.F.);
#472=ORIENTED_EDGE('',*,*,#368,.T.);
#473=ORIENTED_EDGE('',*,*,#376,.T.);
#474=ORIENTED_EDGE('',*,*,#373,.F.);
#475=ORIENTED_EDGE('',*,*,#376,.F.);
#476=ORIENTED_EDGE('',*,*,#367,.F.);
#477=ORIENTED_EDGE('',*,*,#371,.F.);
#478=ORIENTED_EDGE('',*,*,#374,.F.);
#479=ORIENTED_EDGE('',*,*,#377,.F.);
#480=ORIENTED_EDGE('',*,*,#378,.T.);
#481=ORIENTED_EDGE('',*,*,#379,.T.);
#482=ORIENTED_EDGE('',*,*,#380,.F.);
#483=ORIENTED_EDGE('',*,*,#381,.F.);
#484=ORIENTED_EDGE('',*,*,#382,.T.);
#485=ORIENTED_EDGE('',*,*,#383,.T.);
#486=ORIENTED_EDGE('',*,*,#378,.F.);
#487=ORIENTED_EDGE('',*,*,#384,.F.);
#488=ORIENTED_EDGE('',*,*,#385,.T.);
#489=ORIENTED_EDGE('',*,*,#386,.T.);
#490=ORIENTED_EDGE('',*,*,#382,.F.);
#491=ORIENTED_EDGE('',*,*,#387,.F.);
#492=ORIENTED_EDGE('',*,*,#380,.T.);
#493=ORIENTED_EDGE('',*,*,#388,.T.);
#494=ORIENTED_EDGE('',*,*,#385,.F.);
#495=ORIENTED_EDGE('',*,*,#388,.F.);
#496=ORIENTED_EDGE('',*,*,#379,.F.);
#497=ORIENTED_EDGE('',*,*,#383,.F.);
#498=ORIENTED_EDGE('',*,*,#386,.F.);
#499=ORIENTED_EDGE('',*,*,#389,.F.);
#500=ORIENTED_EDGE('',*,*,#390,.F.);
#501=ORIENTED_EDGE('',*,*,#391,.T.);
#502=ORIENTED_EDGE('',*,*,#389,.T.);
#503=ORIENTED_EDGE('',*,*,#391,.F.);
#504=ORIENTED_EDGE('',*,*,#392,.T.);
#505=ORIENTED_EDGE('',*,*,#393,.F.);
#506=ORIENTED_EDGE('',*,*,#394,.F.);
#507=ORIENTED_EDGE('',*,*,#395,.T.);
#508=ORIENTED_EDGE('',*,*,#393,.T.);
#509=ORIENTED_EDGE('',*,*,#395,.F.);
#510=ORIENTED_EDGE('',*,*,#396,.T.);
#511=ORIENTED_EDGE('',*,*,#397,.F.);
#512=ORIENTED_EDGE('',*,*,#398,.F.);
#513=ORIENTED_EDGE('',*,*,#399,.F.);
#514=ORIENTED_EDGE('',*,*,#400,.T.);
#515=ORIENTED_EDGE('',*,*,#401,.T.);
#516=ORIENTED_EDGE('',*,*,#402,.T.);
#517=ORIENTED_EDGE('',*,*,#403,.F.);
#518=ORIENTED_EDGE('',*,*,#404,.T.);
#519=ORIENTED_EDGE('',*,*,#405,.F.);
#520=ORIENTED_EDGE('',*,*,#406,.F.);
#521=ORIENTED_EDGE('',*,*,#401,.F.);
#522=ORIENTED_EDGE('',*,*,#407,.T.);
#523=ORIENTED_EDGE('',*,*,#408,.T.);
#524=ORIENTED_EDGE('',*,*,#407,.F.);
#525=ORIENTED_EDGE('',*,*,#408,.F.);
#526=ORIENTED_EDGE('',*,*,#402,.F.);
#527=ORIENTED_EDGE('',*,*,#409,.T.);
#528=ORIENTED_EDGE('',*,*,#410,.T.);
#529=ORIENTED_EDGE('',*,*,#409,.F.);
#530=ORIENTED_EDGE('',*,*,#410,.F.);
#531=ORIENTED_EDGE('',*,*,#411,.F.);
#532=ORIENTED_EDGE('',*,*,#412,.F.);
#533=ORIENTED_EDGE('',*,*,#413,.T.);
#534=ORIENTED_EDGE('',*,*,#414,.T.);
#535=ORIENTED_EDGE('',*,*,#415,.T.);
#536=ORIENTED_EDGE('',*,*,#416,.T.);
#537=ORIENTED_EDGE('',*,*,#417,.T.);
#538=ORIENTED_EDGE('',*,*,#418,.T.);
#539=ORIENTED_EDGE('',*,*,#419,.T.);
#540=ORIENTED_EDGE('',*,*,#420,.F.);
#541=ORIENTED_EDGE('',*,*,#421,.T.);
#542=ORIENTED_EDGE('',*,*,#422,.F.);
#543=ORIENTED_EDGE('',*,*,#423,.F.);
#544=ORIENTED_EDGE('',*,*,#419,.F.);
#545=ORIENTED_EDGE('',*,*,#424,.T.);
#546=ORIENTED_EDGE('',*,*,#417,.F.);
#547=ORIENTED_EDGE('',*,*,#425,.F.);
#548=ORIENTED_EDGE('',*,*,#426,.T.);
#549=ORIENTED_EDGE('',*,*,#427,.T.);
#550=ORIENTED_EDGE('',*,*,#426,.F.);
#551=ORIENTED_EDGE('',*,*,#428,.F.);
#552=ORIENTED_EDGE('',*,*,#422,.T.);
#553=ORIENTED_EDGE('',*,*,#429,.F.);
#554=ORIENTED_EDGE('',*,*,#430,.F.);
#555=ORIENTED_EDGE('',*,*,#416,.F.);
#556=ORIENTED_EDGE('',*,*,#431,.T.);
#557=ORIENTED_EDGE('',*,*,#421,.F.);
#558=ORIENTED_EDGE('',*,*,#418,.F.);
#559=ORIENTED_EDGE('',*,*,#424,.F.);
#560=ORIENTED_EDGE('',*,*,#427,.F.);
#561=ORIENTED_EDGE('',*,*,#432,.T.);
#562=ORIENTED_EDGE('',*,*,#433,.T.);
#563=ORIENTED_EDGE('',*,*,#434,.T.);
#564=ORIENTED_EDGE('',*,*,#429,.T.);
#565=ORIENTED_EDGE('',*,*,#435,.F.);
#566=ORIENTED_EDGE('',*,*,#436,.T.);
#567=ORIENTED_EDGE('',*,*,#403,.T.);
#568=ORIENTED_EDGE('',*,*,#436,.F.);
#569=ORIENTED_EDGE('',*,*,#435,.T.);
#570=ORIENTED_EDGE('',*,*,#437,.T.);
#571=ORIENTED_EDGE('',*,*,#438,.T.);
#572=ORIENTED_EDGE('',*,*,#404,.F.);
#573=ORIENTED_EDGE('',*,*,#438,.F.);
#574=ORIENTED_EDGE('',*,*,#437,.F.);
#575=ORIENTED_EDGE('',*,*,#439,.F.);
#576=ORIENTED_EDGE('',*,*,#440,.F.);
#577=ORIENTED_EDGE('',*,*,#398,.T.);
#578=ORIENTED_EDGE('',*,*,#441,.F.);
#579=ORIENTED_EDGE('',*,*,#442,.T.);
#580=ORIENTED_EDGE('',*,*,#413,.F.);
#581=ORIENTED_EDGE('',*,*,#430,.T.);
#582=ORIENTED_EDGE('',*,*,#434,.F.);
#583=ORIENTED_EDGE('',*,*,#443,.F.);
#584=ORIENTED_EDGE('',*,*,#444,.F.);
#585=ORIENTED_EDGE('',*,*,#439,.T.);
#586=ORIENTED_EDGE('',*,*,#433,.F.);
#587=ORIENTED_EDGE('',*,*,#440,.T.);
#588=ORIENTED_EDGE('',*,*,#444,.T.);
#589=ORIENTED_EDGE('',*,*,#445,.T.);
#590=ORIENTED_EDGE('',*,*,#399,.T.);
#591=ORIENTED_EDGE('',*,*,#441,.T.);
#592=ORIENTED_EDGE('',*,*,#397,.T.);
#593=ORIENTED_EDGE('',*,*,#446,.T.);
#594=ORIENTED_EDGE('',*,*,#447,.T.);
#595=ORIENTED_EDGE('',*,*,#420,.T.);
#596=ORIENTED_EDGE('',*,*,#423,.T.);
#597=ORIENTED_EDGE('',*,*,#428,.T.);
#598=ORIENTED_EDGE('',*,*,#425,.T.);
#599=ORIENTED_EDGE('',*,*,#365,.T.);
#600=ORIENTED_EDGE('',*,*,#375,.T.);
#601=ORIENTED_EDGE('',*,*,#372,.T.);
#602=ORIENTED_EDGE('',*,*,#369,.T.);
#603=ORIENTED_EDGE('',*,*,#377,.T.);
#604=ORIENTED_EDGE('',*,*,#387,.T.);
#605=ORIENTED_EDGE('',*,*,#384,.T.);
#606=ORIENTED_EDGE('',*,*,#381,.T.);
#607=ORIENTED_EDGE('',*,*,#390,.T.);
#608=ORIENTED_EDGE('',*,*,#394,.T.);
#609=ORIENTED_EDGE('',*,*,#448,.T.);
#610=ORIENTED_EDGE('',*,*,#449,.T.);
#611=ORIENTED_EDGE('',*,*,#411,.T.);
#612=ORIENTED_EDGE('',*,*,#450,.T.);
#613=ORIENTED_EDGE('',*,*,#451,.T.);
#614=ORIENTED_EDGE('',*,*,#450,.F.);
#615=ORIENTED_EDGE('',*,*,#406,.T.);
#616=ORIENTED_EDGE('',*,*,#452,.T.);
#617=ORIENTED_EDGE('',*,*,#396,.F.);
#618=ORIENTED_EDGE('',*,*,#452,.F.);
#619=ORIENTED_EDGE('',*,*,#412,.T.);
#620=ORIENTED_EDGE('',*,*,#453,.T.);
#621=ORIENTED_EDGE('',*,*,#454,.T.);
#622=ORIENTED_EDGE('',*,*,#453,.F.);
#623=ORIENTED_EDGE('',*,*,#405,.T.);
#624=ORIENTED_EDGE('',*,*,#455,.T.);
#625=ORIENTED_EDGE('',*,*,#392,.F.);
#626=ORIENTED_EDGE('',*,*,#455,.F.);
#627=ORIENTED_EDGE('',*,*,#449,.F.);
#628=ORIENTED_EDGE('',*,*,#456,.T.);
#629=ORIENTED_EDGE('',*,*,#451,.F.);
#630=ORIENTED_EDGE('',*,*,#456,.F.);
#631=ORIENTED_EDGE('',*,*,#448,.F.);
#632=ORIENTED_EDGE('',*,*,#457,.T.);
#633=ORIENTED_EDGE('',*,*,#454,.F.);
#634=ORIENTED_EDGE('',*,*,#457,.F.);
#635=ORIENTED_EDGE('',*,*,#442,.F.);
#636=ORIENTED_EDGE('',*,*,#447,.F.);
#637=ORIENTED_EDGE('',*,*,#458,.T.);
#638=ORIENTED_EDGE('',*,*,#414,.F.);
#639=ORIENTED_EDGE('',*,*,#458,.F.);
#640=ORIENTED_EDGE('',*,*,#446,.F.);
#641=ORIENTED_EDGE('',*,*,#400,.F.);
#642=ORIENTED_EDGE('',*,*,#445,.F.);
#643=ORIENTED_EDGE('',*,*,#443,.T.);
#644=ORIENTED_EDGE('',*,*,#432,.F.);
#645=ORIENTED_EDGE('',*,*,#431,.F.);
#646=ORIENTED_EDGE('',*,*,#415,.F.);
#647=PLANE('',#739);
#648=PLANE('',#740);
#649=PLANE('',#741);
#650=PLANE('',#742);
#651=PLANE('',#743);
#652=PLANE('',#744);
#653=PLANE('',#745);
#654=PLANE('',#746);
#655=PLANE('',#747);
#656=PLANE('',#748);
#657=PLANE('',#749);
#658=PLANE('',#753);
#659=PLANE('',#755);
#660=PLANE('',#759);
#661=PLANE('',#761);
#662=PLANE('',#770);
#663=PLANE('',#773);
#664=PLANE('',#774);
#665=PLANE('',#776);
#666=PLANE('',#781);
#667=PLANE('',#782);
#668=PLANE('',#783);
#669=PLANE('',#784);
#670=PLANE('',#785);
#671=PLANE('',#788);
#672=PLANE('',#791);
#673=PLANE('',#792);
#674=PLANE('',#793);
#675=PLANE('',#794);
#676=PLANE('',#805);
#677=PLANE('',#806);
#678=ADVANCED_FACE('',(#80),#647,.F.);
#679=ADVANCED_FACE('',(#81),#648,.F.);
#680=ADVANCED_FACE('',(#82),#649,.F.);
#681=ADVANCED_FACE('',(#83),#650,.F.);
#682=ADVANCED_FACE('',(#84),#651,.F.);
#683=ADVANCED_FACE('',(#85),#652,.F.);
#684=ADVANCED_FACE('',(#86),#653,.F.);
#685=ADVANCED_FACE('',(#87),#654,.F.);
#686=ADVANCED_FACE('',(#88),#655,.F.);
#687=ADVANCED_FACE('',(#89),#656,.F.);
#688=ADVANCED_FACE('',(#90),#657,.T.);
#689=ADVANCED_FACE('',(#91),#47,.F.);
#690=ADVANCED_FACE('',(#92),#658,.F.);
#691=ADVANCED_FACE('',(#93),#659,.T.);
#692=ADVANCED_FACE('',(#94),#48,.F.);
#693=ADVANCED_FACE('',(#95),#660,.F.);
#694=ADVANCED_FACE('',(#96,#22,#23,#24,#25,#26,#27),#661,.T.);
#695=ADVANCED_FACE('',(#97),#49,.F.);
#696=ADVANCED_FACE('',(#98),#662,.F.);
#697=ADVANCED_FACE('',(#99),#50,.F.);
#698=ADVANCED_FACE('',(#100),#663,.F.);
#699=ADVANCED_FACE('',(#101),#664,.F.);
#700=ADVANCED_FACE('',(#102),#665,.F.);
#701=ADVANCED_FACE('',(#103),#51,.T.);
#702=ADVANCED_FACE('',(#104),#666,.F.);
#703=ADVANCED_FACE('',(#105),#667,.T.);
#704=ADVANCED_FACE('',(#106),#668,.T.);
#705=ADVANCED_FACE('',(#107),#669,.T.);
#706=ADVANCED_FACE('',(#108,#28),#670,.T.);
#707=ADVANCED_FACE('',(#109),#19,.T.);
#708=ADVANCED_FACE('',(#110),#52,.F.);
#709=ADVANCED_FACE('',(#111),#671,.T.);
#710=ADVANCED_FACE('',(#112),#53,.F.);
#711=ADVANCED_FACE('',(#113),#672,.T.);
#712=ADVANCED_FACE('',(#114),#673,.T.);
#713=ADVANCED_FACE('',(#115),#674,.T.);
#714=ADVANCED_FACE('',(#116),#20,.T.);
#715=ADVANCED_FACE('',(#117),#21,.T.);
#716=ADVANCED_FACE('',(#118,#29,#30,#31,#32,#33,#34),#675,.T.);
#717=ADVANCED_FACE('',(#119),#15,.F.);
#718=ADVANCED_FACE('',(#120),#16,.F.);
#719=ADVANCED_FACE('',(#121),#17,.F.);
#720=ADVANCED_FACE('',(#122),#18,.F.);
#721=ADVANCED_FACE('',(#123),#54,.F.);
#722=ADVANCED_FACE('',(#124),#55,.F.);
#723=ADVANCED_FACE('',(#125),#676,.T.);
#724=ADVANCED_FACE('',(#126),#677,.T.);
#725=CLOSED_SHELL('',(#678,#679,#680,#681,#682,#683,#684,#685,#686,#687,
#688,#689,#690,#691,#692,#693,#694,#695,#696,#697,#698,#699,#700,#701,#702,
#703,#704,#705,#706,#707,#708,#709,#710,#711,#712,#713,#714,#715,#716,#717,
#718,#719,#720,#721,#722,#723,#724));
#726=DERIVED_UNIT_ELEMENT(#728,1.);
#727=DERIVED_UNIT_ELEMENT(#1353,-3.);
#728=(
MASS_UNIT()
NAMED_UNIT(*)
SI_UNIT(.KILO.,.GRAM.)
);
#729=DERIVED_UNIT((#726,#727));
#730=MEASURE_REPRESENTATION_ITEM('density measure',
POSITIVE_RATIO_MEASURE(7850.),#729);
#731=PROPERTY_DEFINITION_REPRESENTATION(#736,#733);
#732=PROPERTY_DEFINITION_REPRESENTATION(#737,#734);
#733=REPRESENTATION('material name',(#735),#1350);
#734=REPRESENTATION('density',(#730),#1350);
#735=DESCRIPTIVE_REPRESENTATION_ITEM('Steel','Steel');
#736=PROPERTY_DEFINITION('material property','material name',#1360);
#737=PROPERTY_DEFINITION('material property','density of part',#1360);
#738=AXIS2_PLACEMENT_3D('',#1003,#807,#808);
#739=AXIS2_PLACEMENT_3D('',#1004,#809,#810);
#740=AXIS2_PLACEMENT_3D('',#1013,#815,#816);
#741=AXIS2_PLACEMENT_3D('',#1019,#820,#821);
#742=AXIS2_PLACEMENT_3D('',#1025,#825,#826);
#743=AXIS2_PLACEMENT_3D('',#1028,#829,#830);
#744=AXIS2_PLACEMENT_3D('',#1029,#831,#832);
#745=AXIS2_PLACEMENT_3D('',#1038,#837,#838);
#746=AXIS2_PLACEMENT_3D('',#1044,#842,#843);
#747=AXIS2_PLACEMENT_3D('',#1050,#847,#848);
#748=AXIS2_PLACEMENT_3D('',#1053,#851,#852);
#749=AXIS2_PLACEMENT_3D('',#1054,#853,#854);
#750=AXIS2_PLACEMENT_3D('',#1056,#855,#856);
#751=AXIS2_PLACEMENT_3D('',#1057,#857,#858);
#752=AXIS2_PLACEMENT_3D('',#1059,#859,#860);
#753=AXIS2_PLACEMENT_3D('',#1061,#862,#863);
#754=AXIS2_PLACEMENT_3D('',#1063,#864,#865);
#755=AXIS2_PLACEMENT_3D('',#1064,#866,#867);
#756=AXIS2_PLACEMENT_3D('',#1066,#868,#869);
#757=AXIS2_PLACEMENT_3D('',#1067,#870,#871);
#758=AXIS2_PLACEMENT_3D('',#1069,#872,#873);
#759=AXIS2_PLACEMENT_3D('',#1071,#875,#876);
#760=AXIS2_PLACEMENT_3D('',#1073,#877,#878);
#761=AXIS2_PLACEMENT_3D('',#1074,#879,#880);
#762=AXIS2_PLACEMENT_3D('',#1090,#883,#884);
#763=AXIS2_PLACEMENT_3D('',#1092,#885,#886);
#764=AXIS2_PLACEMENT_3D('',#1094,#887,#888);
#765=AXIS2_PLACEMENT_3D('',#1096,#889,#890);
#766=AXIS2_PLACEMENT_3D('',#1098,#891,#892);
#767=AXIS2_PLACEMENT_3D('',#1100,#893,#894);
#768=AXIS2_PLACEMENT_3D('',#1101,#895,#896);
#769=AXIS2_PLACEMENT_3D('',#1104,#898,#899);
#770=AXIS2_PLACEMENT_3D('',#1105,#900,#901);
#771=AXIS2_PLACEMENT_3D('',#1106,#902,#903);
#772=AXIS2_PLACEMENT_3D('',#1109,#905,#906);
#773=AXIS2_PLACEMENT_3D('',#1110,#907,#908);
#774=AXIS2_PLACEMENT_3D('',#1111,#909,#910);
#775=AXIS2_PLACEMENT_3D('',#1113,#911,#912);
#776=AXIS2_PLACEMENT_3D('',#1114,#913,#914);
#777=AXIS2_PLACEMENT_3D('',#1116,#915,#916);
#778=AXIS2_PLACEMENT_3D('',#1117,#917,#918);
#779=AXIS2_PLACEMENT_3D('',#1120,#919,#920);
#780=AXIS2_PLACEMENT_3D('',#1124,#922,#923);
#781=AXIS2_PLACEMENT_3D('',#1126,#925,#926);
#782=AXIS2_PLACEMENT_3D('',#1135,#931,#932);
#783=AXIS2_PLACEMENT_3D('',#1141,#936,#937);
#784=AXIS2_PLACEMENT_3D('',#1147,#941,#942);
#785=AXIS2_PLACEMENT_3D('',#1150,#945,#946);
#786=AXIS2_PLACEMENT_3D('',#1219,#949,#950);
#787=AXIS2_PLACEMENT_3D('',#1221,#951,#952);
#788=AXIS2_PLACEMENT_3D('',#1223,#954,#955);
#789=AXIS2_PLACEMENT_3D('',#1224,#956,#957);
#790=AXIS2_PLACEMENT_3D('',#1226,#958,#959);
#791=AXIS2_PLACEMENT_3D('',#1228,#961,#962);
#792=AXIS2_PLACEMENT_3D('',#1229,#963,#964);
#793=AXIS2_PLACEMENT_3D('',#1251,#967,#968);
#794=AXIS2_PLACEMENT_3D('',#1324,#970,#971);
#795=AXIS2_PLACEMENT_3D('',#1326,#972,#973);
#796=AXIS2_PLACEMENT_3D('',#1328,#974,#975);
#797=AXIS2_PLACEMENT_3D('',#1329,#976,#977);
#798=AXIS2_PLACEMENT_3D('',#1332,#979,#980);
#799=AXIS2_PLACEMENT_3D('',#1333,#981,#982);
#800=AXIS2_PLACEMENT_3D('',#1335,#984,#985);
#801=AXIS2_PLACEMENT_3D('',#1338,#987,#988);
#802=AXIS2_PLACEMENT_3D('',#1339,#989,#990);
#803=AXIS2_PLACEMENT_3D('',#1341,#992,#993);
#804=AXIS2_PLACEMENT_3D('',#1343,#995,#996);
#805=AXIS2_PLACEMENT_3D('',#1345,#998,#999);
#806=AXIS2_PLACEMENT_3D('',#1347,#1001,#1002);
#807=DIRECTION('axis',(0.,0.,1.));
#808=DIRECTION('refdir',(1.,0.,0.));
#809=DIRECTION('center_axis',(1.,0.,0.));
#810=DIRECTION('ref_axis',(0.,-1.,0.));
#811=DIRECTION('',(0.,-1.,-1.42547451204917E-48));
#812=DIRECTION('',(0.,0.,-1.));
#813=DIRECTION('',(0.,-1.,0.));
#814=DIRECTION('',(0.,0.,-1.));
#815=DIRECTION('center_axis',(0.,1.,0.));
#816=DIRECTION('ref_axis',(1.,0.,0.));
#817=DIRECTION('',(1.,0.,-1.08673789965299E-16));
#818=DIRECTION('',(0.,0.,-1.));
#819=DIRECTION('',(1.,0.,0.));
#820=DIRECTION('center_axis',(-1.,0.,0.));
#821=DIRECTION('ref_axis',(0.,1.,-1.2288333839291E-16));
#822=DIRECTION('',(0.,1.,1.42547451204917E-48));
#823=DIRECTION('',(0.,0.,-1.));
#824=DIRECTION('',(0.,1.,-1.2288333839291E-16));
#825=DIRECTION('center_axis',(0.,-1.,0.));
#826=DIRECTION('ref_axis',(-1.,0.,2.07956418818771E-16));
#827=DIRECTION('',(-1.,0.,1.08673789965299E-16));
#828=DIRECTION('',(-1.,0.,2.07956418818771E-16));
#829=DIRECTION('center_axis',(0.,0.,-1.));
#830=DIRECTION('ref_axis',(-1.,0.,0.));
#831=DIRECTION('center_axis',(0.,-1.,0.));
#832=DIRECTION('ref_axis',(-1.,0.,0.));
#833=DIRECTION('',(-1.,0.,1.08673789965299E-16));
#834=DIRECTION('',(0.,0.,-1.));
#835=DIRECTION('',(-1.,0.,0.));
#836=DIRECTION('',(0.,0.,-1.));
#837=DIRECTION('center_axis',(1.,0.,0.));
#838=DIRECTION('ref_axis',(0.,-1.,-4.69269263444711E-13));
#839=DIRECTION('',(0.,-1.,-1.42547451204917E-48));
#840=DIRECTION('',(0.,0.,-1.));
#841=DIRECTION('',(0.,-1.,-4.69269263444711E-13));
#842=DIRECTION('center_axis',(0.,1.,0.));
#843=DIRECTION('ref_axis',(1.,0.,7.9414798429105E-13));
#844=DIRECTION('',(1.,0.,-1.08673789965299E-16));
#845=DIRECTION('',(0.,0.,-1.));
#846=DIRECTION('',(1.,0.,7.9414798429105E-13));
#847=DIRECTION('center_axis',(-1.,0.,0.));
#848=DIRECTION('ref_axis',(0.,1.,0.));
#849=DIRECTION('',(0.,1.,1.42547451204917E-48));
#850=DIRECTION('',(0.,1.,0.));
#851=DIRECTION('center_axis',(0.,0.,-1.));
#852=DIRECTION('ref_axis',(-1.,0.,0.));
#853=DIRECTION('center_axis',(0.,0.,1.));
#854=DIRECTION('ref_axis',(-1.,0.,0.));
#855=DIRECTION('center_axis',(0.,0.,-1.));
#856=DIRECTION('ref_axis',(-1.,0.,0.));
#857=DIRECTION('center_axis',(0.,0.,-1.));
#858=DIRECTION('ref_axis',(-1.,0.,0.));
#859=DIRECTION('center_axis',(-1.08673789965299E-16,1.42547451204917E-48,
-1.));
#860=DIRECTION('ref_axis',(-1.,0.,0.));
#861=DIRECTION('',(0.,0.,-1.));
#862=DIRECTION('center_axis',(0.,0.,1.));
#863=DIRECTION('ref_axis',(-1.,0.,0.));
#864=DIRECTION('center_axis',(0.,0.,-1.));
#865=DIRECTION('ref_axis',(-1.,0.,0.));
#866=DIRECTION('center_axis',(0.,0.,1.));
#867=DIRECTION('ref_axis',(-1.,0.,0.));
#868=DIRECTION('center_axis',(0.,0.,-1.));
#869=DIRECTION('ref_axis',(-1.,0.,0.));
#870=DIRECTION('center_axis',(0.,0.,-1.));
#871=DIRECTION('ref_axis',(-1.,0.,0.));
#872=DIRECTION('center_axis',(-1.08673789965299E-16,1.42547451204917E-48,
-1.));
#873=DIRECTION('ref_axis',(-1.,0.,0.));
#874=DIRECTION('',(0.,0.,-1.));
#875=DIRECTION('center_axis',(0.,0.,1.));
#876=DIRECTION('ref_axis',(-1.,0.,0.));
#877=DIRECTION('center_axis',(0.,0.,-1.));
#878=DIRECTION('ref_axis',(-1.,0.,0.));
#879=DIRECTION('center_axis',(-1.08673789965299E-16,-8.37862109671899E-33,
-1.));
#880=DIRECTION('ref_axis',(1.,-9.10536509263664E-49,-1.08673789965299E-16));
#881=DIRECTION('',(-7.60942069395212E-17,-1.,1.09175234197455E-34));
#882=DIRECTION('',(7.60942069395212E-17,-1.,1.09175234197455E-34));
#883=DIRECTION('center_axis',(1.08673789965299E-16,8.37862109671899E-33,
1.));
#884=DIRECTION('ref_axis',(-1.,0.,0.));
#885=DIRECTION('center_axis',(1.08673789965299E-16,8.37862109671899E-33,
1.));
#886=DIRECTION('ref_axis',(-1.,0.,0.));
#887=DIRECTION('center_axis',(1.08673789965299E-16,8.37862109671899E-33,
1.));
#888=DIRECTION('ref_axis',(-1.,0.,1.08673789965299E-16));
#889=DIRECTION('center_axis',(1.08673789965299E-16,8.37862109671899E-33,
1.));
#890=DIRECTION('ref_axis',(1.,0.,1.08673789965299E-16));
#891=DIRECTION('center_axis',(-1.08673789965299E-16,8.37862109671899E-33,
1.));
#892=DIRECTION('ref_axis',(-1.,0.,0.));
#893=DIRECTION('center_axis',(1.08673789965299E-16,8.37862109671899E-33,
1.));
#894=DIRECTION('ref_axis',(-1.,0.,0.));
#895=DIRECTION('center_axis',(0.,0.,1.));
#896=DIRECTION('ref_axis',(-1.,0.,0.));
#897=DIRECTION('',(0.,0.,1.));
#898=DIRECTION('center_axis',(0.,0.,1.));
#899=DIRECTION('ref_axis',(-1.,0.,0.));
#900=DIRECTION('center_axis',(0.,0.,1.));
#901=DIRECTION('ref_axis',(-1.,0.,0.));
#902=DIRECTION('center_axis',(0.,0.,1.));
#903=DIRECTION('ref_axis',(-1.,0.,0.));
#904=DIRECTION('',(0.,0.,1.));
#905=DIRECTION('center_axis',(0.,0.,1.));
#906=DIRECTION('ref_axis',(-1.,0.,0.));
#907=DIRECTION('center_axis',(0.,0.,1.));
#908=DIRECTION('ref_axis',(-1.,0.,0.));
#909=DIRECTION('center_axis',(1.24602872279575E-96,-1.3684555315672E-48,
-1.));
#910=DIRECTION('ref_axis',(1.,0.,1.24602872279575E-96));
#911=DIRECTION('center_axis',(1.24602872279575E-96,-1.3684555315672E-48,
-1.));
#912=DIRECTION('ref_axis',(-1.,0.,0.));
#913=DIRECTION('center_axis',(1.24602872279575E-96,-1.3684555315672E-48,
-1.));
#914=DIRECTION('ref_axis',(1.,0.,1.24602872279575E-96));
#915=DIRECTION('center_axis',(1.24602872279575E-96,-1.3684555315672E-48,
-1.));
#916=DIRECTION('ref_axis',(-1.,0.,0.));
#917=DIRECTION('center_axis',(-1.,-7.60942069395211E-17,1.08673789965299E-16));
#918=DIRECTION('ref_axis',(0.,-0.905204049590099,0.42497720951327));
#919=DIRECTION('center_axis',(1.,-7.60942069395212E-17,1.08673789965299E-16));
#920=DIRECTION('ref_axis',(0.,-0.905204049590099,0.42497720951327));
#921=DIRECTION('',(1.,7.60942069395211E-17,-1.08673789965299E-16));
#922=DIRECTION('center_axis',(-1.,-7.60942069395212E-17,1.08673789965299E-16));
#923=DIRECTION('ref_axis',(0.,-0.905204049590099,0.42497720951327));
#924=DIRECTION('',(-1.,-7.60942069395211E-17,1.08673789965299E-16));
#925=DIRECTION('center_axis',(1.08673789965299E-16,-0.939692620785909,0.342020143325668));
#926=DIRECTION('ref_axis',(0.,-0.342020143325668,-0.939692620785909));
#927=DIRECTION('',(0.,0.342020143325668,0.939692620785909));
#928=DIRECTION('',(1.,7.60942069395211E-17,-1.08673789965299E-16));
#929=DIRECTION('',(3.69124032657711E-17,-0.342020143325668,-0.939692620785909));
#930=DIRECTION('',(1.,7.60942069395211E-17,-1.08673789965299E-16));
#931=DIRECTION('center_axis',(-1.,-1.07924647089056E-16,0.));
#932=DIRECTION('ref_axis',(1.07924647089056E-16,-1.,-2.33071238054503E-34));
#933=DIRECTION('',(-1.07924647089056E-16,1.,1.17285804298351E-32));
#934=DIRECTION('',(0.,0.,1.));
#935=DIRECTION('',(-1.07924647089056E-16,1.,1.17285804298351E-32));
#936=DIRECTION('center_axis',(1.,0.,0.));
#937=DIRECTION('ref_axis',(0.,1.,0.));
#938=DIRECTION('',(0.,-1.,0.));
#939=DIRECTION('',(0.,-1.,-1.42547451204917E-48));
#940=DIRECTION('',(0.,0.,1.));
#941=DIRECTION('center_axis',(-7.2327232874603E-17,-1.,0.));
#942=DIRECTION('ref_axis',(1.,-7.2327232874603E-17,1.58324848551633E-34));
#943=DIRECTION('',(-1.,7.2327232874603E-17,0.));
#944=DIRECTION('',(-1.,7.2327232874603E-17,1.08673789965299E-16));
#945=DIRECTION('center_axis',(1.08673789965299E-16,2.4765169358633E-16,
1.));
#946=DIRECTION('ref_axis',(2.26134484519479E-33,-1.,2.4765169358633E-16));
#947=DIRECTION('',(7.60942069395212E-17,1.,-8.26944586252152E-33));
#948=DIRECTION('',(-7.60942069395212E-17,1.,-2.4765169358633E-16));
#949=DIRECTION('center_axis',(-1.08673789965299E-16,-8.37862109671899E-33,
-1.));
#950=DIRECTION('ref_axis',(-1.,0.,1.08673789965299E-16));
#951=DIRECTION('center_axis',(1.08673789965299E-16,8.37862109671899E-33,
1.));
#952=DIRECTION('ref_axis',(-1.,0.,1.08673789965299E-16));
#953=DIRECTION('',(-1.08673789965299E-16,-8.37862109671899E-33,-1.));
#954=DIRECTION('center_axis',(-1.08673789965299E-16,-8.37862109671899E-33,
-1.));
#955=DIRECTION('ref_axis',(1.,-9.10536509263664E-49,-1.08673789965299E-16));
#956=DIRECTION('center_axis',(1.08673789965299E-16,-8.37862109671899E-33,
-1.));
#957=DIRECTION('ref_axis',(1.,0.,1.08673789965299E-16));
#958=DIRECTION('center_axis',(-1.08673789965299E-16,8.37862109671899E-33,
1.));
#959=DIRECTION('ref_axis',(1.,0.,1.08673789965299E-16));
#960=DIRECTION('',(1.08673789965299E-16,-8.37862109671899E-33,-1.));
#961=DIRECTION('center_axis',(1.08673789965299E-16,-8.37862109671899E-33,
-1.));
#962=DIRECTION('ref_axis',(-1.,-9.10536509263664E-49,-1.08673789965299E-16));
#963=DIRECTION('center_axis',(-1.,7.60942069395212E-17,-1.08673789965299E-16));
#964=DIRECTION('ref_axis',(7.60942069395212E-17,1.,8.26944586252154E-33));
#965=DIRECTION('',(0.,0.,1.));
#966=DIRECTION('',(-1.32219800441694E-16,-0.638788742788628,0.769382182069824));
#967=DIRECTION('center_axis',(-7.60942069395212E-17,1.,1.0560192573106E-32));
#968=DIRECTION('ref_axis',(-1.,-7.60942069395212E-17,-8.03569478979121E-49));
#969=DIRECTION('',(0.,0.,1.));
#970=DIRECTION('center_axis',(1.08673789965299E-16,-1.42547451204917E-48,
1.));
#971=DIRECTION('ref_axis',(1.,0.,-1.08673789965299E-16));
#972=DIRECTION('center_axis',(1.08673789965299E-16,-1.42547451204917E-48,
1.));
#973=DIRECTION('ref_axis',(-1.,0.,0.));
#974=DIRECTION('center_axis',(1.08673789965299E-16,-1.42547451204917E-48,
1.));
#975=DIRECTION('ref_axis',(-1.,0.,0.));
#976=DIRECTION('center_axis',(0.,0.,-1.));
#977=DIRECTION('ref_axis',(-1.,0.,0.));
#978=DIRECTION('',(-0.707106781186547,-8.65956056235493E-17,0.707106781186547));
#979=DIRECTION('center_axis',(0.,0.,1.));
#980=DIRECTION('ref_axis',(-1.,0.,0.));
#981=DIRECTION('center_axis',(0.,0.,-1.));
#982=DIRECTION('ref_axis',(-1.,0.,0.));
#983=DIRECTION('',(-0.707106781186548,-8.65956056235493E-17,0.707106781186548));
#984=DIRECTION('center_axis',(0.,0.,-1.));
#985=DIRECTION('ref_axis',(-1.,0.,0.));
#986=DIRECTION('',(-0.707106781186547,-8.65956056235493E-17,0.707106781186547));
#987=DIRECTION('center_axis',(0.,0.,1.));
#988=DIRECTION('ref_axis',(-1.,0.,0.));
#989=DIRECTION('center_axis',(0.,0.,-1.));
#990=DIRECTION('ref_axis',(-1.,0.,0.));
#991=DIRECTION('',(-0.707106781186548,-8.65956056235493E-17,0.707106781186548));
#992=DIRECTION('center_axis',(0.,0.,1.));
#993=DIRECTION('ref_axis',(-1.,0.,0.));
#994=DIRECTION('',(0.,0.,-1.));
#995=DIRECTION('center_axis',(0.,0.,1.));
#996=DIRECTION('ref_axis',(-1.,0.,0.));
#997=DIRECTION('',(0.,0.,-1.));
#998=DIRECTION('center_axis',(-1.08740666880073E-17,-0.769382182069824,
-0.638788742788628));
#999=DIRECTION('ref_axis',(-6.74149652918631E-34,0.638788742788628,-0.769382182069824));
#1000=DIRECTION('',(1.32219800441694E-16,-0.638788742788628,0.769382182069824));
#1001=DIRECTION('center_axis',(1.,7.60942069395212E-17,-1.08673789965299E-16));
#1002=DIRECTION('ref_axis',(-7.60942069395212E-17,1.,8.26944586252154E-33));
#1003=CARTESIAN_POINT('',(0.,0.,0.));
#1004=CARTESIAN_POINT('Origin',(-4.5935627371073,13.9483730442453,-9.06587254384628));
#1005=CARTESIAN_POINT('',(-4.5935627371073,12.9483730442453,-9.06587254384628));
#1006=CARTESIAN_POINT('',(-4.5935627371073,-20.0516269557547,-9.06587254384628));
#1007=CARTESIAN_POINT('',(-4.5935627371073,6.67010382090998,-9.06587254384628));
#1008=CARTESIAN_POINT('',(-4.5935627371073,12.9483730442453,-9.46587254384628));
#1009=CARTESIAN_POINT('',(-4.5935627371073,12.9483730442453,-9.06587254384628));
#1010=CARTESIAN_POINT('',(-4.5935627371073,-20.0516269557547,-9.46587254384628));
#1011=CARTESIAN_POINT('',(-4.5935627371073,-19.0516269557547,-9.46587254384628));
#1012=CARTESIAN_POINT('',(-4.5935627371073,-20.0516269557547,-9.06587254384628));
#1013=CARTESIAN_POINT('Origin',(-24.0935627371073,12.9483730442453,-9.06587254384628));
#1014=CARTESIAN_POINT('',(-24.0935627371073,12.9483730442453,-9.06587254384628));
#1015=CARTESIAN_POINT('',(-12.0467813685536,12.9483730442453,-9.06587254384628));
#1016=CARTESIAN_POINT('',(-24.0935627371073,12.9483730442453,-9.46587254384628));
#1017=CARTESIAN_POINT('',(-24.0935627371073,12.9483730442453,-9.06587254384628));
#1018=CARTESIAN_POINT('',(-4.5935627371073,12.9483730442453,-9.46587254384628));
#1019=CARTESIAN_POINT('Origin',(-24.0935627371073,-19.0516269557547,-9.06587254384628));
#1020=CARTESIAN_POINT('',(-24.0935627371073,-20.0516269557547,-9.06587254384628));
#1021=CARTESIAN_POINT('',(-24.0935627371073,-9.82989617909002,-9.06587254384628));
#1022=CARTESIAN_POINT('',(-24.0935627371073,-20.0516269557547,-9.46587254384628));
#1023=CARTESIAN_POINT('',(-24.0935627371073,-20.0516269557547,-9.06587254384628));
#1024=CARTESIAN_POINT('',(-24.0935627371073,13.9483730442453,-9.46587254384628));
#1025=CARTESIAN_POINT('Origin',(-4.5935627371073,-20.0516269557547,-9.06587254384628));
#1026=CARTESIAN_POINT('',(-2.29678136855365,-20.0516269557547,-9.06587254384628));
#1027=CARTESIAN_POINT('',(-24.0935627371073,-20.0516269557547,-9.46587254384628));
#1028=CARTESIAN_POINT('Origin',(-14.3435635620551,-11.9586739754276,-9.46587254384628));
#1029=CARTESIAN_POINT('Origin',(24.0935627371073,-20.0516269557547,-9.06587254386176));
#1030=CARTESIAN_POINT('',(24.0935627371073,-20.0516269557547,-9.06587254386176));
#1031=CARTESIAN_POINT('',(4.59356273710731,-20.0516269557547,-9.06587254386176));
#1032=CARTESIAN_POINT('',(12.0467813685537,-20.0516269557547,-9.06587254384628));
#1033=CARTESIAN_POINT('',(24.0935627371073,-20.0516269557547,-9.46587254386176));
#1034=CARTESIAN_POINT('',(24.0935627371073,-20.0516269557547,-9.06587254386176));
#1035=CARTESIAN_POINT('',(4.59356273710731,-20.0516269557547,-9.46587254386176));
#1036=CARTESIAN_POINT('',(4.59356273710731,-20.0516269557547,-9.46587254386176));
#1037=CARTESIAN_POINT('',(4.59356273710731,-20.0516269557547,-9.06587254386176));
#1038=CARTESIAN_POINT('Origin',(24.0935627371073,13.9483730442453,-9.06587254384628));
#1039=CARTESIAN_POINT('',(24.0935627371073,12.9483730442453,-9.06587254384628));
#1040=CARTESIAN_POINT('',(24.0935627371073,6.67010382090998,-9.06587254384628));
#1041=CARTESIAN_POINT('',(24.0935627371073,12.9483730442453,-9.46587254384628));
#1042=CARTESIAN_POINT('',(24.0935627371073,12.9483730442453,-9.06587254384628));
#1043=CARTESIAN_POINT('',(24.0935627371073,-19.0516269557547,-9.46587254386176));
#1044=CARTESIAN_POINT('Origin',(4.59356273710731,12.9483730442453,-9.06587254386176));
#1045=CARTESIAN_POINT('',(4.59356273710731,12.9483730442453,-9.06587254386176));
#1046=CARTESIAN_POINT('',(2.29678136855366,12.9483730442453,-9.06587254384628));
#1047=CARTESIAN_POINT('',(4.59356273710731,12.9483730442453,-9.46587254386176));
#1048=CARTESIAN_POINT('',(4.59356273710731,12.9483730442453,-9.06587254386176));
#1049=CARTESIAN_POINT('',(24.0935627371073,12.9483730442453,-9.46587254384628));
#1050=CARTESIAN_POINT('Origin',(4.59356273710731,-19.0516269557547,-9.06587254386176));
#1051=CARTESIAN_POINT('',(4.59356273710731,-9.82989617909002,-9.06587254384628));
#1052=CARTESIAN_POINT('',(4.59356273710731,13.9483730442453,-9.46587254386176));
#1053=CARTESIAN_POINT('Origin',(16.4533490989119,-8.50709006222897,-9.46587254386176));
#1054=CARTESIAN_POINT('Origin',(-27.0935627371073,10.8481258707643,-10.5058725438463));
#1055=CARTESIAN_POINT('',(-25.8435627371073,10.8481258707643,-10.5058725438463));
#1056=CARTESIAN_POINT('Origin',(-27.0935627371073,10.8481258707643,-10.5058725438463));
#1057=CARTESIAN_POINT('Origin',(-27.0935627371073,10.8481258707643,-9.06587254384628));
#1058=CARTESIAN_POINT('',(-25.8435627371073,10.8481258707643,-9.06587254384628));
#1059=CARTESIAN_POINT('Origin',(-27.0935627371073,10.8481258707643,-9.06587254384628));
#1060=CARTESIAN_POINT('',(-25.8435627371073,10.8481258707643,-9.06587254384628));
#1061=CARTESIAN_POINT('Origin',(-27.0935627371073,10.8481258707643,-10.8058725438463));
#1062=CARTESIAN_POINT('',(-25.8435627371073,10.8481258707643,-10.8058651473642));
#1063=CARTESIAN_POINT('Origin',(-27.0935627371073,10.8481258707643,-10.8058725438463));
#1064=CARTESIAN_POINT('Origin',(27.0935627371073,10.8481258707643,-10.5058725438463));
#1065=CARTESIAN_POINT('',(28.3435627371073,10.8481258707643,-10.5058725438463));
#1066=CARTESIAN_POINT('Origin',(27.0935627371073,10.8481258707643,-10.5058725438463));
#1067=CARTESIAN_POINT('Origin',(27.0935627371073,10.8481258707643,-9.06587254384628));
#1068=CARTESIAN_POINT('',(28.3435627371073,10.8481258707643,-9.06587254384628));
#1069=CARTESIAN_POINT('Origin',(27.0935627371073,10.8481258707643,-9.06587254384628));
#1070=CARTESIAN_POINT('',(28.3435627371073,10.8481258707643,-9.06587254384628));
#1071=CARTESIAN_POINT('Origin',(27.0935627371073,10.8481258707643,-10.8058725438463));
#1072=CARTESIAN_POINT('',(28.3435627371073,10.8481258707643,-10.8058651473642));
#1073=CARTESIAN_POINT('Origin',(27.0935627371073,10.8481258707643,-10.8058725438463));
#1074=CARTESIAN_POINT('Origin',(18.,-4.68767731406888,-11.5658725438463));
#1075=CARTESIAN_POINT('',(-37.5,-30.567201193294,-11.5658725438463));
#1076=CARTESIAN_POINT('',(37.5,-30.567201193294,-11.5658725438463));
#1077=CARTESIAN_POINT('Ctrl Pts',(-37.5,-30.567201193294,-11.5658725438463));
#1078=CARTESIAN_POINT('Ctrl Pts',(-12.5,-30.567201193294,-11.5658725438463));
#1079=CARTESIAN_POINT('Ctrl Pts',(12.5,-30.567201193294,-11.5658725438463));
#1080=CARTESIAN_POINT('Ctrl Pts',(37.5,-30.567201193294,-11.5658725438463));
#1081=CARTESIAN_POINT('',(-37.5,25.4483730442453,-11.5658725438463));
#1082=CARTESIAN_POINT('',(-37.5,-6.90667731406888,-11.5658725438463));
#1083=CARTESIAN_POINT('',(37.5,25.4483730442453,-11.5658725438463));
#1084=CARTESIAN_POINT('Ctrl Pts',(37.5,25.4483730442453,-11.5658725438463));
#1085=CARTESIAN_POINT('Ctrl Pts',(12.5,25.4483730442453,-11.5658725438463));
#1086=CARTESIAN_POINT('Ctrl Pts',(-12.5,25.4483730442453,-11.5658725438463));
#1087=CARTESIAN_POINT('Ctrl Pts',(-37.5,25.4483730442453,-11.5658725438463));
#1088=CARTESIAN_POINT('',(37.5,-6.90667731406888,-11.5658725438463));
#1089=CARTESIAN_POINT('',(-22.9935627371073,20.3483730442453,-11.5658725438463));
#1090=CARTESIAN_POINT('Origin',(-27.0935627371073,20.3483730442453,-11.5658725438463));
#1091=CARTESIAN_POINT('',(31.1935627371073,20.3483730442453,-11.5658725438463));
#1092=CARTESIAN_POINT('Origin',(27.0935627371073,20.3483730442453,-11.5658725438463));
#1093=CARTESIAN_POINT('',(31.1435627371073,-23.3871936798096,-11.5658725438463));
#1094=CARTESIAN_POINT('Origin',(27.0935627371073,-23.3871936798096,-11.5658725438463));
#1095=CARTESIAN_POINT('',(-31.1435627371073,-23.3871936798096,-11.5658725438463));
#1096=CARTESIAN_POINT('Origin',(-27.0935627371073,-23.3871936798096,-11.5658725438463));
#1097=CARTESIAN_POINT('',(-25.0835122307685,10.8481258707643,-11.5658725438463));
#1098=CARTESIAN_POINT('Origin',(-27.0935627371073,10.8481258707643,-11.5658725438463));
#1099=CARTESIAN_POINT('',(29.1036132434461,10.8481258707643,-11.5658725438463));
#1100=CARTESIAN_POINT('Origin',(27.0935627371073,10.8481258707643,-11.5658725438463));
#1101=CARTESIAN_POINT('Origin',(-27.0935627371073,20.3483730442453,-11.0658725438463));
#1102=CARTESIAN_POINT('',(-22.9935627371073,20.3483730442453,-10.5658725438463));
#1103=CARTESIAN_POINT('',(-22.9935627371073,20.3483730442453,-11.0658725438463));
#1104=CARTESIAN_POINT('Origin',(-27.0935627371073,20.3483730442453,-10.5658725438463));
#1105=CARTESIAN_POINT('Origin',(-27.0935627371073,19.3483730442453,-10.5658725438463));
#1106=CARTESIAN_POINT('Origin',(27.0935627371073,20.3483730442453,-11.0658725438463));
#1107=CARTESIAN_POINT('',(31.1935627371073,20.3483730442453,-10.5658725438463));
#1108=CARTESIAN_POINT('',(31.1935627371073,20.3483730442453,-11.0658725438463));
#1109=CARTESIAN_POINT('Origin',(27.0935627371073,20.3483730442453,-10.5658725438463));
#1110=CARTESIAN_POINT('Origin',(27.0935627371073,19.3483730442453,-10.5658725438463));
#1111=CARTESIAN_POINT('Origin',(-27.0935627371073,-23.3871936798096,-10.2658725438463));
#1112=CARTESIAN_POINT('',(-25.3935627371073,-23.3871936798096,-10.2658725438463));
#1113=CARTESIAN_POINT('Origin',(-27.0935627371073,-23.3871936798096,-10.2658725438463));
#1114=CARTESIAN_POINT('Origin',(27.0935627371073,-23.3871936798096,-10.2658725438463));
#1115=CARTESIAN_POINT('',(28.7935627371073,-23.3871936798096,-10.2658725438463));
#1116=CARTESIAN_POINT('Origin',(27.0935627371073,-23.3871936798096,-10.2658725438463));
#1117=CARTESIAN_POINT('Origin',(32.5,-32.6193627788161,-5.));
#1118=CARTESIAN_POINT('',(-37.5,-32.6193627788161,-2.));
#1119=CARTESIAN_POINT('',(-37.5,-34.9275093250256,-6.91636622836588));
#1120=CARTESIAN_POINT('Origin',(-37.5,-32.6193627788161,-4.99999999999999));
#1121=CARTESIAN_POINT('',(37.5,-34.9275093250256,-6.91636622836589));
#1122=CARTESIAN_POINT('',(32.5,-34.9275093250256,-6.91636622836589));
#1123=CARTESIAN_POINT('',(37.5,-32.6193627788161,-2.));
#1124=CARTESIAN_POINT('Origin',(37.5,-32.6193627788161,-5.));
#1125=CARTESIAN_POINT('',(32.5,-32.6193627788161,-2.));
#1126=CARTESIAN_POINT('Origin',(3.01165057573883E-15,-17.0864850983839,
23.5637810298062));
#1127=CARTESIAN_POINT('',(-32.6,-28.9627077536112,-9.06587254384628));
#1128=CARTESIAN_POINT('',(-32.6,-26.3909404685324,-2.));
#1129=CARTESIAN_POINT('',(-32.6,-23.0245964259976,7.24895424297997));
#1130=CARTESIAN_POINT('',(32.6,-26.3909404685324,-2.));
#1131=CARTESIAN_POINT('',(32.5,-26.3909404685324,-2.));
#1132=CARTESIAN_POINT('',(32.6,-28.9627077536112,-9.06587254384628));
#1133=CARTESIAN_POINT('',(32.6,-20.5126108859892,14.1505777921496));
#1134=CARTESIAN_POINT('',(1.26992526767064E-15,-28.9627077536112,-9.06587254384628));
#1135=CARTESIAN_POINT('Origin',(32.6,14.6483730442453,-9.06587254384628));
#1136=CARTESIAN_POINT('',(32.6,16.5483730442453,-2.));
#1137=CARTESIAN_POINT('',(32.6,-6.82566735468296,-2.));
#1138=CARTESIAN_POINT('',(32.6,16.5483730442453,-9.06587254384628));
#1139=CARTESIAN_POINT('',(32.6,16.5483730442453,-9.06587254384628));
#1140=CARTESIAN_POINT('',(32.6,7.02010382090998,-9.06587254384628));
#1141=CARTESIAN_POINT('Origin',(-32.6,-28.2997077536112,-9.06587254384628));
#1142=CARTESIAN_POINT('',(-32.6,16.5483730442453,-2.));
#1143=CARTESIAN_POINT('',(-32.6,-28.2997077536112,-2.));
#1144=CARTESIAN_POINT('',(-32.6,16.5483730442453,-9.06587254384628));
#1145=CARTESIAN_POINT('',(-32.6,-14.4539365780183,-9.06587254384628));
#1146=CARTESIAN_POINT('',(-32.6,16.5483730442453,-9.06587254384628));
#1147=CARTESIAN_POINT('Origin',(-30.7,16.5483730442453,-9.06587254384628));
#1148=CARTESIAN_POINT('',(-30.7,16.5483730442453,-2.));
#1149=CARTESIAN_POINT('',(-15.35,16.5483730442453,-9.06587254384628));
#1150=CARTESIAN_POINT('Origin',(32.5,-32.0046905428171,-2.));
#1151=CARTESIAN_POINT('',(-37.5,23.4483730442453,-2.00000000000001));
#1152=CARTESIAN_POINT('',(37.5,23.4483730442453,-2.00000000000002));
#1153=CARTESIAN_POINT('Ctrl Pts',(-37.5,23.4483730442453,-2.00000000000001));
#1154=CARTESIAN_POINT('Ctrl Pts',(-12.5,23.4483730442453,-2.00000000000001));
#1155=CARTESIAN_POINT('Ctrl Pts',(12.5,23.4483730442453,-2.00000000000001));
#1156=CARTESIAN_POINT('Ctrl Pts',(37.5,23.4483730442453,-2.00000000000002));
#1157=CARTESIAN_POINT('',(-37.5,-20.0038684767314,-2.));
#1158=CARTESIAN_POINT('',(37.5,-32.0046905428171,-2.));
#1159=CARTESIAN_POINT('Ctrl Pts',(-37.5,26.4483730442453,-5.));
#1160=CARTESIAN_POINT('Ctrl Pts',(-12.5,26.4483730442453,-5.));
#1161=CARTESIAN_POINT('Ctrl Pts',(12.5,26.4483730442453,-5.));
#1162=CARTESIAN_POINT('Ctrl Pts',(37.5,26.4483730442453,-5.));
#1163=CARTESIAN_POINT('Ctrl Pts',(-37.5,26.4483730442453,-4.59593898217911));
#1164=CARTESIAN_POINT('Ctrl Pts',(-12.5000000000001,26.4483730442453,-4.59593898217911));
#1165=CARTESIAN_POINT('Ctrl Pts',(12.5000000000001,26.4483730442453,-4.59593898217911));
#1166=CARTESIAN_POINT('Ctrl Pts',(37.5,26.4483730442453,-4.59593898217911));
#1167=CARTESIAN_POINT('Ctrl Pts',(-37.5,26.2797050782719,-3.71002070337755));
#1168=CARTESIAN_POINT('Ctrl Pts',(-12.4999999999999,26.2797050782719,-3.71002070337755));
#1169=CARTESIAN_POINT('Ctrl Pts',(12.4999999999999,26.2797050782719,-3.71002070337756));
#1170=CARTESIAN_POINT('Ctrl Pts',(37.5,26.2797050782719,-3.71002070337756));
#1171=CARTESIAN_POINT('Ctrl Pts',(-37.5,25.447755440089,-2.64395890512051));
#1172=CARTESIAN_POINT('Ctrl Pts',(-12.5000000000001,25.447755440089,-2.64395890512051));
#1173=CARTESIAN_POINT('Ctrl Pts',(12.5000000000001,25.447755440089,-2.64395890512051));
#1174=CARTESIAN_POINT('Ctrl Pts',(37.5,25.447755440089,-2.64395890512051));
#1175=CARTESIAN_POINT('Ctrl Pts',(-37.5,24.397559636815,-2.093348622513));
#1176=CARTESIAN_POINT('Ctrl Pts',(-12.4999999999999,24.397559636815,-2.093348622513));
#1177=CARTESIAN_POINT('Ctrl Pts',(12.4999999999999,24.397559636815,-2.093348622513));
#1178=CARTESIAN_POINT('Ctrl Pts',(37.5,24.397559636815,-2.09334862251301));
#1179=CARTESIAN_POINT('Ctrl Pts',(-37.5,23.751418807611,-2.00000000000001));
#1180=CARTESIAN_POINT('Ctrl Pts',(-12.5000000000001,23.751418807611,-2.00000000000001));
#1181=CARTESIAN_POINT('Ctrl Pts',(12.5,23.751418807611,-2.00000000000001));
#1182=CARTESIAN_POINT('Ctrl Pts',(37.5,23.751418807611,-2.00000000000002));
#1183=CARTESIAN_POINT('Ctrl Pts',(-37.5,23.4483730442453,-2.00000000000001));
#1184=CARTESIAN_POINT('Ctrl Pts',(-12.5,23.4483730442453,-2.00000000000001));
#1185=CARTESIAN_POINT('Ctrl Pts',(12.5,23.4483730442453,-2.00000000000001));
#1186=CARTESIAN_POINT('Ctrl Pts',(37.5,23.4483730442453,-2.00000000000002));
#1187=CARTESIAN_POINT('',(37.5,26.4483730442453,-5.));
#1188=CARTESIAN_POINT('Ctrl Pts',(37.5,23.4483730442453,-2.00000000000002));
#1189=CARTESIAN_POINT('Ctrl Pts',(37.5,23.751418807611,-2.00000000000002));
#1190=CARTESIAN_POINT('Ctrl Pts',(37.5,24.074489222213,-2.04667431125651));
#1191=CARTESIAN_POINT('Ctrl Pts',(37.5,24.3935538000051,-2.15260300927588));
#1192=CARTESIAN_POINT('Ctrl Pts',(37.5,24.7126183777972,-2.25853170729526));
#1193=CARTESIAN_POINT('Ctrl Pts',(37.5,25.0276771187794,-2.42371479207751));
#1194=CARTESIAN_POINT('Ctrl Pts',(37.5,25.3049515518556,-2.6427097520091));
#1195=CARTESIAN_POINT('Ctrl Pts',(37.5,25.6746507959571,-2.93470303191789));
#1196=CARTESIAN_POINT('Ctrl Pts',(37.5,25.9771779371145,-3.32236186764772));
#1197=CARTESIAN_POINT('Ctrl Pts',(37.5,26.1706084991866,-3.73767085521303));
#1198=CARTESIAN_POINT('Ctrl Pts',(37.5,26.3640390612586,-4.15297984277834));
#1199=CARTESIAN_POINT('Ctrl Pts',(37.5,26.4483730442453,-4.59593898217911));
#1200=CARTESIAN_POINT('Ctrl Pts',(37.5,26.4483730442453,-5.));
#1201=CARTESIAN_POINT('',(-37.5,26.4483730442453,-5.));
#1202=CARTESIAN_POINT('Ctrl Pts',(37.5,26.4483730442453,-5.));
#1203=CARTESIAN_POINT('Ctrl Pts',(12.5,26.4483730442453,-5.));
#1204=CARTESIAN_POINT('Ctrl Pts',(-12.5,26.4483730442453,-5.));
#1205=CARTESIAN_POINT('Ctrl Pts',(-37.5,26.4483730442453,-5.));
#1206=CARTESIAN_POINT('Ctrl Pts',(-37.5,26.4483730442453,-5.));
#1207=CARTESIAN_POINT('Ctrl Pts',(-37.5,26.4483730442453,-4.59593898217911));
#1208=CARTESIAN_POINT('Ctrl Pts',(-37.5,26.3640390612586,-4.15297984277833));
#1209=CARTESIAN_POINT('Ctrl Pts',(-37.5,26.1706084991866,-3.73767085521303));
#1210=CARTESIAN_POINT('Ctrl Pts',(-37.5,25.9771779371145,-3.32236186764772));
#1211=CARTESIAN_POINT('Ctrl Pts',(-37.5,25.6746507959571,-2.93470303191788));
#1212=CARTESIAN_POINT('Ctrl Pts',(-37.5,25.3049515518555,-2.64270975200909));
#1213=CARTESIAN_POINT('Ctrl Pts',(-37.5,25.0276771187794,-2.4237147920775));
#1214=CARTESIAN_POINT('Ctrl Pts',(-37.5,24.7126183777972,-2.25853170729525));
#1215=CARTESIAN_POINT('Ctrl Pts',(-37.5,24.3935538000051,-2.15260300927588));
#1216=CARTESIAN_POINT('Ctrl Pts',(-37.5,24.074489222213,-2.0466743112565));
#1217=CARTESIAN_POINT('Ctrl Pts',(-37.5,23.751418807611,-2.00000000000001));
#1218=CARTESIAN_POINT('Ctrl Pts',(-37.5,23.4483730442453,-2.00000000000001));
#1219=CARTESIAN_POINT('Origin',(27.0935627371073,-23.3871936798096,-11.0658725438463));
#1220=CARTESIAN_POINT('',(31.1435627371073,-23.3871936798096,-10.5658725438463));
#1221=CARTESIAN_POINT('Origin',(27.0935627371073,-23.3871936798096,-10.5658725438463));
#1222=CARTESIAN_POINT('',(31.1435627371073,-23.3871936798096,-11.0658725438463));
#1223=CARTESIAN_POINT('Origin',(18.,-6.90667731406888,-10.5658725438463));
#1224=CARTESIAN_POINT('Origin',(-27.0935627371073,-23.3871936798096,-11.0658725438463));
#1225=CARTESIAN_POINT('',(-31.1435627371073,-23.3871936798096,-10.5658725438463));
#1226=CARTESIAN_POINT('Origin',(-27.0935627371073,-23.3871936798096,-10.5658725438463));
#1227=CARTESIAN_POINT('',(-31.1435627371073,-23.3871936798096,-11.0658725438463));
#1228=CARTESIAN_POINT('Origin',(-18.,-6.90667731406888,-10.5658725438463));
#1229=CARTESIAN_POINT('Origin',(-37.5,-11.7080291998516,17.7093792477246));
#1230=CARTESIAN_POINT('',(-37.5,26.4483730442453,-11.0658725438463));
#1231=CARTESIAN_POINT('',(-37.5,26.4483730442453,-9.06587254384628));
#1232=CARTESIAN_POINT('Ctrl Pts',(-37.5,25.4483730442453,-11.5658725438463));
#1233=CARTESIAN_POINT('Ctrl Pts',(-37.5,25.6504035531557,-11.5658725438463));
#1234=CARTESIAN_POINT('Ctrl Pts',(-37.5,25.8833634484154,-11.5309385749635));
#1235=CARTESIAN_POINT('Ctrl Pts',(-37.5,26.0677056634193,-11.4584287985697));
#1236=CARTESIAN_POINT('Ctrl Pts',(-37.5,26.1906004734218,-11.4100889476404));
#1237=CARTESIAN_POINT('Ctrl Pts',(-37.5,26.291887425533,-11.3450487378173));
#1238=CARTESIAN_POINT('Ctrl Pts',(-37.5,26.3563305682388,-11.2758305126113));
#1239=CARTESIAN_POINT('Ctrl Pts',(-37.5,26.4207737109447,-11.2066122874053));
#1240=CARTESIAN_POINT('Ctrl Pts',(-37.5,26.4483730442453,-11.1332160468164));
#1241=CARTESIAN_POINT('Ctrl Pts',(-37.5,26.4483730442453,-11.0658725438463));
#1242=CARTESIAN_POINT('',(-37.5,-31.7059899360826,-10.7964903617765));
#1243=CARTESIAN_POINT('Ctrl Pts',(-37.5,-31.7059899360826,-10.7964903617765));
#1244=CARTESIAN_POINT('Ctrl Pts',(-37.5,-31.5132452171477,-11.0286396507405));
#1245=CARTESIAN_POINT('Ctrl Pts',(-37.5,-31.3024328719075,-11.2295712129939));
#1246=CARTESIAN_POINT('Ctrl Pts',(-37.5,-31.1036387013437,-11.3638794362704));
#1247=CARTESIAN_POINT('Ctrl Pts',(-37.5,-30.9048445307798,-11.4981876595469));
#1248=CARTESIAN_POINT('Ctrl Pts',(-37.5,-30.7180685348924,-11.5658725438463));
#1249=CARTESIAN_POINT('Ctrl Pts',(-37.5,-30.567201193294,-11.5658725438463));
#1250=CARTESIAN_POINT('',(-37.5,-34.2080291998516,-7.78293627192314));
#1251=CARTESIAN_POINT('Origin',(-2.25119771214044E-15,26.4483730442453,
14.5881229541576));
#1252=CARTESIAN_POINT('',(37.5,26.4483730442453,-11.0658725438463));
#1253=CARTESIAN_POINT('',(37.5,26.4483730442453,-9.06587254384628));
#1254=CARTESIAN_POINT('Ctrl Pts',(-37.5,26.4483730442453,-11.0658725438463));
#1255=CARTESIAN_POINT('Ctrl Pts',(-12.5,26.4483730442453,-11.0658725438463));
#1256=CARTESIAN_POINT('Ctrl Pts',(12.5,26.4483730442453,-11.0658725438463));
#1257=CARTESIAN_POINT('Ctrl Pts',(37.5,26.4483730442453,-11.0658725438463));
#1258=CARTESIAN_POINT('Ctrl Pts',(37.5,26.4483730442453,-11.0658725438463));
#1259=CARTESIAN_POINT('Ctrl Pts',(12.5,26.4483730442453,-11.0658725438463));
#1260=CARTESIAN_POINT('Ctrl Pts',(-12.5,26.4483730442453,-11.0658725438463));
#1261=CARTESIAN_POINT('Ctrl Pts',(-37.5,26.4483730442453,-11.0658725438463));
#1262=CARTESIAN_POINT('Ctrl Pts',(37.5,26.4483730442453,-11.1332160468164));
#1263=CARTESIAN_POINT('Ctrl Pts',(12.4999999999999,26.4483730442453,-11.1332160468164));
#1264=CARTESIAN_POINT('Ctrl Pts',(-12.4999999999999,26.4483730442453,-11.1332160468164));
#1265=CARTESIAN_POINT('Ctrl Pts',(-37.5,26.4483730442453,-11.1332160468164));
#1266=CARTESIAN_POINT('Ctrl Pts',(37.5,26.3931743776441,-11.2800085279943));
#1267=CARTESIAN_POINT('Ctrl Pts',(12.5000000000001,26.3931743776441,-11.2800085279943));
#1268=CARTESIAN_POINT('Ctrl Pts',(-12.5000000000001,26.3931743776441,-11.2800085279943));
#1269=CARTESIAN_POINT('Ctrl Pts',(-37.5,26.3931743776441,-11.2800085279943));
#1270=CARTESIAN_POINT('Ctrl Pts',(37.5,26.0386700452551,-11.507649262375));
#1271=CARTESIAN_POINT('Ctrl Pts',(12.4999999999999,26.0386700452551,-11.507649262375));
#1272=CARTESIAN_POINT('Ctrl Pts',(-12.4999999999999,26.0386700452551,-11.507649262375));
#1273=CARTESIAN_POINT('Ctrl Pts',(-37.5,26.0386700452551,-11.507649262375));
#1274=CARTESIAN_POINT('Ctrl Pts',(37.5,25.6504035531557,-11.5658725438463));
#1275=CARTESIAN_POINT('Ctrl Pts',(12.5000000000001,25.6504035531557,-11.5658725438463));
#1276=CARTESIAN_POINT('Ctrl Pts',(-12.5000000000001,25.6504035531557,-11.5658725438463));
#1277=CARTESIAN_POINT('Ctrl Pts',(-37.5,25.6504035531557,-11.5658725438463));
#1278=CARTESIAN_POINT('Ctrl Pts',(37.5,25.4483730442453,-11.5658725438463));
#1279=CARTESIAN_POINT('Ctrl Pts',(12.5,25.4483730442453,-11.5658725438463));
#1280=CARTESIAN_POINT('Ctrl Pts',(-12.5,25.4483730442453,-11.5658725438463));
#1281=CARTESIAN_POINT('Ctrl Pts',(-37.5,25.4483730442453,-11.5658725438463));
#1282=CARTESIAN_POINT('Ctrl Pts',(37.5,26.4483730442453,-11.0658725438463));
#1283=CARTESIAN_POINT('Ctrl Pts',(37.5,26.4483730442453,-11.1332160468164));
#1284=CARTESIAN_POINT('Ctrl Pts',(37.5,26.4207737109447,-11.2066122874054));
#1285=CARTESIAN_POINT('Ctrl Pts',(37.5,26.3563305682388,-11.2758305126114));
#1286=CARTESIAN_POINT('Ctrl Pts',(37.5,26.291887425533,-11.3450487378173));
#1287=CARTESIAN_POINT('Ctrl Pts',(37.5,26.1906004734218,-11.4100889476404));
#1288=CARTESIAN_POINT('Ctrl Pts',(37.5,26.0677056634193,-11.4584287985697));
#1289=CARTESIAN_POINT('Ctrl Pts',(37.5,25.8833634484154,-11.5309385749635));
#1290=CARTESIAN_POINT('Ctrl Pts',(37.5,25.6504035531557,-11.5658725438463));
#1291=CARTESIAN_POINT('Ctrl Pts',(37.5,25.4483730442453,-11.5658725438463));
#1292=CARTESIAN_POINT('Ctrl Pts',(37.5,-30.567201193294,-11.5658725438463));
#1293=CARTESIAN_POINT('Ctrl Pts',(12.5,-30.567201193294,-11.5658725438463));
#1294=CARTESIAN_POINT('Ctrl Pts',(-12.5,-30.567201193294,-11.5658725438463));
#1295=CARTESIAN_POINT('Ctrl Pts',(-37.5,-30.567201193294,-11.5658725438463));
#1296=CARTESIAN_POINT('Ctrl Pts',(37.5,-30.7180685348924,-11.5658725438463));
#1297=CARTESIAN_POINT('Ctrl Pts',(12.5,-30.7180685348924,-11.5658725438463));
#1298=CARTESIAN_POINT('Ctrl Pts',(-12.5,-30.7180685348924,-11.5658725438463));
#1299=CARTESIAN_POINT('Ctrl Pts',(-37.5,-30.7180685348924,-11.5658725438463));
#1300=CARTESIAN_POINT('Ctrl Pts',(37.5,-31.0916205266673,-11.4305027752474));
#1301=CARTESIAN_POINT('Ctrl Pts',(12.5000000000001,-31.0916205266673,-11.4305027752474));
#1302=CARTESIAN_POINT('Ctrl Pts',(-12.5000000000001,-31.0916205266673,-11.4305027752474));
#1303=CARTESIAN_POINT('Ctrl Pts',(-37.5,-31.0916205266673,-11.4305027752474));
#1304=CARTESIAN_POINT('Ctrl Pts',(37.5,-31.5132452171477,-11.0286396507405));
#1305=CARTESIAN_POINT('Ctrl Pts',(12.5,-31.5132452171477,-11.0286396507405));
#1306=CARTESIAN_POINT('Ctrl Pts',(-12.5,-31.5132452171477,-11.0286396507405));
#1307=CARTESIAN_POINT('Ctrl Pts',(-37.5,-31.5132452171477,-11.0286396507405));
#1308=CARTESIAN_POINT('Ctrl Pts',(37.5,-31.7059899360826,-10.7964903617765));
#1309=CARTESIAN_POINT('Ctrl Pts',(12.5,-31.7059899360826,-10.7964903617765));
#1310=CARTESIAN_POINT('Ctrl Pts',(-12.5,-31.7059899360826,-10.7964903617765));
#1311=CARTESIAN_POINT('Ctrl Pts',(-37.5,-31.7059899360826,-10.7964903617765));
#1312=CARTESIAN_POINT('',(37.5,-31.7059899360826,-10.7964903617765));
#1313=CARTESIAN_POINT('Ctrl Pts',(37.5,-30.567201193294,-11.5658725438463));
#1314=CARTESIAN_POINT('Ctrl Pts',(37.5,-30.7180685348924,-11.5658725438463));
#1315=CARTESIAN_POINT('Ctrl Pts',(37.5,-30.9048445307798,-11.4981876595469));
#1316=CARTESIAN_POINT('Ctrl Pts',(37.5,-31.1036387013437,-11.3638794362704));
#1317=CARTESIAN_POINT('Ctrl Pts',(37.5,-31.3024328719075,-11.229571212994));
#1318=CARTESIAN_POINT('Ctrl Pts',(37.5,-31.5132452171477,-11.0286396507405));
#1319=CARTESIAN_POINT('Ctrl Pts',(37.5,-31.7059899360826,-10.7964903617765));
#1320=CARTESIAN_POINT('Ctrl Pts',(37.5,-31.7059899360826,-10.7964903617765));
#1321=CARTESIAN_POINT('Ctrl Pts',(12.5,-31.7059899360826,-10.7964903617765));
#1322=CARTESIAN_POINT('Ctrl Pts',(-12.5,-31.7059899360826,-10.7964903617765));
#1323=CARTESIAN_POINT('Ctrl Pts',(-37.5,-31.7059899360826,-10.7964903617765));
#1324=CARTESIAN_POINT('Origin',(0.,-0.608165402425336,-9.06587254384628));
#1325=CARTESIAN_POINT('',(28.0435627371073,-23.3871936798096,-9.06587254384628));
#1326=CARTESIAN_POINT('Origin',(27.0935627371073,-23.3871936798096,-9.06587254384628));
#1327=CARTESIAN_POINT('',(-26.1435627371073,-23.3871936798096,-9.06587254384628));
#1328=CARTESIAN_POINT('Origin',(-27.0935627371073,-23.3871936798096,-9.06587254384628));
#1329=CARTESIAN_POINT('Origin',(-27.0935627371073,-23.3871936798096,-9.9908725438463));
#1330=CARTESIAN_POINT('',(-26.1435627371073,-23.3871936798096,-9.5158725438463));
#1331=CARTESIAN_POINT('',(-25.6685627371073,-23.3871936798096,-9.9908725438463));
#1332=CARTESIAN_POINT('Origin',(-27.0935627371073,-23.3871936798096,-9.5158725438463));
#1333=CARTESIAN_POINT('Origin',(27.0935627371073,10.8481258707643,-10.4858472906769));
#1334=CARTESIAN_POINT('',(28.0235879902767,10.8481258707643,-10.4858472906769));
#1335=CARTESIAN_POINT('Origin',(27.0935627371073,-23.3871936798096,-9.9908725438463));
#1336=CARTESIAN_POINT('',(28.0435627371073,-23.3871936798096,-9.5158725438463));
#1337=CARTESIAN_POINT('',(28.5185627371073,-23.3871936798096,-9.9908725438463));
#1338=CARTESIAN_POINT('Origin',(27.0935627371073,-23.3871936798096,-9.5158725438463));
#1339=CARTESIAN_POINT('Origin',(-27.0935627371073,10.8481258707643,-10.4858472906769));
#1340=CARTESIAN_POINT('',(-26.1635374839379,10.8481258707643,-10.4858472906769));
#1341=CARTESIAN_POINT('Origin',(-27.0935627371073,-23.3871936798096,-9.06587254384628));
#1342=CARTESIAN_POINT('',(-26.1435627371073,-23.3871936798096,-9.06587254384628));
#1343=CARTESIAN_POINT('Origin',(27.0935627371073,-23.3871936798096,-9.06587254384628));
#1344=CARTESIAN_POINT('',(28.0435627371073,-23.3871936798096,-9.06587254384628));
#1345=CARTESIAN_POINT('Origin',(32.5,-34.2080291998516,-7.78293627192314));
#1346=CARTESIAN_POINT('',(37.5,-34.2080291998516,-7.78293627192314));
#1347=CARTESIAN_POINT('Origin',(37.5,-11.7080291998516,17.7093792477246));
#1348=UNCERTAINTY_MEASURE_WITH_UNIT(LENGTH_MEASURE(0.01),#1352,
'DISTANCE_ACCURACY_VALUE',
'Maximum model space distance between geometric entities at asserted c
onnectivities');
#1349=UNCERTAINTY_MEASURE_WITH_UNIT(LENGTH_MEASURE(0.01),#1352,
'DISTANCE_ACCURACY_VALUE',
'Maximum model space distance between geometric entities at asserted c
onnectivities');
#1350=(
GEOMETRIC_REPRESENTATION_CONTEXT(3)
GLOBAL_UNCERTAINTY_ASSIGNED_CONTEXT((#1348))
GLOBAL_UNIT_ASSIGNED_CONTEXT((#1352,#1354,#1355))
REPRESENTATION_CONTEXT('','3D')
);
#1351=(
GEOMETRIC_REPRESENTATION_CONTEXT(3)
GLOBAL_UNCERTAINTY_ASSIGNED_CONTEXT((#1349))
GLOBAL_UNIT_ASSIGNED_CONTEXT((#1352,#1354,#1355))
REPRESENTATION_CONTEXT('','3D')
);
#1352=(
LENGTH_UNIT()
NAMED_UNIT(*)
SI_UNIT(.MILLI.,.METRE.)
);
#1353=(
LENGTH_UNIT()
NAMED_UNIT(*)
SI_UNIT($,.METRE.)
);
#1354=(
NAMED_UNIT(*)
PLANE_ANGLE_UNIT()
SI_UNIT($,.RADIAN.)
);
#1355=(
NAMED_UNIT(*)
SI_UNIT($,.STERADIAN.)
SOLID_ANGLE_UNIT()
);
#1356=SHAPE_DEFINITION_REPRESENTATION(#1357,#1358);
#1357=PRODUCT_DEFINITION_SHAPE('',$,#1360);
#1358=SHAPE_REPRESENTATION('',(#738),#1350);
#1359=PRODUCT_DEFINITION_CONTEXT('part definition',#1364,'design');
#1360=PRODUCT_DEFINITION('2026-09-23-14-38-00-516','bottom-housing',#1361,
#1359);
#1361=PRODUCT_DEFINITION_FORMATION('',$,#1366);
#1362=PRODUCT_RELATED_PRODUCT_CATEGORY('bottom-housing',
'bottom-housing',(#1366));
#1363=APPLICATION_PROTOCOL_DEFINITION('international standard',
'automotive_design',2009,#1364);
#1364=APPLICATION_CONTEXT(
'Core Data for Automotive Mechanical Design Process');
#1365=PRODUCT_CONTEXT('part definition',#1364,'mechanical');
#1366=PRODUCT('2026-09-23-14-38-00-516','bottom-housing',$,(#1365));
#1367=PRESENTATION_STYLE_ASSIGNMENT((#1369));
#1368=PRESENTATION_STYLE_ASSIGNMENT((#1370));
#1369=SURFACE_STYLE_USAGE(.BOTH.,#1371);
#1370=SURFACE_STYLE_USAGE(.BOTH.,#1372);
#1371=SURFACE_SIDE_STYLE('',(#1373));
#1372=SURFACE_SIDE_STYLE('',(#1374));
#1373=SURFACE_STYLE_FILL_AREA(#1375);
#1374=SURFACE_STYLE_FILL_AREA(#1376);
#1375=FILL_AREA_STYLE('Steel - Satin',(#1377));
#1376=FILL_AREA_STYLE('Opaque(26,26,26)',(#1378));
#1377=FILL_AREA_STYLE_COLOUR('Steel - Satin',#1379);
#1378=FILL_AREA_STYLE_COLOUR('Opaque(26,26,26)',#1380);
#1379=COLOUR_RGB('Steel - Satin',0.627450980392157,0.627450980392157,0.627450980392157);
#1380=COLOUR_RGB('Opaque(26,26,26)',0.101960784313725,0.101960784313725,
0.101960784313725);
ENDSEC;
END-ISO-10303-21;
